<?xml version="1.0" encoding="utf-8" standalone="no"?>
<!DOCTYPE svg PUBLIC "-//W3C//DTD SVG 1.1//EN"
  "http://www.w3.org/Graphics/SVG/1.1/DTD/svg11.dtd">
<svg xmlns:xlink="http://www.w3.org/1999/xlink" width="1229.04pt" height="615.6pt" viewBox="0 0 1229.04 615.6" xmlns="http://www.w3.org/2000/svg" version="1.1">
 <metadata>
  <rdf:RDF xmlns:dc="http://purl.org/dc/elements/1.1/" xmlns:cc="http://creativecommons.org/ns#" xmlns:rdf="http://www.w3.org/1999/02/22-rdf-syntax-ns#">
   <cc:Work>
    <dc:type rdf:resource="http://purl.org/dc/dcmitype/StillImage"/>
    <dc:date>2026-01-25T14:49:57.229786</dc:date>
    <dc:format>image/svg+xml</dc:format>
    <dc:creator>
     <cc:Agent>
      <dc:title>Matplotlib v3.10.6, https://matplotlib.org/</dc:title>
     </cc:Agent>
    </dc:creator>
   </cc:Work>
  </rdf:RDF>
 </metadata>
 <defs>
  <style type="text/css">*{stroke-linejoin: round; stroke-linecap: butt}</style>
 </defs>
 <g id="figure_1">
  <g id="patch_1">
   <path d="M 0 615.6 
L 1229.04 615.6 
L 1229.04 0 
L 0 0 
z
" style="fill: #ffffff"/>
  </g>
  <g id="axes_1">
   <g id="patch_2">
    <path d="M 58.592775 563.469429 
L 571.990483 563.469429 
L 571.990483 33.711429 
L 58.592775 33.711429 
z
" style="fill: #e5e5e5"/>
   </g>
   <g id="matplotlib.axis_1">
    <g id="xtick_1">
     <g id="line2d_1">
      <path d="M 58.592775 563.469429 
L 58.592775 33.711429 
" clip-path="url(#p753dcc306b)" style="fill: none; stroke: #ffffff; stroke-width: 0.8; stroke-linecap: square"/>
     </g>
     <g id="line2d_2">
      <defs>
       <path id="m074b30fcc6" d="M 0 0 
L 0 3.5 
" style="stroke: #555555; stroke-width: 0.8"/>
      </defs>
      <g>
       <use xlink:href="#m074b30fcc6" x="58.592775" y="563.469429" style="fill: #555555; stroke: #555555; stroke-width: 0.8"/>
      </g>
     </g>
     <g id="text_1">
      <!-- 2010 -->
      <g style="fill: #555555" transform="translate(45.867775 578.067866) scale(0.1 -0.1)">
       <defs>
        <path id="DejaVuSans-32" d="M 1228 531 
L 3431 531 
L 3431 0 
L 469 0 
L 469 531 
Q 828 903 1448 1529 
Q 2069 2156 2228 2338 
Q 2531 2678 2651 2914 
Q 2772 3150 2772 3378 
Q 2772 3750 2511 3984 
Q 2250 4219 1831 4219 
Q 1534 4219 1204 4116 
Q 875 4013 500 3803 
L 500 4441 
Q 881 4594 1212 4672 
Q 1544 4750 1819 4750 
Q 2544 4750 2975 4387 
Q 3406 4025 3406 3419 
Q 3406 3131 3298 2873 
Q 3191 2616 2906 2266 
Q 2828 2175 2409 1742 
Q 1991 1309 1228 531 
z
" transform="scale(0.015625)"/>
        <path id="DejaVuSans-30" d="M 2034 4250 
Q 1547 4250 1301 3770 
Q 1056 3291 1056 2328 
Q 1056 1369 1301 889 
Q 1547 409 2034 409 
Q 2525 409 2770 889 
Q 3016 1369 3016 2328 
Q 3016 3291 2770 3770 
Q 2525 4250 2034 4250 
z
M 2034 4750 
Q 2819 4750 3233 4129 
Q 3647 3509 3647 2328 
Q 3647 1150 3233 529 
Q 2819 -91 2034 -91 
Q 1250 -91 836 529 
Q 422 1150 422 2328 
Q 422 3509 836 4129 
Q 1250 4750 2034 4750 
z
" transform="scale(0.015625)"/>
        <path id="DejaVuSans-31" d="M 794 531 
L 1825 531 
L 1825 4091 
L 703 3866 
L 703 4441 
L 1819 4666 
L 2450 4666 
L 2450 531 
L 3481 531 
L 3481 0 
L 794 0 
L 794 531 
z
" transform="scale(0.015625)"/>
       </defs>
       <use xlink:href="#DejaVuSans-32"/>
       <use xlink:href="#DejaVuSans-30" transform="translate(63.623047 0)"/>
       <use xlink:href="#DejaVuSans-31" transform="translate(127.246094 0)"/>
       <use xlink:href="#DejaVuSans-30" transform="translate(190.869141 0)"/>
      </g>
     </g>
    </g>
    <g id="xtick_2">
     <g id="line2d_3">
      <path d="M 161.272317 563.469429 
L 161.272317 33.711429 
" clip-path="url(#p753dcc306b)" style="fill: none; stroke: #ffffff; stroke-width: 0.8; stroke-linecap: square"/>
     </g>
     <g id="line2d_4">
      <g>
       <use xlink:href="#m074b30fcc6" x="161.272317" y="563.469429" style="fill: #555555; stroke: #555555; stroke-width: 0.8"/>
      </g>
     </g>
     <g id="text_2">
      <!-- 2020 -->
      <g style="fill: #555555" transform="translate(148.547317 578.067866) scale(0.1 -0.1)">
       <use xlink:href="#DejaVuSans-32"/>
       <use xlink:href="#DejaVuSans-30" transform="translate(63.623047 0)"/>
       <use xlink:href="#DejaVuSans-32" transform="translate(127.246094 0)"/>
       <use xlink:href="#DejaVuSans-30" transform="translate(190.869141 0)"/>
      </g>
     </g>
    </g>
    <g id="xtick_3">
     <g id="line2d_5">
      <path d="M 263.951858 563.469429 
L 263.951858 33.711429 
" clip-path="url(#p753dcc306b)" style="fill: none; stroke: #ffffff; stroke-width: 0.8; stroke-linecap: square"/>
     </g>
     <g id="line2d_6">
      <g>
       <use xlink:href="#m074b30fcc6" x="263.951858" y="563.469429" style="fill: #555555; stroke: #555555; stroke-width: 0.8"/>
      </g>
     </g>
     <g id="text_3">
      <!-- 2030 -->
      <g style="fill: #555555" transform="translate(251.226858 578.067866) scale(0.1 -0.1)">
       <defs>
        <path id="DejaVuSans-33" d="M 2597 2516 
Q 3050 2419 3304 2112 
Q 3559 1806 3559 1356 
Q 3559 666 3084 287 
Q 2609 -91 1734 -91 
Q 1441 -91 1130 -33 
Q 819 25 488 141 
L 488 750 
Q 750 597 1062 519 
Q 1375 441 1716 441 
Q 2309 441 2620 675 
Q 2931 909 2931 1356 
Q 2931 1769 2642 2001 
Q 2353 2234 1838 2234 
L 1294 2234 
L 1294 2753 
L 1863 2753 
Q 2328 2753 2575 2939 
Q 2822 3125 2822 3475 
Q 2822 3834 2567 4026 
Q 2313 4219 1838 4219 
Q 1578 4219 1281 4162 
Q 984 4106 628 3988 
L 628 4550 
Q 988 4650 1302 4700 
Q 1616 4750 1894 4750 
Q 2613 4750 3031 4423 
Q 3450 4097 3450 3541 
Q 3450 3153 3228 2886 
Q 3006 2619 2597 2516 
z
" transform="scale(0.015625)"/>
       </defs>
       <use xlink:href="#DejaVuSans-32"/>
       <use xlink:href="#DejaVuSans-30" transform="translate(63.623047 0)"/>
       <use xlink:href="#DejaVuSans-33" transform="translate(127.246094 0)"/>
       <use xlink:href="#DejaVuSans-30" transform="translate(190.869141 0)"/>
      </g>
     </g>
    </g>
    <g id="xtick_4">
     <g id="line2d_7">
      <path d="M 366.6314 563.469429 
L 366.6314 33.711429 
" clip-path="url(#p753dcc306b)" style="fill: none; stroke: #ffffff; stroke-width: 0.8; stroke-linecap: square"/>
     </g>
     <g id="line2d_8">
      <g>
       <use xlink:href="#m074b30fcc6" x="366.6314" y="563.469429" style="fill: #555555; stroke: #555555; stroke-width: 0.8"/>
      </g>
     </g>
     <g id="text_4">
      <!-- 2040 -->
      <g style="fill: #555555" transform="translate(353.9064 578.067866) scale(0.1 -0.1)">
       <defs>
        <path id="DejaVuSans-34" d="M 2419 4116 
L 825 1625 
L 2419 1625 
L 2419 4116 
z
M 2253 4666 
L 3047 4666 
L 3047 1625 
L 3713 1625 
L 3713 1100 
L 3047 1100 
L 3047 0 
L 2419 0 
L 2419 1100 
L 313 1100 
L 313 1709 
L 2253 4666 
z
" transform="scale(0.015625)"/>
       </defs>
       <use xlink:href="#DejaVuSans-32"/>
       <use xlink:href="#DejaVuSans-30" transform="translate(63.623047 0)"/>
       <use xlink:href="#DejaVuSans-34" transform="translate(127.246094 0)"/>
       <use xlink:href="#DejaVuSans-30" transform="translate(190.869141 0)"/>
      </g>
     </g>
    </g>
    <g id="xtick_5">
     <g id="line2d_9">
      <path d="M 469.310941 563.469429 
L 469.310941 33.711429 
" clip-path="url(#p753dcc306b)" style="fill: none; stroke: #ffffff; stroke-width: 0.8; stroke-linecap: square"/>
     </g>
     <g id="line2d_10">
      <g>
       <use xlink:href="#m074b30fcc6" x="469.310941" y="563.469429" style="fill: #555555; stroke: #555555; stroke-width: 0.8"/>
      </g>
     </g>
     <g id="text_5">
      <!-- 2050 -->
      <g style="fill: #555555" transform="translate(456.585941 578.067866) scale(0.1 -0.1)">
       <defs>
        <path id="DejaVuSans-35" d="M 691 4666 
L 3169 4666 
L 3169 4134 
L 1269 4134 
L 1269 2991 
Q 1406 3038 1543 3061 
Q 1681 3084 1819 3084 
Q 2600 3084 3056 2656 
Q 3513 2228 3513 1497 
Q 3513 744 3044 326 
Q 2575 -91 1722 -91 
Q 1428 -91 1123 -41 
Q 819 9 494 109 
L 494 744 
Q 775 591 1075 516 
Q 1375 441 1709 441 
Q 2250 441 2565 725 
Q 2881 1009 2881 1497 
Q 2881 1984 2565 2268 
Q 2250 2553 1709 2553 
Q 1456 2553 1204 2497 
Q 953 2441 691 2322 
L 691 4666 
z
" transform="scale(0.015625)"/>
       </defs>
       <use xlink:href="#DejaVuSans-32"/>
       <use xlink:href="#DejaVuSans-30" transform="translate(63.623047 0)"/>
       <use xlink:href="#DejaVuSans-35" transform="translate(127.246094 0)"/>
       <use xlink:href="#DejaVuSans-30" transform="translate(190.869141 0)"/>
      </g>
     </g>
    </g>
    <g id="xtick_6">
     <g id="line2d_11">
      <path d="M 571.990483 563.469429 
L 571.990483 33.711429 
" clip-path="url(#p753dcc306b)" style="fill: none; stroke: #ffffff; stroke-width: 0.8; stroke-linecap: square"/>
     </g>
     <g id="line2d_12">
      <g>
       <use xlink:href="#m074b30fcc6" x="571.990483" y="563.469429" style="fill: #555555; stroke: #555555; stroke-width: 0.8"/>
      </g>
     </g>
     <g id="text_6">
      <!-- 2060 -->
      <g style="fill: #555555" transform="translate(559.265483 578.067866) scale(0.1 -0.1)">
       <defs>
        <path id="DejaVuSans-36" d="M 2113 2584 
Q 1688 2584 1439 2293 
Q 1191 2003 1191 1497 
Q 1191 994 1439 701 
Q 1688 409 2113 409 
Q 2538 409 2786 701 
Q 3034 994 3034 1497 
Q 3034 2003 2786 2293 
Q 2538 2584 2113 2584 
z
M 3366 4563 
L 3366 3988 
Q 3128 4100 2886 4159 
Q 2644 4219 2406 4219 
Q 1781 4219 1451 3797 
Q 1122 3375 1075 2522 
Q 1259 2794 1537 2939 
Q 1816 3084 2150 3084 
Q 2853 3084 3261 2657 
Q 3669 2231 3669 1497 
Q 3669 778 3244 343 
Q 2819 -91 2113 -91 
Q 1303 -91 875 529 
Q 447 1150 447 2328 
Q 447 3434 972 4092 
Q 1497 4750 2381 4750 
Q 2619 4750 2861 4703 
Q 3103 4656 3366 4563 
z
" transform="scale(0.015625)"/>
       </defs>
       <use xlink:href="#DejaVuSans-32"/>
       <use xlink:href="#DejaVuSans-30" transform="translate(63.623047 0)"/>
       <use xlink:href="#DejaVuSans-36" transform="translate(127.246094 0)"/>
       <use xlink:href="#DejaVuSans-30" transform="translate(190.869141 0)"/>
      </g>
     </g>
    </g>
    <g id="text_7">
     <!-- Year -->
     <g style="fill: #555555" transform="translate(302.586629 593.265679) scale(0.12 -0.12)">
      <defs>
       <path id="DejaVuSans-59" d="M -13 4666 
L 666 4666 
L 1959 2747 
L 3244 4666 
L 3922 4666 
L 2272 2222 
L 2272 0 
L 1638 0 
L 1638 2222 
L -13 4666 
z
" transform="scale(0.015625)"/>
       <path id="DejaVuSans-65" d="M 3597 1894 
L 3597 1613 
L 953 1613 
Q 991 1019 1311 708 
Q 1631 397 2203 397 
Q 2534 397 2845 478 
Q 3156 559 3463 722 
L 3463 178 
Q 3153 47 2828 -22 
Q 2503 -91 2169 -91 
Q 1331 -91 842 396 
Q 353 884 353 1716 
Q 353 2575 817 3079 
Q 1281 3584 2069 3584 
Q 2775 3584 3186 3129 
Q 3597 2675 3597 1894 
z
M 3022 2063 
Q 3016 2534 2758 2815 
Q 2500 3097 2075 3097 
Q 1594 3097 1305 2825 
Q 1016 2553 972 2059 
L 3022 2063 
z
" transform="scale(0.015625)"/>
       <path id="DejaVuSans-61" d="M 2194 1759 
Q 1497 1759 1228 1600 
Q 959 1441 959 1056 
Q 959 750 1161 570 
Q 1363 391 1709 391 
Q 2188 391 2477 730 
Q 2766 1069 2766 1631 
L 2766 1759 
L 2194 1759 
z
M 3341 1997 
L 3341 0 
L 2766 0 
L 2766 531 
Q 2569 213 2275 61 
Q 1981 -91 1556 -91 
Q 1019 -91 701 211 
Q 384 513 384 1019 
Q 384 1609 779 1909 
Q 1175 2209 1959 2209 
L 2766 2209 
L 2766 2266 
Q 2766 2663 2505 2880 
Q 2244 3097 1772 3097 
Q 1472 3097 1187 3025 
Q 903 2953 641 2809 
L 641 3341 
Q 956 3463 1253 3523 
Q 1550 3584 1831 3584 
Q 2591 3584 2966 3190 
Q 3341 2797 3341 1997 
z
" transform="scale(0.015625)"/>
       <path id="DejaVuSans-72" d="M 2631 2963 
Q 2534 3019 2420 3045 
Q 2306 3072 2169 3072 
Q 1681 3072 1420 2755 
Q 1159 2438 1159 1844 
L 1159 0 
L 581 0 
L 581 3500 
L 1159 3500 
L 1159 2956 
Q 1341 3275 1631 3429 
Q 1922 3584 2338 3584 
Q 2397 3584 2469 3576 
Q 2541 3569 2628 3553 
L 2631 2963 
z
" transform="scale(0.015625)"/>
      </defs>
      <use xlink:href="#DejaVuSans-59"/>
      <use xlink:href="#DejaVuSans-65" transform="translate(47.833984 0)"/>
      <use xlink:href="#DejaVuSans-61" transform="translate(109.357422 0)"/>
      <use xlink:href="#DejaVuSans-72" transform="translate(170.636719 0)"/>
     </g>
    </g>
   </g>
   <g id="matplotlib.axis_2">
    <g id="ytick_1">
     <g id="line2d_13">
      <path d="M 58.592775 555.365443 
L 571.990483 555.365443 
" clip-path="url(#p753dcc306b)" style="fill: none; stroke: #ffffff; stroke-width: 0.8; stroke-linecap: square"/>
     </g>
     <g id="line2d_14">
      <defs>
       <path id="m675bdc51b2" d="M 0 0 
L -3.5 0 
" style="stroke: #555555; stroke-width: 0.8"/>
      </defs>
      <g>
       <use xlink:href="#m675bdc51b2" x="58.592775" y="555.365443" style="fill: #555555; stroke: #555555; stroke-width: 0.8"/>
      </g>
     </g>
     <g id="text_8">
      <!-- 0.00 -->
      <g style="fill: #555555" transform="translate(29.32715 559.164662) scale(0.1 -0.1)">
       <defs>
        <path id="DejaVuSans-2e" d="M 684 794 
L 1344 794 
L 1344 0 
L 684 0 
L 684 794 
z
" transform="scale(0.015625)"/>
       </defs>
       <use xlink:href="#DejaVuSans-30"/>
       <use xlink:href="#DejaVuSans-2e" transform="translate(63.623047 0)"/>
       <use xlink:href="#DejaVuSans-30" transform="translate(95.410156 0)"/>
       <use xlink:href="#DejaVuSans-30" transform="translate(159.033203 0)"/>
      </g>
     </g>
    </g>
    <g id="ytick_2">
     <g id="line2d_15">
      <path d="M 58.592775 488.742003 
L 571.990483 488.742003 
" clip-path="url(#p753dcc306b)" style="fill: none; stroke: #ffffff; stroke-width: 0.8; stroke-linecap: square"/>
     </g>
     <g id="line2d_16">
      <g>
       <use xlink:href="#m675bdc51b2" x="58.592775" y="488.742003" style="fill: #555555; stroke: #555555; stroke-width: 0.8"/>
      </g>
     </g>
     <g id="text_9">
      <!-- 0.25 -->
      <g style="fill: #555555" transform="translate(29.32715 492.541221) scale(0.1 -0.1)">
       <use xlink:href="#DejaVuSans-30"/>
       <use xlink:href="#DejaVuSans-2e" transform="translate(63.623047 0)"/>
       <use xlink:href="#DejaVuSans-32" transform="translate(95.410156 0)"/>
       <use xlink:href="#DejaVuSans-35" transform="translate(159.033203 0)"/>
      </g>
     </g>
    </g>
    <g id="ytick_3">
     <g id="line2d_17">
      <path d="M 58.592775 422.118562 
L 571.990483 422.118562 
" clip-path="url(#p753dcc306b)" style="fill: none; stroke: #ffffff; stroke-width: 0.8; stroke-linecap: square"/>
     </g>
     <g id="line2d_18">
      <g>
       <use xlink:href="#m675bdc51b2" x="58.592775" y="422.118562" style="fill: #555555; stroke: #555555; stroke-width: 0.8"/>
      </g>
     </g>
     <g id="text_10">
      <!-- 0.50 -->
      <g style="fill: #555555" transform="translate(29.32715 425.917781) scale(0.1 -0.1)">
       <use xlink:href="#DejaVuSans-30"/>
       <use xlink:href="#DejaVuSans-2e" transform="translate(63.623047 0)"/>
       <use xlink:href="#DejaVuSans-35" transform="translate(95.410156 0)"/>
       <use xlink:href="#DejaVuSans-30" transform="translate(159.033203 0)"/>
      </g>
     </g>
    </g>
    <g id="ytick_4">
     <g id="line2d_19">
      <path d="M 58.592775 355.495122 
L 571.990483 355.495122 
" clip-path="url(#p753dcc306b)" style="fill: none; stroke: #ffffff; stroke-width: 0.8; stroke-linecap: square"/>
     </g>
     <g id="line2d_20">
      <g>
       <use xlink:href="#m675bdc51b2" x="58.592775" y="355.495122" style="fill: #555555; stroke: #555555; stroke-width: 0.8"/>
      </g>
     </g>
     <g id="text_11">
      <!-- 0.75 -->
      <g style="fill: #555555" transform="translate(29.32715 359.29434) scale(0.1 -0.1)">
       <defs>
        <path id="DejaVuSans-37" d="M 525 4666 
L 3525 4666 
L 3525 4397 
L 1831 0 
L 1172 0 
L 2766 4134 
L 525 4134 
L 525 4666 
z
" transform="scale(0.015625)"/>
       </defs>
       <use xlink:href="#DejaVuSans-30"/>
       <use xlink:href="#DejaVuSans-2e" transform="translate(63.623047 0)"/>
       <use xlink:href="#DejaVuSans-37" transform="translate(95.410156 0)"/>
       <use xlink:href="#DejaVuSans-35" transform="translate(159.033203 0)"/>
      </g>
     </g>
    </g>
    <g id="ytick_5">
     <g id="line2d_21">
      <path d="M 58.592775 288.871681 
L 571.990483 288.871681 
" clip-path="url(#p753dcc306b)" style="fill: none; stroke: #ffffff; stroke-width: 0.8; stroke-linecap: square"/>
     </g>
     <g id="line2d_22">
      <g>
       <use xlink:href="#m675bdc51b2" x="58.592775" y="288.871681" style="fill: #555555; stroke: #555555; stroke-width: 0.8"/>
      </g>
     </g>
     <g id="text_12">
      <!-- 1.00 -->
      <g style="fill: #555555" transform="translate(29.32715 292.6709) scale(0.1 -0.1)">
       <use xlink:href="#DejaVuSans-31"/>
       <use xlink:href="#DejaVuSans-2e" transform="translate(63.623047 0)"/>
       <use xlink:href="#DejaVuSans-30" transform="translate(95.410156 0)"/>
       <use xlink:href="#DejaVuSans-30" transform="translate(159.033203 0)"/>
      </g>
     </g>
    </g>
    <g id="ytick_6">
     <g id="line2d_23">
      <path d="M 58.592775 222.248241 
L 571.990483 222.248241 
" clip-path="url(#p753dcc306b)" style="fill: none; stroke: #ffffff; stroke-width: 0.8; stroke-linecap: square"/>
     </g>
     <g id="line2d_24">
      <g>
       <use xlink:href="#m675bdc51b2" x="58.592775" y="222.248241" style="fill: #555555; stroke: #555555; stroke-width: 0.8"/>
      </g>
     </g>
     <g id="text_13">
      <!-- 1.25 -->
      <g style="fill: #555555" transform="translate(29.32715 226.047459) scale(0.1 -0.1)">
       <use xlink:href="#DejaVuSans-31"/>
       <use xlink:href="#DejaVuSans-2e" transform="translate(63.623047 0)"/>
       <use xlink:href="#DejaVuSans-32" transform="translate(95.410156 0)"/>
       <use xlink:href="#DejaVuSans-35" transform="translate(159.033203 0)"/>
      </g>
     </g>
    </g>
    <g id="ytick_7">
     <g id="line2d_25">
      <path d="M 58.592775 155.6248 
L 571.990483 155.6248 
" clip-path="url(#p753dcc306b)" style="fill: none; stroke: #ffffff; stroke-width: 0.8; stroke-linecap: square"/>
     </g>
     <g id="line2d_26">
      <g>
       <use xlink:href="#m675bdc51b2" x="58.592775" y="155.6248" style="fill: #555555; stroke: #555555; stroke-width: 0.8"/>
      </g>
     </g>
     <g id="text_14">
      <!-- 1.50 -->
      <g style="fill: #555555" transform="translate(29.32715 159.424019) scale(0.1 -0.1)">
       <use xlink:href="#DejaVuSans-31"/>
       <use xlink:href="#DejaVuSans-2e" transform="translate(63.623047 0)"/>
       <use xlink:href="#DejaVuSans-35" transform="translate(95.410156 0)"/>
       <use xlink:href="#DejaVuSans-30" transform="translate(159.033203 0)"/>
      </g>
     </g>
    </g>
    <g id="ytick_8">
     <g id="line2d_27">
      <path d="M 58.592775 89.00136 
L 571.990483 89.00136 
" clip-path="url(#p753dcc306b)" style="fill: none; stroke: #ffffff; stroke-width: 0.8; stroke-linecap: square"/>
     </g>
     <g id="line2d_28">
      <g>
       <use xlink:href="#m675bdc51b2" x="58.592775" y="89.00136" style="fill: #555555; stroke: #555555; stroke-width: 0.8"/>
      </g>
     </g>
     <g id="text_15">
      <!-- 1.75 -->
      <g style="fill: #555555" transform="translate(29.32715 92.800579) scale(0.1 -0.1)">
       <use xlink:href="#DejaVuSans-31"/>
       <use xlink:href="#DejaVuSans-2e" transform="translate(63.623047 0)"/>
       <use xlink:href="#DejaVuSans-37" transform="translate(95.410156 0)"/>
       <use xlink:href="#DejaVuSans-35" transform="translate(159.033203 0)"/>
      </g>
     </g>
    </g>
    <g id="text_16">
     <!-- Financial Scale (Normalized) -->
     <g style="fill: #555555" transform="translate(22.831525 383.530741) rotate(-90) scale(0.12 -0.12)">
      <defs>
       <path id="DejaVuSans-46" d="M 628 4666 
L 3309 4666 
L 3309 4134 
L 1259 4134 
L 1259 2759 
L 3109 2759 
L 3109 2228 
L 1259 2228 
L 1259 0 
L 628 0 
L 628 4666 
z
" transform="scale(0.015625)"/>
       <path id="DejaVuSans-69" d="M 603 3500 
L 1178 3500 
L 1178 0 
L 603 0 
L 603 3500 
z
M 603 4863 
L 1178 4863 
L 1178 4134 
L 603 4134 
L 603 4863 
z
" transform="scale(0.015625)"/>
       <path id="DejaVuSans-6e" d="M 3513 2113 
L 3513 0 
L 2938 0 
L 2938 2094 
Q 2938 2591 2744 2837 
Q 2550 3084 2163 3084 
Q 1697 3084 1428 2787 
Q 1159 2491 1159 1978 
L 1159 0 
L 581 0 
L 581 3500 
L 1159 3500 
L 1159 2956 
Q 1366 3272 1645 3428 
Q 1925 3584 2291 3584 
Q 2894 3584 3203 3211 
Q 3513 2838 3513 2113 
z
" transform="scale(0.015625)"/>
       <path id="DejaVuSans-63" d="M 3122 3366 
L 3122 2828 
Q 2878 2963 2633 3030 
Q 2388 3097 2138 3097 
Q 1578 3097 1268 2742 
Q 959 2388 959 1747 
Q 959 1106 1268 751 
Q 1578 397 2138 397 
Q 2388 397 2633 464 
Q 2878 531 3122 666 
L 3122 134 
Q 2881 22 2623 -34 
Q 2366 -91 2075 -91 
Q 1284 -91 818 406 
Q 353 903 353 1747 
Q 353 2603 823 3093 
Q 1294 3584 2113 3584 
Q 2378 3584 2631 3529 
Q 2884 3475 3122 3366 
z
" transform="scale(0.015625)"/>
       <path id="DejaVuSans-6c" d="M 603 4863 
L 1178 4863 
L 1178 0 
L 603 0 
L 603 4863 
z
" transform="scale(0.015625)"/>
       <path id="DejaVuSans-20" transform="scale(0.015625)"/>
       <path id="DejaVuSans-53" d="M 3425 4513 
L 3425 3897 
Q 3066 4069 2747 4153 
Q 2428 4238 2131 4238 
Q 1616 4238 1336 4038 
Q 1056 3838 1056 3469 
Q 1056 3159 1242 3001 
Q 1428 2844 1947 2747 
L 2328 2669 
Q 3034 2534 3370 2195 
Q 3706 1856 3706 1288 
Q 3706 609 3251 259 
Q 2797 -91 1919 -91 
Q 1588 -91 1214 -16 
Q 841 59 441 206 
L 441 856 
Q 825 641 1194 531 
Q 1563 422 1919 422 
Q 2459 422 2753 634 
Q 3047 847 3047 1241 
Q 3047 1584 2836 1778 
Q 2625 1972 2144 2069 
L 1759 2144 
Q 1053 2284 737 2584 
Q 422 2884 422 3419 
Q 422 4038 858 4394 
Q 1294 4750 2059 4750 
Q 2388 4750 2728 4690 
Q 3069 4631 3425 4513 
z
" transform="scale(0.015625)"/>
       <path id="DejaVuSans-28" d="M 1984 4856 
Q 1566 4138 1362 3434 
Q 1159 2731 1159 2009 
Q 1159 1288 1364 580 
Q 1569 -128 1984 -844 
L 1484 -844 
Q 1016 -109 783 600 
Q 550 1309 550 2009 
Q 550 2706 781 3412 
Q 1013 4119 1484 4856 
L 1984 4856 
z
" transform="scale(0.015625)"/>
       <path id="DejaVuSans-4e" d="M 628 4666 
L 1478 4666 
L 3547 763 
L 3547 4666 
L 4159 4666 
L 4159 0 
L 3309 0 
L 1241 3903 
L 1241 0 
L 628 0 
L 628 4666 
z
" transform="scale(0.015625)"/>
       <path id="DejaVuSans-6f" d="M 1959 3097 
Q 1497 3097 1228 2736 
Q 959 2375 959 1747 
Q 959 1119 1226 758 
Q 1494 397 1959 397 
Q 2419 397 2687 759 
Q 2956 1122 2956 1747 
Q 2956 2369 2687 2733 
Q 2419 3097 1959 3097 
z
M 1959 3584 
Q 2709 3584 3137 3096 
Q 3566 2609 3566 1747 
Q 3566 888 3137 398 
Q 2709 -91 1959 -91 
Q 1206 -91 779 398 
Q 353 888 353 1747 
Q 353 2609 779 3096 
Q 1206 3584 1959 3584 
z
" transform="scale(0.015625)"/>
       <path id="DejaVuSans-6d" d="M 3328 2828 
Q 3544 3216 3844 3400 
Q 4144 3584 4550 3584 
Q 5097 3584 5394 3201 
Q 5691 2819 5691 2113 
L 5691 0 
L 5113 0 
L 5113 2094 
Q 5113 2597 4934 2840 
Q 4756 3084 4391 3084 
Q 3944 3084 3684 2787 
Q 3425 2491 3425 1978 
L 3425 0 
L 2847 0 
L 2847 2094 
Q 2847 2600 2669 2842 
Q 2491 3084 2119 3084 
Q 1678 3084 1418 2786 
Q 1159 2488 1159 1978 
L 1159 0 
L 581 0 
L 581 3500 
L 1159 3500 
L 1159 2956 
Q 1356 3278 1631 3431 
Q 1906 3584 2284 3584 
Q 2666 3584 2933 3390 
Q 3200 3197 3328 2828 
z
" transform="scale(0.015625)"/>
       <path id="DejaVuSans-7a" d="M 353 3500 
L 3084 3500 
L 3084 2975 
L 922 459 
L 3084 459 
L 3084 0 
L 275 0 
L 275 525 
L 2438 3041 
L 353 3041 
L 353 3500 
z
" transform="scale(0.015625)"/>
       <path id="DejaVuSans-64" d="M 2906 2969 
L 2906 4863 
L 3481 4863 
L 3481 0 
L 2906 0 
L 2906 525 
Q 2725 213 2448 61 
Q 2172 -91 1784 -91 
Q 1150 -91 751 415 
Q 353 922 353 1747 
Q 353 2572 751 3078 
Q 1150 3584 1784 3584 
Q 2172 3584 2448 3432 
Q 2725 3281 2906 2969 
z
M 947 1747 
Q 947 1113 1208 752 
Q 1469 391 1925 391 
Q 2381 391 2643 752 
Q 2906 1113 2906 1747 
Q 2906 2381 2643 2742 
Q 2381 3103 1925 3103 
Q 1469 3103 1208 2742 
Q 947 2381 947 1747 
z
" transform="scale(0.015625)"/>
       <path id="DejaVuSans-29" d="M 513 4856 
L 1013 4856 
Q 1481 4119 1714 3412 
Q 1947 2706 1947 2009 
Q 1947 1309 1714 600 
Q 1481 -109 1013 -844 
L 513 -844 
Q 928 -128 1133 580 
Q 1338 1288 1338 2009 
Q 1338 2731 1133 3434 
Q 928 4138 513 4856 
z
" transform="scale(0.015625)"/>
      </defs>
      <use xlink:href="#DejaVuSans-46"/>
      <use xlink:href="#DejaVuSans-69" transform="translate(50.269531 0)"/>
      <use xlink:href="#DejaVuSans-6e" transform="translate(78.052734 0)"/>
      <use xlink:href="#DejaVuSans-61" transform="translate(141.431641 0)"/>
      <use xlink:href="#DejaVuSans-6e" transform="translate(202.710938 0)"/>
      <use xlink:href="#DejaVuSans-63" transform="translate(266.089844 0)"/>
      <use xlink:href="#DejaVuSans-69" transform="translate(321.070312 0)"/>
      <use xlink:href="#DejaVuSans-61" transform="translate(348.853516 0)"/>
      <use xlink:href="#DejaVuSans-6c" transform="translate(410.132812 0)"/>
      <use xlink:href="#DejaVuSans-20" transform="translate(437.916016 0)"/>
      <use xlink:href="#DejaVuSans-53" transform="translate(469.703125 0)"/>
      <use xlink:href="#DejaVuSans-63" transform="translate(533.179688 0)"/>
      <use xlink:href="#DejaVuSans-61" transform="translate(588.160156 0)"/>
      <use xlink:href="#DejaVuSans-6c" transform="translate(649.439453 0)"/>
      <use xlink:href="#DejaVuSans-65" transform="translate(677.222656 0)"/>
      <use xlink:href="#DejaVuSans-20" transform="translate(738.746094 0)"/>
      <use xlink:href="#DejaVuSans-28" transform="translate(770.533203 0)"/>
      <use xlink:href="#DejaVuSans-4e" transform="translate(809.546875 0)"/>
      <use xlink:href="#DejaVuSans-6f" transform="translate(884.351562 0)"/>
      <use xlink:href="#DejaVuSans-72" transform="translate(945.533203 0)"/>
      <use xlink:href="#DejaVuSans-6d" transform="translate(984.896484 0)"/>
      <use xlink:href="#DejaVuSans-61" transform="translate(1082.308594 0)"/>
      <use xlink:href="#DejaVuSans-6c" transform="translate(1143.587891 0)"/>
      <use xlink:href="#DejaVuSans-69" transform="translate(1171.371094 0)"/>
      <use xlink:href="#DejaVuSans-7a" transform="translate(1199.154297 0)"/>
      <use xlink:href="#DejaVuSans-65" transform="translate(1251.644531 0)"/>
      <use xlink:href="#DejaVuSans-64" transform="translate(1313.167969 0)"/>
      <use xlink:href="#DejaVuSans-29" transform="translate(1376.644531 0)"/>
     </g>
    </g>
    <g id="text_17">
     <!-- 1e8 -->
     <g style="fill: #555555" transform="translate(58.592775 30.711429) scale(0.1 -0.1)">
      <defs>
       <path id="DejaVuSans-38" d="M 2034 2216 
Q 1584 2216 1326 1975 
Q 1069 1734 1069 1313 
Q 1069 891 1326 650 
Q 1584 409 2034 409 
Q 2484 409 2743 651 
Q 3003 894 3003 1313 
Q 3003 1734 2745 1975 
Q 2488 2216 2034 2216 
z
M 1403 2484 
Q 997 2584 770 2862 
Q 544 3141 544 3541 
Q 544 4100 942 4425 
Q 1341 4750 2034 4750 
Q 2731 4750 3128 4425 
Q 3525 4100 3525 3541 
Q 3525 3141 3298 2862 
Q 3072 2584 2669 2484 
Q 3125 2378 3379 2068 
Q 3634 1759 3634 1313 
Q 3634 634 3220 271 
Q 2806 -91 2034 -91 
Q 1263 -91 848 271 
Q 434 634 434 1313 
Q 434 1759 690 2068 
Q 947 2378 1403 2484 
z
M 1172 3481 
Q 1172 3119 1398 2916 
Q 1625 2713 2034 2713 
Q 2441 2713 2670 2916 
Q 2900 3119 2900 3481 
Q 2900 3844 2670 4047 
Q 2441 4250 2034 4250 
Q 1625 4250 1398 4047 
Q 1172 3844 1172 3481 
z
" transform="scale(0.015625)"/>
      </defs>
      <use xlink:href="#DejaVuSans-31"/>
      <use xlink:href="#DejaVuSans-65" transform="translate(63.623047 0)"/>
      <use xlink:href="#DejaVuSans-38" transform="translate(125.146484 0)"/>
     </g>
    </g>
   </g>
   <g id="patch_3">
    <path d="M 448.775033 563.469429 
L 551.454575 563.469429 
L 551.454575 33.711429 
L 448.775033 33.711429 
z
" clip-path="url(#p753dcc306b)" style="fill: #008000; opacity: 0.1; stroke: #008000; stroke-width: 0.5; stroke-linejoin: miter"/>
   </g>
   <g id="line2d_29">
    <path d="M -1 516.660466 
L 7.253004 515.190156 
L 17.520958 513.273609 
L 27.788913 511.265633 
L 38.056867 509.161868 
L 48.324821 506.957743 
L 58.592775 504.648471 
L 68.860729 502.229036 
L 79.128683 499.694183 
L 89.396637 497.038406 
L 99.664592 494.255936 
L 109.932546 491.340729 
L 120.2005 488.286453 
L 130.468454 485.086474 
L 140.736408 481.733841 
L 151.004362 478.221273 
L 161.272317 474.541138 
L 171.540271 470.685444 
L 181.808225 466.645815 
L 192.076179 462.413477 
L 202.344133 457.979237 
L 212.612087 453.333464 
L 222.880042 448.466065 
L 233.147996 443.366469 
L 243.41595 438.023598 
L 253.683904 432.425848 
L 263.951858 426.561059 
L 274.219812 420.416493 
L 284.487766 413.978802 
L 294.755721 407.234003 
L 305.023675 400.167447 
L 315.291629 392.763783 
L 325.559583 385.006929 
L 335.827537 376.880038 
L 346.095491 368.365456 
L 356.363446 359.44469 
L 366.6314 350.098361 
L 376.899354 340.306169 
L 387.167308 330.046844 
L 397.435262 319.298102 
L 407.703216 308.036595 
L 417.971171 296.237862 
L 428.239125 283.876275 
L 438.507079 270.924982 
L 448.775033 257.355853 
L 459.042987 243.139413 
L 469.310941 228.244784 
L 479.578896 212.639611 
L 489.84685 196.289999 
L 500.114804 179.160435 
L 510.382758 161.213712 
L 520.650712 142.410846 
L 530.918666 122.710996 
L 541.18662 102.071373 
L 551.454575 80.447143 
L 561.722529 57.791338 
" clip-path="url(#p753dcc306b)" style="fill: none; stroke: #ff0000; stroke-opacity: 0.6; stroke-width: 2; stroke-linecap: square"/>
   </g>
   <g id="line2d_30">
    <path d="M -1 524.401462 
L 7.253004 523.225214 
L 17.520958 521.691976 
L 27.788913 520.085595 
L 38.056867 518.402583 
L 48.324821 516.639283 
L 58.592775 514.791866 
L 68.860729 512.856318 
L 79.128683 510.828435 
L 89.396637 508.703813 
L 99.664592 506.477837 
L 109.932546 504.145672 
L 120.2005 501.702251 
L 130.468454 499.142268 
L 140.736408 496.460162 
L 151.004362 493.650107 
L 161.272317 490.705999 
L 171.540271 487.621444 
L 181.808225 484.389741 
L 192.076179 481.00387 
L 202.344133 477.456478 
L 212.612087 473.73986 
L 222.880042 469.845941 
L 233.147996 465.766264 
L 243.41595 461.491967 
L 253.683904 457.013767 
L 263.951858 452.321936 
L 274.219812 447.406283 
L 284.487766 442.25613 
L 294.755721 436.860291 
L 305.023675 431.207046 
L 315.291629 425.284115 
L 325.559583 419.078632 
L 335.827537 412.577119 
L 346.095491 405.765454 
L 356.363446 398.62884 
L 366.6314 391.151777 
L 376.899354 383.318024 
L 387.167308 375.110564 
L 397.435262 366.51157 
L 407.703216 357.502365 
L 417.971171 348.063378 
L 428.239125 338.174108 
L 438.507079 327.813074 
L 448.775033 316.957771 
L 459.042987 305.584619 
L 469.310941 293.668916 
L 479.578896 281.184777 
L 489.84685 268.105088 
L 500.114804 254.401437 
L 510.382758 240.044058 
L 520.650712 225.001765 
L 530.918666 209.241886 
L 541.18662 192.730187 
L 551.454575 175.430803 
L 561.722529 157.306159 
" clip-path="url(#p753dcc306b)" style="fill: none; stroke: #008000; stroke-width: 2.5; stroke-linecap: square"/>
   </g>
   <g id="line2d_31">
    <path d="M -1 455.82621 
L 7.253004 453.835825 
L 17.520958 451.297584 
L 27.788913 448.695888 
L 38.056867 446.029149 
L 48.324821 443.295742 
L 58.592775 440.493999 
L 68.860729 437.622213 
L 79.128683 434.678632 
L 89.396637 431.661462 
L 99.664592 428.568863 
L 109.932546 425.398948 
L 120.2005 422.149786 
L 130.468454 418.819394 
L 140.736408 415.405743 
L 151.004362 411.906751 
L 161.272317 408.320283 
L 171.540271 404.644154 
L 181.808225 400.876122 
L 192.076179 397.013889 
L 202.344133 393.0551 
L 212.612087 388.997342 
L 222.880042 384.838139 
L 233.147996 380.574956 
L 243.41595 376.205194 
L 253.683904 371.726188 
L 263.951858 367.135207 
L 274.219812 362.429451 
L 284.487766 357.606051 
L 294.755721 352.662066 
L 305.023675 347.594482 
L 315.291629 342.400208 
L 325.559583 337.076077 
L 335.827537 331.618843 
L 346.095491 326.025178 
L 356.363446 320.291671 
L 366.6314 314.414827 
L 376.899354 308.391061 
L 387.167308 302.216702 
L 397.435262 295.887983 
L 407.703216 289.401047 
L 417.971171 282.751937 
L 428.239125 275.936599 
L 438.507079 268.950878 
L 448.775033 261.790514 
L 459.042987 254.451141 
L 469.310941 246.928283 
L 479.578896 239.217354 
L 489.84685 231.313652 
L 500.114804 223.212357 
L 510.382758 214.90853 
L 520.650712 206.397107 
L 530.918666 197.672899 
L 541.18662 188.730585 
L 551.454575 179.564714 
L 561.722529 170.169696 
" clip-path="url(#p753dcc306b)" style="fill: none; stroke-dasharray: 7.4,3.2; stroke-dashoffset: 0; stroke: #0000ff; stroke-width: 2"/>
   </g>
   <g id="line2d_32">
    <path d="M 202.344133 563.469429 
L 202.344133 33.711429 
" clip-path="url(#p753dcc306b)" style="fill: none; stroke-dasharray: 1.5,2.475; stroke-dashoffset: 0; stroke: #808080; stroke-opacity: 0.5; stroke-width: 1.5"/>
   </g>
   <g id="line2d_33">
    <defs>
     <path id="mefd341bdc8" d="M 0 4 
C 1.060812 4 2.078319 3.578535 2.828427 2.828427 
C 3.578535 2.078319 4 1.060812 4 0 
C 4 -1.060812 3.578535 -2.078319 2.828427 -2.828427 
C 2.078319 -3.578535 1.060812 -4 0 -4 
C -1.060812 -4 -2.078319 -3.578535 -2.828427 -2.828427 
C -3.578535 -2.078319 -4 -1.060812 -4 0 
C -4 1.060812 -3.578535 2.078319 -2.828427 2.828427 
C -2.078319 3.578535 -1.060812 4 0 4 
z
" style="stroke: #ff0000"/>
    </defs>
    <g clip-path="url(#p753dcc306b)">
     <use xlink:href="#mefd341bdc8" x="448.775033" y="257.355853" style="fill: #ff0000; stroke: #ff0000"/>
    </g>
   </g>
   <g id="line2d_34">
    <defs>
     <path id="mea04659c2f" d="M 0 5 
C 1.326016 5 2.597899 4.473168 3.535534 3.535534 
C 4.473168 2.597899 5 1.326016 5 0 
C 5 -1.326016 4.473168 -2.597899 3.535534 -3.535534 
C 2.597899 -4.473168 1.326016 -5 0 -5 
C -1.326016 -5 -2.597899 -4.473168 -3.535534 -3.535534 
C -4.473168 -2.597899 -5 -1.326016 -5 0 
C -5 1.326016 -4.473168 2.597899 -3.535534 3.535534 
C -2.597899 4.473168 -1.326016 5 0 5 
z
" style="stroke: #008000"/>
    </defs>
    <g clip-path="url(#p753dcc306b)">
     <use xlink:href="#mea04659c2f" x="551.454575" y="175.430803" style="fill: #008000; stroke: #008000"/>
    </g>
   </g>
   <g id="patch_4">
    <path d="M 58.592775 563.469429 
L 58.592775 33.711429 
" style="fill: none; stroke: #ffffff; stroke-linejoin: miter; stroke-linecap: square"/>
   </g>
   <g id="patch_5">
    <path d="M 571.990483 563.469429 
L 571.990483 33.711429 
" style="fill: none; stroke: #ffffff; stroke-linejoin: miter; stroke-linecap: square"/>
   </g>
   <g id="patch_6">
    <path d="M 58.592775 563.469429 
L 571.990483 563.469429 
" style="fill: none; stroke: #ffffff; stroke-linejoin: miter; stroke-linecap: square"/>
   </g>
   <g id="patch_7">
    <path d="M 58.592775 33.711429 
L 571.990483 33.711429 
" style="fill: none; stroke: #ffffff; stroke-linejoin: miter; stroke-linecap: square"/>
   </g>
   <g id="patch_8">
    <path d="M 460.877732 224.912032 
Q 457.557046 234.665115 454.236361 244.418197 
L 457.076267 245.385116 
Q 453.249083 250.420539 449.4219 255.455962 
Q 449.462542 249.131314 449.503183 242.806666 
L 452.34309 243.773585 
Q 455.663776 234.020502 458.984461 224.26742 
L 460.877732 224.912032 
z
" style="fill: #ff0000; stroke: #eeeeee; stroke-width: 0.5; stroke-linecap: round"/>
   </g>
   <g id="text_18">
    <g id="patch_9">
     <path d="M 398.775033 222.43554 
L 461.685971 222.43554 
Q 464.685971 222.43554 464.685971 219.43554 
L 464.685971 198.559603 
Q 464.685971 195.559603 461.685971 195.559603 
L 398.775033 195.559603 
Q 395.775033 195.559603 395.775033 198.559603 
L 395.775033 219.43554 
Q 395.775033 222.43554 398.775033 222.43554 
z
" style="fill: #ffffff; opacity: 0.8; stroke: #ff0000; stroke-width: 0.5; stroke-linejoin: miter"/>
    </g>
    <!-- Market Fail -->
    <g style="fill: #ff0000" transform="translate(398.775033 206.15804) scale(0.1 -0.1)">
     <defs>
      <path id="DejaVuSans-Bold-4d" d="M 588 4666 
L 2119 4666 
L 3181 2169 
L 4250 4666 
L 5778 4666 
L 5778 0 
L 4641 0 
L 4641 3413 
L 3566 897 
L 2803 897 
L 1728 3413 
L 1728 0 
L 588 0 
L 588 4666 
z
" transform="scale(0.015625)"/>
      <path id="DejaVuSans-Bold-61" d="M 2106 1575 
Q 1756 1575 1579 1456 
Q 1403 1338 1403 1106 
Q 1403 894 1545 773 
Q 1688 653 1941 653 
Q 2256 653 2472 879 
Q 2688 1106 2688 1447 
L 2688 1575 
L 2106 1575 
z
M 3816 1997 
L 3816 0 
L 2688 0 
L 2688 519 
Q 2463 200 2181 54 
Q 1900 -91 1497 -91 
Q 953 -91 614 226 
Q 275 544 275 1050 
Q 275 1666 698 1953 
Q 1122 2241 2028 2241 
L 2688 2241 
L 2688 2328 
Q 2688 2594 2478 2717 
Q 2269 2841 1825 2841 
Q 1466 2841 1156 2769 
Q 847 2697 581 2553 
L 581 3406 
Q 941 3494 1303 3539 
Q 1666 3584 2028 3584 
Q 2975 3584 3395 3211 
Q 3816 2838 3816 1997 
z
" transform="scale(0.015625)"/>
      <path id="DejaVuSans-Bold-72" d="M 3138 2547 
Q 2991 2616 2845 2648 
Q 2700 2681 2553 2681 
Q 2122 2681 1889 2404 
Q 1656 2128 1656 1613 
L 1656 0 
L 538 0 
L 538 3500 
L 1656 3500 
L 1656 2925 
Q 1872 3269 2151 3426 
Q 2431 3584 2822 3584 
Q 2878 3584 2943 3579 
Q 3009 3575 3134 3559 
L 3138 2547 
z
" transform="scale(0.015625)"/>
      <path id="DejaVuSans-Bold-6b" d="M 538 4863 
L 1656 4863 
L 1656 2216 
L 2944 3500 
L 4244 3500 
L 2534 1894 
L 4378 0 
L 3022 0 
L 1656 1459 
L 1656 0 
L 538 0 
L 538 4863 
z
" transform="scale(0.015625)"/>
      <path id="DejaVuSans-Bold-65" d="M 4031 1759 
L 4031 1441 
L 1416 1441 
Q 1456 1047 1700 850 
Q 1944 653 2381 653 
Q 2734 653 3104 758 
Q 3475 863 3866 1075 
L 3866 213 
Q 3469 63 3072 -14 
Q 2675 -91 2278 -91 
Q 1328 -91 801 392 
Q 275 875 275 1747 
Q 275 2603 792 3093 
Q 1309 3584 2216 3584 
Q 3041 3584 3536 3087 
Q 4031 2591 4031 1759 
z
M 2881 2131 
Q 2881 2450 2695 2645 
Q 2509 2841 2209 2841 
Q 1884 2841 1681 2658 
Q 1478 2475 1428 2131 
L 2881 2131 
z
" transform="scale(0.015625)"/>
      <path id="DejaVuSans-Bold-74" d="M 1759 4494 
L 1759 3500 
L 2913 3500 
L 2913 2700 
L 1759 2700 
L 1759 1216 
Q 1759 972 1856 886 
Q 1953 800 2241 800 
L 2816 800 
L 2816 0 
L 1856 0 
Q 1194 0 917 276 
Q 641 553 641 1216 
L 641 2700 
L 84 2700 
L 84 3500 
L 641 3500 
L 641 4494 
L 1759 4494 
z
" transform="scale(0.015625)"/>
      <path id="DejaVuSans-Bold-20" transform="scale(0.015625)"/>
      <path id="DejaVuSans-Bold-46" d="M 588 4666 
L 3834 4666 
L 3834 3756 
L 1791 3756 
L 1791 2888 
L 3713 2888 
L 3713 1978 
L 1791 1978 
L 1791 0 
L 588 0 
L 588 4666 
z
" transform="scale(0.015625)"/>
      <path id="DejaVuSans-Bold-69" d="M 538 3500 
L 1656 3500 
L 1656 0 
L 538 0 
L 538 3500 
z
M 538 4863 
L 1656 4863 
L 1656 3950 
L 538 3950 
L 538 4863 
z
" transform="scale(0.015625)"/>
      <path id="DejaVuSans-Bold-6c" d="M 538 4863 
L 1656 4863 
L 1656 0 
L 538 0 
L 538 4863 
z
" transform="scale(0.015625)"/>
     </defs>
     <use xlink:href="#DejaVuSans-Bold-4d"/>
     <use xlink:href="#DejaVuSans-Bold-61" transform="translate(99.511719 0)"/>
     <use xlink:href="#DejaVuSans-Bold-72" transform="translate(166.992188 0)"/>
     <use xlink:href="#DejaVuSans-Bold-6b" transform="translate(216.308594 0)"/>
     <use xlink:href="#DejaVuSans-Bold-65" transform="translate(280.1875 0)"/>
     <use xlink:href="#DejaVuSans-Bold-74" transform="translate(348.009766 0)"/>
     <use xlink:href="#DejaVuSans-Bold-20" transform="translate(395.8125 0)"/>
     <use xlink:href="#DejaVuSans-Bold-46" transform="translate(430.626953 0)"/>
     <use xlink:href="#DejaVuSans-Bold-61" transform="translate(493.0625 0)"/>
     <use xlink:href="#DejaVuSans-Bold-69" transform="translate(560.542969 0)"/>
     <use xlink:href="#DejaVuSans-Bold-6c" transform="translate(594.820312 0)"/>
    </g>
    <!-- 2048 -->
    <g style="fill: #ff0000" transform="translate(398.775033 217.355853) scale(0.1 -0.1)">
     <defs>
      <path id="DejaVuSans-Bold-32" d="M 1844 884 
L 3897 884 
L 3897 0 
L 506 0 
L 506 884 
L 2209 2388 
Q 2438 2594 2547 2791 
Q 2656 2988 2656 3200 
Q 2656 3528 2436 3728 
Q 2216 3928 1850 3928 
Q 1569 3928 1234 3808 
Q 900 3688 519 3450 
L 519 4475 
Q 925 4609 1322 4679 
Q 1719 4750 2100 4750 
Q 2938 4750 3402 4381 
Q 3866 4013 3866 3353 
Q 3866 2972 3669 2642 
Q 3472 2313 2841 1759 
L 1844 884 
z
" transform="scale(0.015625)"/>
      <path id="DejaVuSans-Bold-30" d="M 2944 2338 
Q 2944 3213 2780 3570 
Q 2616 3928 2228 3928 
Q 1841 3928 1675 3570 
Q 1509 3213 1509 2338 
Q 1509 1453 1675 1090 
Q 1841 728 2228 728 
Q 2613 728 2778 1090 
Q 2944 1453 2944 2338 
z
M 4147 2328 
Q 4147 1169 3647 539 
Q 3147 -91 2228 -91 
Q 1306 -91 806 539 
Q 306 1169 306 2328 
Q 306 3491 806 4120 
Q 1306 4750 2228 4750 
Q 3147 4750 3647 4120 
Q 4147 3491 4147 2328 
z
" transform="scale(0.015625)"/>
      <path id="DejaVuSans-Bold-34" d="M 2356 3675 
L 1038 1722 
L 2356 1722 
L 2356 3675 
z
M 2156 4666 
L 3494 4666 
L 3494 1722 
L 4159 1722 
L 4159 850 
L 3494 850 
L 3494 0 
L 2356 0 
L 2356 850 
L 288 850 
L 288 1881 
L 2156 4666 
z
" transform="scale(0.015625)"/>
      <path id="DejaVuSans-Bold-38" d="M 2228 2088 
Q 1891 2088 1709 1903 
Q 1528 1719 1528 1375 
Q 1528 1031 1709 848 
Q 1891 666 2228 666 
Q 2563 666 2741 848 
Q 2919 1031 2919 1375 
Q 2919 1722 2741 1905 
Q 2563 2088 2228 2088 
z
M 1350 2484 
Q 925 2613 709 2878 
Q 494 3144 494 3541 
Q 494 4131 934 4440 
Q 1375 4750 2228 4750 
Q 3075 4750 3515 4442 
Q 3956 4134 3956 3541 
Q 3956 3144 3739 2878 
Q 3522 2613 3097 2484 
Q 3572 2353 3814 2058 
Q 4056 1763 4056 1313 
Q 4056 619 3595 264 
Q 3134 -91 2228 -91 
Q 1319 -91 855 264 
Q 391 619 391 1313 
Q 391 1763 633 2058 
Q 875 2353 1350 2484 
z
M 1631 3419 
Q 1631 3141 1786 2991 
Q 1941 2841 2228 2841 
Q 2509 2841 2662 2991 
Q 2816 3141 2816 3419 
Q 2816 3697 2662 3845 
Q 2509 3994 2228 3994 
Q 1941 3994 1786 3844 
Q 1631 3694 1631 3419 
z
" transform="scale(0.015625)"/>
     </defs>
     <use xlink:href="#DejaVuSans-Bold-32"/>
     <use xlink:href="#DejaVuSans-Bold-30" transform="translate(69.580078 0)"/>
     <use xlink:href="#DejaVuSans-Bold-34" transform="translate(139.160156 0)"/>
     <use xlink:href="#DejaVuSans-Bold-38" transform="translate(208.740234 0)"/>
    </g>
   </g>
   <g id="patch_10">
    <path d="M 566.608859 186.212475 
Q 564.275374 184.905286 561.941889 183.598096 
L 559.986977 187.087841 
Q 556.218985 181.538413 552.450993 175.988984 
Q 559.151352 176.303795 565.851712 176.618606 
L 563.8968 180.108351 
Q 566.230285 181.415541 568.563771 182.72273 
L 566.608859 186.212475 
z
" style="fill: #008000; stroke: #eeeeee; stroke-width: 0.5; stroke-linecap: round"/>
   </g>
   <g id="text_19">
    <g id="patch_11">
     <path d="M 571.454575 210.510491 
L 639.646762 210.510491 
Q 642.646762 210.510491 642.646762 207.510491 
L 642.646762 186.634553 
Q 642.646762 183.634553 639.646762 183.634553 
L 571.454575 183.634553 
Q 568.454575 183.634553 568.454575 186.634553 
L 568.454575 207.510491 
Q 568.454575 210.510491 571.454575 210.510491 
z
" style="fill: #ffffff; opacity: 0.8; stroke: #008000; stroke-width: 0.5; stroke-linejoin: miter"/>
    </g>
    <!-- Extended to -->
    <g style="fill: #008000" transform="translate(571.454575 194.232991) scale(0.1 -0.1)">
     <defs>
      <path id="DejaVuSans-Bold-45" d="M 588 4666 
L 3834 4666 
L 3834 3756 
L 1791 3756 
L 1791 2888 
L 3713 2888 
L 3713 1978 
L 1791 1978 
L 1791 909 
L 3903 909 
L 3903 0 
L 588 0 
L 588 4666 
z
" transform="scale(0.015625)"/>
      <path id="DejaVuSans-Bold-78" d="M 1422 1791 
L 159 3500 
L 1344 3500 
L 2059 2463 
L 2784 3500 
L 3969 3500 
L 2706 1797 
L 4031 0 
L 2847 0 
L 2059 1106 
L 1281 0 
L 97 0 
L 1422 1791 
z
" transform="scale(0.015625)"/>
      <path id="DejaVuSans-Bold-6e" d="M 4056 2131 
L 4056 0 
L 2931 0 
L 2931 347 
L 2931 1631 
Q 2931 2084 2911 2256 
Q 2891 2428 2841 2509 
Q 2775 2619 2662 2680 
Q 2550 2741 2406 2741 
Q 2056 2741 1856 2470 
Q 1656 2200 1656 1722 
L 1656 0 
L 538 0 
L 538 3500 
L 1656 3500 
L 1656 2988 
Q 1909 3294 2193 3439 
Q 2478 3584 2822 3584 
Q 3428 3584 3742 3212 
Q 4056 2841 4056 2131 
z
" transform="scale(0.015625)"/>
      <path id="DejaVuSans-Bold-64" d="M 2919 2988 
L 2919 4863 
L 4044 4863 
L 4044 0 
L 2919 0 
L 2919 506 
Q 2688 197 2409 53 
Q 2131 -91 1766 -91 
Q 1119 -91 703 423 
Q 288 938 288 1747 
Q 288 2556 703 3070 
Q 1119 3584 1766 3584 
Q 2128 3584 2408 3439 
Q 2688 3294 2919 2988 
z
M 2181 722 
Q 2541 722 2730 984 
Q 2919 1247 2919 1747 
Q 2919 2247 2730 2509 
Q 2541 2772 2181 2772 
Q 1825 2772 1636 2509 
Q 1447 2247 1447 1747 
Q 1447 1247 1636 984 
Q 1825 722 2181 722 
z
" transform="scale(0.015625)"/>
      <path id="DejaVuSans-Bold-6f" d="M 2203 2784 
Q 1831 2784 1636 2517 
Q 1441 2250 1441 1747 
Q 1441 1244 1636 976 
Q 1831 709 2203 709 
Q 2569 709 2762 976 
Q 2956 1244 2956 1747 
Q 2956 2250 2762 2517 
Q 2569 2784 2203 2784 
z
M 2203 3584 
Q 3106 3584 3614 3096 
Q 4122 2609 4122 1747 
Q 4122 884 3614 396 
Q 3106 -91 2203 -91 
Q 1297 -91 786 396 
Q 275 884 275 1747 
Q 275 2609 786 3096 
Q 1297 3584 2203 3584 
z
" transform="scale(0.015625)"/>
     </defs>
     <use xlink:href="#DejaVuSans-Bold-45"/>
     <use xlink:href="#DejaVuSans-Bold-78" transform="translate(68.310547 0)"/>
     <use xlink:href="#DejaVuSans-Bold-74" transform="translate(132.8125 0)"/>
     <use xlink:href="#DejaVuSans-Bold-65" transform="translate(180.615234 0)"/>
     <use xlink:href="#DejaVuSans-Bold-6e" transform="translate(248.4375 0)"/>
     <use xlink:href="#DejaVuSans-Bold-64" transform="translate(319.628906 0)"/>
     <use xlink:href="#DejaVuSans-Bold-65" transform="translate(391.210938 0)"/>
     <use xlink:href="#DejaVuSans-Bold-64" transform="translate(459.033203 0)"/>
     <use xlink:href="#DejaVuSans-Bold-20" transform="translate(530.615234 0)"/>
     <use xlink:href="#DejaVuSans-Bold-74" transform="translate(565.429688 0)"/>
     <use xlink:href="#DejaVuSans-Bold-6f" transform="translate(613.232422 0)"/>
    </g>
    <!-- 2058 -->
    <g style="fill: #008000" transform="translate(571.454575 205.430803) scale(0.1 -0.1)">
     <defs>
      <path id="DejaVuSans-Bold-35" d="M 678 4666 
L 3669 4666 
L 3669 3781 
L 1638 3781 
L 1638 3059 
Q 1775 3097 1914 3117 
Q 2053 3138 2203 3138 
Q 3056 3138 3531 2711 
Q 4006 2284 4006 1522 
Q 4006 766 3489 337 
Q 2972 -91 2053 -91 
Q 1656 -91 1267 -14 
Q 878 63 494 219 
L 494 1166 
Q 875 947 1217 837 
Q 1559 728 1863 728 
Q 2300 728 2551 942 
Q 2803 1156 2803 1522 
Q 2803 1891 2551 2103 
Q 2300 2316 1863 2316 
Q 1603 2316 1309 2248 
Q 1016 2181 678 2041 
L 678 4666 
z
" transform="scale(0.015625)"/>
     </defs>
     <use xlink:href="#DejaVuSans-Bold-32"/>
     <use xlink:href="#DejaVuSans-Bold-30" transform="translate(69.580078 0)"/>
     <use xlink:href="#DejaVuSans-Bold-35" transform="translate(139.160156 0)"/>
     <use xlink:href="#DejaVuSans-Bold-38" transform="translate(208.740234 0)"/>
    </g>
   </g>
   <g id="text_20">
    <!-- Texas_USA: Impact of Mitigation -->
    <g transform="translate(200.072504 27.711429) scale(0.144 -0.144)">
     <defs>
      <path id="DejaVuSans-54" d="M -19 4666 
L 3928 4666 
L 3928 4134 
L 2272 4134 
L 2272 0 
L 1638 0 
L 1638 4134 
L -19 4134 
L -19 4666 
z
" transform="scale(0.015625)"/>
      <path id="DejaVuSans-78" d="M 3513 3500 
L 2247 1797 
L 3578 0 
L 2900 0 
L 1881 1375 
L 863 0 
L 184 0 
L 1544 1831 
L 300 3500 
L 978 3500 
L 1906 2253 
L 2834 3500 
L 3513 3500 
z
" transform="scale(0.015625)"/>
      <path id="DejaVuSans-73" d="M 2834 3397 
L 2834 2853 
Q 2591 2978 2328 3040 
Q 2066 3103 1784 3103 
Q 1356 3103 1142 2972 
Q 928 2841 928 2578 
Q 928 2378 1081 2264 
Q 1234 2150 1697 2047 
L 1894 2003 
Q 2506 1872 2764 1633 
Q 3022 1394 3022 966 
Q 3022 478 2636 193 
Q 2250 -91 1575 -91 
Q 1294 -91 989 -36 
Q 684 19 347 128 
L 347 722 
Q 666 556 975 473 
Q 1284 391 1588 391 
Q 1994 391 2212 530 
Q 2431 669 2431 922 
Q 2431 1156 2273 1281 
Q 2116 1406 1581 1522 
L 1381 1569 
Q 847 1681 609 1914 
Q 372 2147 372 2553 
Q 372 3047 722 3315 
Q 1072 3584 1716 3584 
Q 2034 3584 2315 3537 
Q 2597 3491 2834 3397 
z
" transform="scale(0.015625)"/>
      <path id="DejaVuSans-5f" d="M 3263 -1063 
L 3263 -1509 
L -63 -1509 
L -63 -1063 
L 3263 -1063 
z
" transform="scale(0.015625)"/>
      <path id="DejaVuSans-55" d="M 556 4666 
L 1191 4666 
L 1191 1831 
Q 1191 1081 1462 751 
Q 1734 422 2344 422 
Q 2950 422 3222 751 
Q 3494 1081 3494 1831 
L 3494 4666 
L 4128 4666 
L 4128 1753 
Q 4128 841 3676 375 
Q 3225 -91 2344 -91 
Q 1459 -91 1007 375 
Q 556 841 556 1753 
L 556 4666 
z
" transform="scale(0.015625)"/>
      <path id="DejaVuSans-41" d="M 2188 4044 
L 1331 1722 
L 3047 1722 
L 2188 4044 
z
M 1831 4666 
L 2547 4666 
L 4325 0 
L 3669 0 
L 3244 1197 
L 1141 1197 
L 716 0 
L 50 0 
L 1831 4666 
z
" transform="scale(0.015625)"/>
      <path id="DejaVuSans-3a" d="M 750 794 
L 1409 794 
L 1409 0 
L 750 0 
L 750 794 
z
M 750 3309 
L 1409 3309 
L 1409 2516 
L 750 2516 
L 750 3309 
z
" transform="scale(0.015625)"/>
      <path id="DejaVuSans-49" d="M 628 4666 
L 1259 4666 
L 1259 0 
L 628 0 
L 628 4666 
z
" transform="scale(0.015625)"/>
      <path id="DejaVuSans-70" d="M 1159 525 
L 1159 -1331 
L 581 -1331 
L 581 3500 
L 1159 3500 
L 1159 2969 
Q 1341 3281 1617 3432 
Q 1894 3584 2278 3584 
Q 2916 3584 3314 3078 
Q 3713 2572 3713 1747 
Q 3713 922 3314 415 
Q 2916 -91 2278 -91 
Q 1894 -91 1617 61 
Q 1341 213 1159 525 
z
M 3116 1747 
Q 3116 2381 2855 2742 
Q 2594 3103 2138 3103 
Q 1681 3103 1420 2742 
Q 1159 2381 1159 1747 
Q 1159 1113 1420 752 
Q 1681 391 2138 391 
Q 2594 391 2855 752 
Q 3116 1113 3116 1747 
z
" transform="scale(0.015625)"/>
      <path id="DejaVuSans-74" d="M 1172 4494 
L 1172 3500 
L 2356 3500 
L 2356 3053 
L 1172 3053 
L 1172 1153 
Q 1172 725 1289 603 
Q 1406 481 1766 481 
L 2356 481 
L 2356 0 
L 1766 0 
Q 1100 0 847 248 
Q 594 497 594 1153 
L 594 3053 
L 172 3053 
L 172 3500 
L 594 3500 
L 594 4494 
L 1172 4494 
z
" transform="scale(0.015625)"/>
      <path id="DejaVuSans-66" d="M 2375 4863 
L 2375 4384 
L 1825 4384 
Q 1516 4384 1395 4259 
Q 1275 4134 1275 3809 
L 1275 3500 
L 2222 3500 
L 2222 3053 
L 1275 3053 
L 1275 0 
L 697 0 
L 697 3053 
L 147 3053 
L 147 3500 
L 697 3500 
L 697 3744 
Q 697 4328 969 4595 
Q 1241 4863 1831 4863 
L 2375 4863 
z
" transform="scale(0.015625)"/>
      <path id="DejaVuSans-4d" d="M 628 4666 
L 1569 4666 
L 2759 1491 
L 3956 4666 
L 4897 4666 
L 4897 0 
L 4281 0 
L 4281 4097 
L 3078 897 
L 2444 897 
L 1241 4097 
L 1241 0 
L 628 0 
L 628 4666 
z
" transform="scale(0.015625)"/>
      <path id="DejaVuSans-67" d="M 2906 1791 
Q 2906 2416 2648 2759 
Q 2391 3103 1925 3103 
Q 1463 3103 1205 2759 
Q 947 2416 947 1791 
Q 947 1169 1205 825 
Q 1463 481 1925 481 
Q 2391 481 2648 825 
Q 2906 1169 2906 1791 
z
M 3481 434 
Q 3481 -459 3084 -895 
Q 2688 -1331 1869 -1331 
Q 1566 -1331 1297 -1286 
Q 1028 -1241 775 -1147 
L 775 -588 
Q 1028 -725 1275 -790 
Q 1522 -856 1778 -856 
Q 2344 -856 2625 -561 
Q 2906 -266 2906 331 
L 2906 616 
Q 2728 306 2450 153 
Q 2172 0 1784 0 
Q 1141 0 747 490 
Q 353 981 353 1791 
Q 353 2603 747 3093 
Q 1141 3584 1784 3584 
Q 2172 3584 2450 3431 
Q 2728 3278 2906 2969 
L 2906 3500 
L 3481 3500 
L 3481 434 
z
" transform="scale(0.015625)"/>
     </defs>
     <use xlink:href="#DejaVuSans-54"/>
     <use xlink:href="#DejaVuSans-65" transform="translate(44.083984 0)"/>
     <use xlink:href="#DejaVuSans-78" transform="translate(103.857422 0)"/>
     <use xlink:href="#DejaVuSans-61" transform="translate(163.037109 0)"/>
     <use xlink:href="#DejaVuSans-73" transform="translate(224.316406 0)"/>
     <use xlink:href="#DejaVuSans-5f" transform="translate(276.416016 0)"/>
     <use xlink:href="#DejaVuSans-55" transform="translate(326.416016 0)"/>
     <use xlink:href="#DejaVuSans-53" transform="translate(399.609375 0)"/>
     <use xlink:href="#DejaVuSans-41" transform="translate(464.960938 0)"/>
     <use xlink:href="#DejaVuSans-3a" transform="translate(531.619141 0)"/>
     <use xlink:href="#DejaVuSans-20" transform="translate(565.310547 0)"/>
     <use xlink:href="#DejaVuSans-49" transform="translate(597.097656 0)"/>
     <use xlink:href="#DejaVuSans-6d" transform="translate(626.589844 0)"/>
     <use xlink:href="#DejaVuSans-70" transform="translate(724.001953 0)"/>
     <use xlink:href="#DejaVuSans-61" transform="translate(787.478516 0)"/>
     <use xlink:href="#DejaVuSans-63" transform="translate(848.757812 0)"/>
     <use xlink:href="#DejaVuSans-74" transform="translate(903.738281 0)"/>
     <use xlink:href="#DejaVuSans-20" transform="translate(942.947266 0)"/>
     <use xlink:href="#DejaVuSans-6f" transform="translate(974.734375 0)"/>
     <use xlink:href="#DejaVuSans-66" transform="translate(1035.916016 0)"/>
     <use xlink:href="#DejaVuSans-20" transform="translate(1071.121094 0)"/>
     <use xlink:href="#DejaVuSans-4d" transform="translate(1102.908203 0)"/>
     <use xlink:href="#DejaVuSans-69" transform="translate(1189.1875 0)"/>
     <use xlink:href="#DejaVuSans-74" transform="translate(1216.970703 0)"/>
     <use xlink:href="#DejaVuSans-69" transform="translate(1256.179688 0)"/>
     <use xlink:href="#DejaVuSans-67" transform="translate(1283.962891 0)"/>
     <use xlink:href="#DejaVuSans-61" transform="translate(1347.439453 0)"/>
     <use xlink:href="#DejaVuSans-74" transform="translate(1408.71875 0)"/>
     <use xlink:href="#DejaVuSans-69" transform="translate(1447.927734 0)"/>
     <use xlink:href="#DejaVuSans-6f" transform="translate(1475.710938 0)"/>
     <use xlink:href="#DejaVuSans-6e" transform="translate(1536.892578 0)"/>
    </g>
   </g>
   <g id="legend_1">
    <g id="patch_12">
     <path d="M 223.489285 558.469429 
L 407.093973 558.469429 
Q 409.093973 558.469429 409.093973 556.469429 
L 409.093973 498.756929 
Q 409.093973 496.756929 407.093973 496.756929 
L 223.489285 496.756929 
Q 221.489285 496.756929 221.489285 498.756929 
L 221.489285 556.469429 
Q 221.489285 558.469429 223.489285 558.469429 
z
" style="fill: #e5e5e5; opacity: 0.8; stroke: #cccccc; stroke-width: 0.5; stroke-linejoin: miter"/>
    </g>
    <g id="line2d_35">
     <path d="M 225.489285 504.855366 
L 235.489285 504.855366 
L 245.489285 504.855366 
" style="fill: none; stroke: #ff0000; stroke-opacity: 0.6; stroke-width: 2; stroke-linecap: square"/>
    </g>
    <g id="text_21">
     <!-- Original Risk Cost -->
     <g transform="translate(253.489285 508.355366) scale(0.1 -0.1)">
      <defs>
       <path id="DejaVuSans-4f" d="M 2522 4238 
Q 1834 4238 1429 3725 
Q 1025 3213 1025 2328 
Q 1025 1447 1429 934 
Q 1834 422 2522 422 
Q 3209 422 3611 934 
Q 4013 1447 4013 2328 
Q 4013 3213 3611 3725 
Q 3209 4238 2522 4238 
z
M 2522 4750 
Q 3503 4750 4090 4092 
Q 4678 3434 4678 2328 
Q 4678 1225 4090 567 
Q 3503 -91 2522 -91 
Q 1538 -91 948 565 
Q 359 1222 359 2328 
Q 359 3434 948 4092 
Q 1538 4750 2522 4750 
z
" transform="scale(0.015625)"/>
       <path id="DejaVuSans-52" d="M 2841 2188 
Q 3044 2119 3236 1894 
Q 3428 1669 3622 1275 
L 4263 0 
L 3584 0 
L 2988 1197 
Q 2756 1666 2539 1819 
Q 2322 1972 1947 1972 
L 1259 1972 
L 1259 0 
L 628 0 
L 628 4666 
L 2053 4666 
Q 2853 4666 3247 4331 
Q 3641 3997 3641 3322 
Q 3641 2881 3436 2590 
Q 3231 2300 2841 2188 
z
M 1259 4147 
L 1259 2491 
L 2053 2491 
Q 2509 2491 2742 2702 
Q 2975 2913 2975 3322 
Q 2975 3731 2742 3939 
Q 2509 4147 2053 4147 
L 1259 4147 
z
" transform="scale(0.015625)"/>
       <path id="DejaVuSans-6b" d="M 581 4863 
L 1159 4863 
L 1159 1991 
L 2875 3500 
L 3609 3500 
L 1753 1863 
L 3688 0 
L 2938 0 
L 1159 1709 
L 1159 0 
L 581 0 
L 581 4863 
z
" transform="scale(0.015625)"/>
       <path id="DejaVuSans-43" d="M 4122 4306 
L 4122 3641 
Q 3803 3938 3442 4084 
Q 3081 4231 2675 4231 
Q 1875 4231 1450 3742 
Q 1025 3253 1025 2328 
Q 1025 1406 1450 917 
Q 1875 428 2675 428 
Q 3081 428 3442 575 
Q 3803 722 4122 1019 
L 4122 359 
Q 3791 134 3420 21 
Q 3050 -91 2638 -91 
Q 1578 -91 968 557 
Q 359 1206 359 2328 
Q 359 3453 968 4101 
Q 1578 4750 2638 4750 
Q 3056 4750 3426 4639 
Q 3797 4528 4122 4306 
z
" transform="scale(0.015625)"/>
      </defs>
      <use xlink:href="#DejaVuSans-4f"/>
      <use xlink:href="#DejaVuSans-72" transform="translate(78.710938 0)"/>
      <use xlink:href="#DejaVuSans-69" transform="translate(119.824219 0)"/>
      <use xlink:href="#DejaVuSans-67" transform="translate(147.607422 0)"/>
      <use xlink:href="#DejaVuSans-69" transform="translate(211.083984 0)"/>
      <use xlink:href="#DejaVuSans-6e" transform="translate(238.867188 0)"/>
      <use xlink:href="#DejaVuSans-61" transform="translate(302.246094 0)"/>
      <use xlink:href="#DejaVuSans-6c" transform="translate(363.525391 0)"/>
      <use xlink:href="#DejaVuSans-20" transform="translate(391.308594 0)"/>
      <use xlink:href="#DejaVuSans-52" transform="translate(423.095703 0)"/>
      <use xlink:href="#DejaVuSans-69" transform="translate(492.578125 0)"/>
      <use xlink:href="#DejaVuSans-73" transform="translate(520.361328 0)"/>
      <use xlink:href="#DejaVuSans-6b" transform="translate(572.460938 0)"/>
      <use xlink:href="#DejaVuSans-20" transform="translate(630.371094 0)"/>
      <use xlink:href="#DejaVuSans-43" transform="translate(662.158203 0)"/>
      <use xlink:href="#DejaVuSans-6f" transform="translate(731.982422 0)"/>
      <use xlink:href="#DejaVuSans-73" transform="translate(793.164062 0)"/>
      <use xlink:href="#DejaVuSans-74" transform="translate(845.263672 0)"/>
     </g>
    </g>
    <g id="line2d_36">
     <path d="M 225.489285 519.533491 
L 235.489285 519.533491 
L 245.489285 519.533491 
" style="fill: none; stroke: #008000; stroke-width: 2.5; stroke-linecap: square"/>
    </g>
    <g id="text_22">
     <!-- Mitigated Cost (Actions Taken) -->
     <g transform="translate(253.489285 523.033491) scale(0.1 -0.1)">
      <use xlink:href="#DejaVuSans-4d"/>
      <use xlink:href="#DejaVuSans-69" transform="translate(86.279297 0)"/>
      <use xlink:href="#DejaVuSans-74" transform="translate(114.0625 0)"/>
      <use xlink:href="#DejaVuSans-69" transform="translate(153.271484 0)"/>
      <use xlink:href="#DejaVuSans-67" transform="translate(181.054688 0)"/>
      <use xlink:href="#DejaVuSans-61" transform="translate(244.53125 0)"/>
      <use xlink:href="#DejaVuSans-74" transform="translate(305.810547 0)"/>
      <use xlink:href="#DejaVuSans-65" transform="translate(345.019531 0)"/>
      <use xlink:href="#DejaVuSans-64" transform="translate(406.542969 0)"/>
      <use xlink:href="#DejaVuSans-20" transform="translate(470.019531 0)"/>
      <use xlink:href="#DejaVuSans-43" transform="translate(501.806641 0)"/>
      <use xlink:href="#DejaVuSans-6f" transform="translate(571.630859 0)"/>
      <use xlink:href="#DejaVuSans-73" transform="translate(632.8125 0)"/>
      <use xlink:href="#DejaVuSans-74" transform="translate(684.912109 0)"/>
      <use xlink:href="#DejaVuSans-20" transform="translate(724.121094 0)"/>
      <use xlink:href="#DejaVuSans-28" transform="translate(755.908203 0)"/>
      <use xlink:href="#DejaVuSans-41" transform="translate(794.921875 0)"/>
      <use xlink:href="#DejaVuSans-63" transform="translate(861.580078 0)"/>
      <use xlink:href="#DejaVuSans-74" transform="translate(916.560547 0)"/>
      <use xlink:href="#DejaVuSans-69" transform="translate(955.769531 0)"/>
      <use xlink:href="#DejaVuSans-6f" transform="translate(983.552734 0)"/>
      <use xlink:href="#DejaVuSans-6e" transform="translate(1044.734375 0)"/>
      <use xlink:href="#DejaVuSans-73" transform="translate(1108.113281 0)"/>
      <use xlink:href="#DejaVuSans-20" transform="translate(1160.212891 0)"/>
      <use xlink:href="#DejaVuSans-54" transform="translate(1192 0)"/>
      <use xlink:href="#DejaVuSans-61" transform="translate(1236.583984 0)"/>
      <use xlink:href="#DejaVuSans-6b" transform="translate(1297.863281 0)"/>
      <use xlink:href="#DejaVuSans-65" transform="translate(1352.148438 0)"/>
      <use xlink:href="#DejaVuSans-6e" transform="translate(1413.671875 0)"/>
      <use xlink:href="#DejaVuSans-29" transform="translate(1477.050781 0)"/>
     </g>
    </g>
    <g id="line2d_37">
     <path d="M 225.489285 534.211616 
L 235.489285 534.211616 
L 245.489285 534.211616 
" style="fill: none; stroke-dasharray: 7.4,3.2; stroke-dashoffset: 0; stroke: #0000ff; stroke-width: 2"/>
    </g>
    <g id="text_23">
     <!-- Affordability Limit -->
     <g transform="translate(253.489285 537.711616) scale(0.1 -0.1)">
      <defs>
       <path id="DejaVuSans-62" d="M 3116 1747 
Q 3116 2381 2855 2742 
Q 2594 3103 2138 3103 
Q 1681 3103 1420 2742 
Q 1159 2381 1159 1747 
Q 1159 1113 1420 752 
Q 1681 391 2138 391 
Q 2594 391 2855 752 
Q 3116 1113 3116 1747 
z
M 1159 2969 
Q 1341 3281 1617 3432 
Q 1894 3584 2278 3584 
Q 2916 3584 3314 3078 
Q 3713 2572 3713 1747 
Q 3713 922 3314 415 
Q 2916 -91 2278 -91 
Q 1894 -91 1617 61 
Q 1341 213 1159 525 
L 1159 0 
L 581 0 
L 581 4863 
L 1159 4863 
L 1159 2969 
z
" transform="scale(0.015625)"/>
       <path id="DejaVuSans-79" d="M 2059 -325 
Q 1816 -950 1584 -1140 
Q 1353 -1331 966 -1331 
L 506 -1331 
L 506 -850 
L 844 -850 
Q 1081 -850 1212 -737 
Q 1344 -625 1503 -206 
L 1606 56 
L 191 3500 
L 800 3500 
L 1894 763 
L 2988 3500 
L 3597 3500 
L 2059 -325 
z
" transform="scale(0.015625)"/>
       <path id="DejaVuSans-4c" d="M 628 4666 
L 1259 4666 
L 1259 531 
L 3531 531 
L 3531 0 
L 628 0 
L 628 4666 
z
" transform="scale(0.015625)"/>
      </defs>
      <use xlink:href="#DejaVuSans-41"/>
      <use xlink:href="#DejaVuSans-66" transform="translate(64.783203 0)"/>
      <use xlink:href="#DejaVuSans-66" transform="translate(99.988281 0)"/>
      <use xlink:href="#DejaVuSans-6f" transform="translate(135.193359 0)"/>
      <use xlink:href="#DejaVuSans-72" transform="translate(196.375 0)"/>
      <use xlink:href="#DejaVuSans-64" transform="translate(235.738281 0)"/>
      <use xlink:href="#DejaVuSans-61" transform="translate(299.214844 0)"/>
      <use xlink:href="#DejaVuSans-62" transform="translate(360.494141 0)"/>
      <use xlink:href="#DejaVuSans-69" transform="translate(423.970703 0)"/>
      <use xlink:href="#DejaVuSans-6c" transform="translate(451.753906 0)"/>
      <use xlink:href="#DejaVuSans-69" transform="translate(479.537109 0)"/>
      <use xlink:href="#DejaVuSans-74" transform="translate(507.320312 0)"/>
      <use xlink:href="#DejaVuSans-79" transform="translate(546.529297 0)"/>
      <use xlink:href="#DejaVuSans-20" transform="translate(605.708984 0)"/>
      <use xlink:href="#DejaVuSans-4c" transform="translate(637.496094 0)"/>
      <use xlink:href="#DejaVuSans-69" transform="translate(693.208984 0)"/>
      <use xlink:href="#DejaVuSans-6d" transform="translate(720.992188 0)"/>
      <use xlink:href="#DejaVuSans-69" transform="translate(818.404297 0)"/>
      <use xlink:href="#DejaVuSans-74" transform="translate(846.1875 0)"/>
     </g>
    </g>
    <g id="patch_13">
     <path d="M 225.489285 552.389741 
L 245.489285 552.389741 
L 245.489285 545.389741 
L 225.489285 545.389741 
z
" style="fill: #008000; opacity: 0.1; stroke: #008000; stroke-width: 0.5; stroke-linejoin: miter"/>
    </g>
    <g id="text_24">
     <!-- Time Gained -->
     <g transform="translate(253.489285 552.389741) scale(0.1 -0.1)">
      <defs>
       <path id="DejaVuSans-47" d="M 3809 666 
L 3809 1919 
L 2778 1919 
L 2778 2438 
L 4434 2438 
L 4434 434 
Q 4069 175 3628 42 
Q 3188 -91 2688 -91 
Q 1594 -91 976 548 
Q 359 1188 359 2328 
Q 359 3472 976 4111 
Q 1594 4750 2688 4750 
Q 3144 4750 3555 4637 
Q 3966 4525 4313 4306 
L 4313 3634 
Q 3963 3931 3569 4081 
Q 3175 4231 2741 4231 
Q 1884 4231 1454 3753 
Q 1025 3275 1025 2328 
Q 1025 1384 1454 906 
Q 1884 428 2741 428 
Q 3075 428 3337 486 
Q 3600 544 3809 666 
z
" transform="scale(0.015625)"/>
      </defs>
      <use xlink:href="#DejaVuSans-54"/>
      <use xlink:href="#DejaVuSans-69" transform="translate(57.958984 0)"/>
      <use xlink:href="#DejaVuSans-6d" transform="translate(85.742188 0)"/>
      <use xlink:href="#DejaVuSans-65" transform="translate(183.154297 0)"/>
      <use xlink:href="#DejaVuSans-20" transform="translate(244.677734 0)"/>
      <use xlink:href="#DejaVuSans-47" transform="translate(276.464844 0)"/>
      <use xlink:href="#DejaVuSans-61" transform="translate(353.955078 0)"/>
      <use xlink:href="#DejaVuSans-69" transform="translate(415.234375 0)"/>
      <use xlink:href="#DejaVuSans-6e" transform="translate(443.017578 0)"/>
      <use xlink:href="#DejaVuSans-65" transform="translate(506.396484 0)"/>
      <use xlink:href="#DejaVuSans-64" transform="translate(567.919922 0)"/>
     </g>
    </g>
   </g>
  </g>
  <g id="axes_2">
   <g id="patch_14">
    <path d="M 690.48538 563.469429 
L 1203.883087 563.469429 
L 1203.883087 33.711429 
L 690.48538 33.711429 
z
" style="fill: #e5e5e5"/>
   </g>
   <g id="matplotlib.axis_3">
    <g id="xtick_7">
     <g id="line2d_38">
      <path d="M 690.48538 563.469429 
L 690.48538 33.711429 
" clip-path="url(#pb614bdf2b4)" style="fill: none; stroke: #ffffff; stroke-width: 0.8; stroke-linecap: square"/>
     </g>
     <g id="line2d_39">
      <g>
       <use xlink:href="#m074b30fcc6" x="690.48538" y="563.469429" style="fill: #555555; stroke: #555555; stroke-width: 0.8"/>
      </g>
     </g>
     <g id="text_25">
      <!-- 2010 -->
      <g style="fill: #555555" transform="translate(677.76038 578.067866) scale(0.1 -0.1)">
       <use xlink:href="#DejaVuSans-32"/>
       <use xlink:href="#DejaVuSans-30" transform="translate(63.623047 0)"/>
       <use xlink:href="#DejaVuSans-31" transform="translate(127.246094 0)"/>
       <use xlink:href="#DejaVuSans-30" transform="translate(190.869141 0)"/>
      </g>
     </g>
    </g>
    <g id="xtick_8">
     <g id="line2d_40">
      <path d="M 793.164921 563.469429 
L 793.164921 33.711429 
" clip-path="url(#pb614bdf2b4)" style="fill: none; stroke: #ffffff; stroke-width: 0.8; stroke-linecap: square"/>
     </g>
     <g id="line2d_41">
      <g>
       <use xlink:href="#m074b30fcc6" x="793.164921" y="563.469429" style="fill: #555555; stroke: #555555; stroke-width: 0.8"/>
      </g>
     </g>
     <g id="text_26">
      <!-- 2020 -->
      <g style="fill: #555555" transform="translate(780.439921 578.067866) scale(0.1 -0.1)">
       <use xlink:href="#DejaVuSans-32"/>
       <use xlink:href="#DejaVuSans-30" transform="translate(63.623047 0)"/>
       <use xlink:href="#DejaVuSans-32" transform="translate(127.246094 0)"/>
       <use xlink:href="#DejaVuSans-30" transform="translate(190.869141 0)"/>
      </g>
     </g>
    </g>
    <g id="xtick_9">
     <g id="line2d_42">
      <path d="M 895.844463 563.469429 
L 895.844463 33.711429 
" clip-path="url(#pb614bdf2b4)" style="fill: none; stroke: #ffffff; stroke-width: 0.8; stroke-linecap: square"/>
     </g>
     <g id="line2d_43">
      <g>
       <use xlink:href="#m074b30fcc6" x="895.844463" y="563.469429" style="fill: #555555; stroke: #555555; stroke-width: 0.8"/>
      </g>
     </g>
     <g id="text_27">
      <!-- 2030 -->
      <g style="fill: #555555" transform="translate(883.119463 578.067866) scale(0.1 -0.1)">
       <use xlink:href="#DejaVuSans-32"/>
       <use xlink:href="#DejaVuSans-30" transform="translate(63.623047 0)"/>
       <use xlink:href="#DejaVuSans-33" transform="translate(127.246094 0)"/>
       <use xlink:href="#DejaVuSans-30" transform="translate(190.869141 0)"/>
      </g>
     </g>
    </g>
    <g id="xtick_10">
     <g id="line2d_44">
      <path d="M 998.524004 563.469429 
L 998.524004 33.711429 
" clip-path="url(#pb614bdf2b4)" style="fill: none; stroke: #ffffff; stroke-width: 0.8; stroke-linecap: square"/>
     </g>
     <g id="line2d_45">
      <g>
       <use xlink:href="#m074b30fcc6" x="998.524004" y="563.469429" style="fill: #555555; stroke: #555555; stroke-width: 0.8"/>
      </g>
     </g>
     <g id="text_28">
      <!-- 2040 -->
      <g style="fill: #555555" transform="translate(985.799004 578.067866) scale(0.1 -0.1)">
       <use xlink:href="#DejaVuSans-32"/>
       <use xlink:href="#DejaVuSans-30" transform="translate(63.623047 0)"/>
       <use xlink:href="#DejaVuSans-34" transform="translate(127.246094 0)"/>
       <use xlink:href="#DejaVuSans-30" transform="translate(190.869141 0)"/>
      </g>
     </g>
    </g>
    <g id="xtick_11">
     <g id="line2d_46">
      <path d="M 1101.203546 563.469429 
L 1101.203546 33.711429 
" clip-path="url(#pb614bdf2b4)" style="fill: none; stroke: #ffffff; stroke-width: 0.8; stroke-linecap: square"/>
     </g>
     <g id="line2d_47">
      <g>
       <use xlink:href="#m074b30fcc6" x="1101.203546" y="563.469429" style="fill: #555555; stroke: #555555; stroke-width: 0.8"/>
      </g>
     </g>
     <g id="text_29">
      <!-- 2050 -->
      <g style="fill: #555555" transform="translate(1088.478546 578.067866) scale(0.1 -0.1)">
       <use xlink:href="#DejaVuSans-32"/>
       <use xlink:href="#DejaVuSans-30" transform="translate(63.623047 0)"/>
       <use xlink:href="#DejaVuSans-35" transform="translate(127.246094 0)"/>
       <use xlink:href="#DejaVuSans-30" transform="translate(190.869141 0)"/>
      </g>
     </g>
    </g>
    <g id="xtick_12">
     <g id="line2d_48">
      <path d="M 1203.883087 563.469429 
L 1203.883087 33.711429 
" clip-path="url(#pb614bdf2b4)" style="fill: none; stroke: #ffffff; stroke-width: 0.8; stroke-linecap: square"/>
     </g>
     <g id="line2d_49">
      <g>
       <use xlink:href="#m074b30fcc6" x="1203.883087" y="563.469429" style="fill: #555555; stroke: #555555; stroke-width: 0.8"/>
      </g>
     </g>
     <g id="text_30">
      <!-- 2060 -->
      <g style="fill: #555555" transform="translate(1191.158087 578.067866) scale(0.1 -0.1)">
       <use xlink:href="#DejaVuSans-32"/>
       <use xlink:href="#DejaVuSans-30" transform="translate(63.623047 0)"/>
       <use xlink:href="#DejaVuSans-36" transform="translate(127.246094 0)"/>
       <use xlink:href="#DejaVuSans-30" transform="translate(190.869141 0)"/>
      </g>
     </g>
    </g>
    <g id="text_31">
     <!-- Year -->
     <g style="fill: #555555" transform="translate(934.479234 593.265679) scale(0.12 -0.12)">
      <use xlink:href="#DejaVuSans-59"/>
      <use xlink:href="#DejaVuSans-65" transform="translate(47.833984 0)"/>
      <use xlink:href="#DejaVuSans-61" transform="translate(109.357422 0)"/>
      <use xlink:href="#DejaVuSans-72" transform="translate(170.636719 0)"/>
     </g>
    </g>
   </g>
   <g id="matplotlib.axis_4">
    <g id="ytick_9">
     <g id="line2d_50">
      <path d="M 690.48538 541.167642 
L 1203.883087 541.167642 
" clip-path="url(#pb614bdf2b4)" style="fill: none; stroke: #ffffff; stroke-width: 0.8; stroke-linecap: square"/>
     </g>
     <g id="line2d_51">
      <g>
       <use xlink:href="#m675bdc51b2" x="690.48538" y="541.167642" style="fill: #555555; stroke: #555555; stroke-width: 0.8"/>
      </g>
     </g>
     <g id="text_32">
      <!-- 0 -->
      <g style="fill: #555555" transform="translate(677.12288 544.966861) scale(0.1 -0.1)">
       <use xlink:href="#DejaVuSans-30"/>
      </g>
     </g>
    </g>
    <g id="ytick_10">
     <g id="line2d_52">
      <path d="M 690.48538 457.70827 
L 1203.883087 457.70827 
" clip-path="url(#pb614bdf2b4)" style="fill: none; stroke: #ffffff; stroke-width: 0.8; stroke-linecap: square"/>
     </g>
     <g id="line2d_53">
      <g>
       <use xlink:href="#m675bdc51b2" x="690.48538" y="457.70827" style="fill: #555555; stroke: #555555; stroke-width: 0.8"/>
      </g>
     </g>
     <g id="text_33">
      <!-- 1 -->
      <g style="fill: #555555" transform="translate(677.12288 461.507489) scale(0.1 -0.1)">
       <use xlink:href="#DejaVuSans-31"/>
      </g>
     </g>
    </g>
    <g id="ytick_11">
     <g id="line2d_54">
      <path d="M 690.48538 374.248898 
L 1203.883087 374.248898 
" clip-path="url(#pb614bdf2b4)" style="fill: none; stroke: #ffffff; stroke-width: 0.8; stroke-linecap: square"/>
     </g>
     <g id="line2d_55">
      <g>
       <use xlink:href="#m675bdc51b2" x="690.48538" y="374.248898" style="fill: #555555; stroke: #555555; stroke-width: 0.8"/>
      </g>
     </g>
     <g id="text_34">
      <!-- 2 -->
      <g style="fill: #555555" transform="translate(677.12288 378.048117) scale(0.1 -0.1)">
       <use xlink:href="#DejaVuSans-32"/>
      </g>
     </g>
    </g>
    <g id="ytick_12">
     <g id="line2d_56">
      <path d="M 690.48538 290.789526 
L 1203.883087 290.789526 
" clip-path="url(#pb614bdf2b4)" style="fill: none; stroke: #ffffff; stroke-width: 0.8; stroke-linecap: square"/>
     </g>
     <g id="line2d_57">
      <g>
       <use xlink:href="#m675bdc51b2" x="690.48538" y="290.789526" style="fill: #555555; stroke: #555555; stroke-width: 0.8"/>
      </g>
     </g>
     <g id="text_35">
      <!-- 3 -->
      <g style="fill: #555555" transform="translate(677.12288 294.588744) scale(0.1 -0.1)">
       <use xlink:href="#DejaVuSans-33"/>
      </g>
     </g>
    </g>
    <g id="ytick_13">
     <g id="line2d_58">
      <path d="M 690.48538 207.330153 
L 1203.883087 207.330153 
" clip-path="url(#pb614bdf2b4)" style="fill: none; stroke: #ffffff; stroke-width: 0.8; stroke-linecap: square"/>
     </g>
     <g id="line2d_59">
      <g>
       <use xlink:href="#m675bdc51b2" x="690.48538" y="207.330153" style="fill: #555555; stroke: #555555; stroke-width: 0.8"/>
      </g>
     </g>
     <g id="text_36">
      <!-- 4 -->
      <g style="fill: #555555" transform="translate(677.12288 211.129372) scale(0.1 -0.1)">
       <use xlink:href="#DejaVuSans-34"/>
      </g>
     </g>
    </g>
    <g id="ytick_14">
     <g id="line2d_60">
      <path d="M 690.48538 123.870781 
L 1203.883087 123.870781 
" clip-path="url(#pb614bdf2b4)" style="fill: none; stroke: #ffffff; stroke-width: 0.8; stroke-linecap: square"/>
     </g>
     <g id="line2d_61">
      <g>
       <use xlink:href="#m675bdc51b2" x="690.48538" y="123.870781" style="fill: #555555; stroke: #555555; stroke-width: 0.8"/>
      </g>
     </g>
     <g id="text_37">
      <!-- 5 -->
      <g style="fill: #555555" transform="translate(677.12288 127.67) scale(0.1 -0.1)">
       <use xlink:href="#DejaVuSans-35"/>
      </g>
     </g>
    </g>
    <g id="ytick_15">
     <g id="line2d_62">
      <path d="M 690.48538 40.411409 
L 1203.883087 40.411409 
" clip-path="url(#pb614bdf2b4)" style="fill: none; stroke: #ffffff; stroke-width: 0.8; stroke-linecap: square"/>
     </g>
     <g id="line2d_63">
      <g>
       <use xlink:href="#m675bdc51b2" x="690.48538" y="40.411409" style="fill: #555555; stroke: #555555; stroke-width: 0.8"/>
      </g>
     </g>
     <g id="text_38">
      <!-- 6 -->
      <g style="fill: #555555" transform="translate(677.12288 44.210627) scale(0.1 -0.1)">
       <use xlink:href="#DejaVuSans-36"/>
      </g>
     </g>
    </g>
    <g id="text_39">
     <!-- Financial Scale (Normalized) -->
     <g style="fill: #555555" transform="translate(670.627255 383.530741) rotate(-90) scale(0.12 -0.12)">
      <use xlink:href="#DejaVuSans-46"/>
      <use xlink:href="#DejaVuSans-69" transform="translate(50.269531 0)"/>
      <use xlink:href="#DejaVuSans-6e" transform="translate(78.052734 0)"/>
      <use xlink:href="#DejaVuSans-61" transform="translate(141.431641 0)"/>
      <use xlink:href="#DejaVuSans-6e" transform="translate(202.710938 0)"/>
      <use xlink:href="#DejaVuSans-63" transform="translate(266.089844 0)"/>
      <use xlink:href="#DejaVuSans-69" transform="translate(321.070312 0)"/>
      <use xlink:href="#DejaVuSans-61" transform="translate(348.853516 0)"/>
      <use xlink:href="#DejaVuSans-6c" transform="translate(410.132812 0)"/>
      <use xlink:href="#DejaVuSans-20" transform="translate(437.916016 0)"/>
      <use xlink:href="#DejaVuSans-53" transform="translate(469.703125 0)"/>
      <use xlink:href="#DejaVuSans-63" transform="translate(533.179688 0)"/>
      <use xlink:href="#DejaVuSans-61" transform="translate(588.160156 0)"/>
      <use xlink:href="#DejaVuSans-6c" transform="translate(649.439453 0)"/>
      <use xlink:href="#DejaVuSans-65" transform="translate(677.222656 0)"/>
      <use xlink:href="#DejaVuSans-20" transform="translate(738.746094 0)"/>
      <use xlink:href="#DejaVuSans-28" transform="translate(770.533203 0)"/>
      <use xlink:href="#DejaVuSans-4e" transform="translate(809.546875 0)"/>
      <use xlink:href="#DejaVuSans-6f" transform="translate(884.351562 0)"/>
      <use xlink:href="#DejaVuSans-72" transform="translate(945.533203 0)"/>
      <use xlink:href="#DejaVuSans-6d" transform="translate(984.896484 0)"/>
      <use xlink:href="#DejaVuSans-61" transform="translate(1082.308594 0)"/>
      <use xlink:href="#DejaVuSans-6c" transform="translate(1143.587891 0)"/>
      <use xlink:href="#DejaVuSans-69" transform="translate(1171.371094 0)"/>
      <use xlink:href="#DejaVuSans-7a" transform="translate(1199.154297 0)"/>
      <use xlink:href="#DejaVuSans-65" transform="translate(1251.644531 0)"/>
      <use xlink:href="#DejaVuSans-64" transform="translate(1313.167969 0)"/>
      <use xlink:href="#DejaVuSans-29" transform="translate(1376.644531 0)"/>
     </g>
    </g>
    <g id="text_40">
     <!-- 1e6 -->
     <g style="fill: #555555" transform="translate(690.48538 30.711429) scale(0.1 -0.1)">
      <use xlink:href="#DejaVuSans-31"/>
      <use xlink:href="#DejaVuSans-65" transform="translate(63.623047 0)"/>
      <use xlink:href="#DejaVuSans-36" transform="translate(125.146484 0)"/>
     </g>
    </g>
   </g>
   <g id="line2d_64">
    <path d="M 485.126296 538.944989 
L 495.394251 538.764678 
L 505.662205 538.569739 
L 515.930159 538.358987 
L 526.198113 538.131137 
L 536.466067 537.884803 
L 546.734021 537.618486 
L 557.001975 537.330564 
L 567.26993 537.019284 
L 577.537884 536.682752 
L 587.805838 536.318919 
L 598.073792 535.925571 
L 608.341746 535.500312 
L 618.6097 535.040555 
L 628.877655 534.543501 
L 639.145609 534.006123 
L 649.413563 533.425151 
L 659.681517 532.797048 
L 669.949471 532.117991 
L 680.217425 531.383846 
L 690.48538 530.590144 
L 700.753334 529.732053 
L 711.021288 528.804351 
L 721.289242 527.80139 
L 731.557196 526.717065 
L 741.82515 525.544774 
L 752.093104 524.277383 
L 762.361059 522.907175 
L 772.629013 521.42581 
L 782.896967 519.824272 
L 793.164921 518.092809 
L 803.432875 516.220884 
L 813.700829 514.1971 
L 823.968784 512.009138 
L 834.236738 509.64368 
L 844.504692 507.086326 
L 854.772646 504.321509 
L 865.0406 501.332399 
L 875.308554 498.100799 
L 885.576509 494.607039 
L 895.844463 490.829851 
L 906.112417 486.746242 
L 916.380371 482.331353 
L 926.648325 477.558311 
L 936.916279 472.39806 
L 947.184234 466.819187 
L 957.452188 460.787734 
L 967.720142 454.266984 
L 977.988096 447.217244 
L 988.25605 439.5956 
L 998.524004 431.355657 
L 1008.791958 422.447256 
L 1019.059913 412.816169 
L 1029.327867 402.403768 
L 1039.595821 391.14667 
L 1049.863775 378.97635 
L 1060.131729 365.818723 
L 1070.399683 351.593695 
L 1080.667638 336.214674 
L 1090.935592 319.588044 
L 1101.203546 301.612593 
L 1111.4715 282.178899 
L 1121.739454 261.168664 
L 1132.007408 238.453992 
L 1142.275363 213.896612 
L 1152.543317 187.347036 
L 1162.811271 158.643649 
L 1173.079225 127.611724 
L 1183.347179 94.062362 
L 1193.615133 57.791338 
" clip-path="url(#pb614bdf2b4)" style="fill: none; stroke: #ff0000; stroke-opacity: 0.6; stroke-width: 2; stroke-linecap: square"/>
   </g>
   <g id="line2d_65">
    <path d="M 485.126296 539.389519 
L 495.394251 539.245271 
L 505.662205 539.08932 
L 515.930159 538.920718 
L 526.198113 538.738438 
L 536.466067 538.541371 
L 546.734021 538.328317 
L 557.001975 538.097979 
L 567.26993 537.848956 
L 577.537884 537.57973 
L 587.805838 537.288664 
L 598.073792 536.973985 
L 608.341746 536.633778 
L 618.6097 536.265973 
L 628.877655 535.868329 
L 639.145609 535.438427 
L 649.413563 534.973649 
L 659.681517 534.471167 
L 669.949471 533.927921 
L 680.217425 533.340605 
L 690.48538 532.705643 
L 700.753334 532.019171 
L 711.021288 531.277009 
L 721.289242 530.474641 
L 731.557196 529.60718 
L 741.82515 528.669348 
L 752.093104 527.655434 
L 762.361059 526.559268 
L 772.629013 525.374177 
L 782.896967 524.092946 
L 793.164921 522.707776 
L 803.432875 521.210235 
L 813.700829 519.591208 
L 823.968784 517.840839 
L 834.236738 515.948472 
L 844.504692 513.902589 
L 854.772646 511.690736 
L 865.0406 509.299447 
L 875.308554 506.714168 
L 885.576509 503.91916 
L 895.844463 500.897409 
L 906.112417 497.630522 
L 916.380371 494.098611 
L 926.648325 490.280177 
L 936.916279 486.151976 
L 947.184234 481.688878 
L 957.452188 476.863716 
L 967.720142 471.647116 
L 977.988096 466.007324 
L 988.25605 459.910009 
L 998.524004 453.318054 
L 1008.791958 446.191333 
L 1019.059913 438.486463 
L 1029.327867 430.156543 
L 1039.595821 421.150864 
L 1049.863775 411.414608 
L 1060.131729 400.888507 
L 1070.399683 389.508485 
L 1080.667638 377.205268 
L 1090.935592 363.903964 
L 1101.203546 349.523603 
L 1111.4715 333.976648 
L 1121.739454 317.16846 
L 1132.007408 298.996722 
L 1142.275363 279.350818 
L 1152.543317 258.111157 
L 1162.811271 235.148448 
L 1173.079225 210.322908 
L 1183.347179 183.483418 
L 1193.615133 154.466599 
" clip-path="url(#pb614bdf2b4)" style="fill: none; stroke: #008000; stroke-width: 2.5; stroke-linecap: square"/>
   </g>
   <g id="line2d_66">
    <path d="M 485.126296 529.821593 
L 495.394251 529.197561 
L 505.662205 528.539206 
L 515.930159 527.844642 
L 526.198113 527.111877 
L 536.466067 526.33881 
L 546.734021 525.523224 
L 557.001975 524.662781 
L 567.26993 523.755014 
L 577.537884 522.797319 
L 587.805838 521.786951 
L 598.073792 520.721013 
L 608.341746 519.596449 
L 618.6097 518.410033 
L 628.877655 517.158365 
L 639.145609 515.837854 
L 649.413563 514.444716 
L 659.681517 512.974955 
L 669.949471 511.424357 
L 680.217425 509.788477 
L 690.48538 508.062622 
L 700.753334 506.241846 
L 711.021288 504.320928 
L 721.289242 502.294358 
L 731.557196 500.156328 
L 741.82515 497.900705 
L 752.093104 495.521024 
L 762.361059 493.01046 
L 772.629013 490.361815 
L 782.896967 487.567494 
L 793.164921 484.619486 
L 803.432875 481.509337 
L 813.700829 478.228131 
L 823.968784 474.766457 
L 834.236738 471.114392 
L 844.504692 467.261464 
L 854.772646 463.196624 
L 865.0406 458.908218 
L 875.308554 454.383949 
L 885.576509 449.610846 
L 895.844463 444.575222 
L 906.112417 439.262639 
L 916.380371 433.657864 
L 926.648325 427.744826 
L 936.916279 421.506571 
L 947.184234 414.925212 
L 957.452188 407.981879 
L 967.720142 400.656662 
L 977.988096 392.928558 
L 988.25605 384.775408 
L 998.524004 376.173835 
L 1008.791958 367.099176 
L 1019.059913 357.52541 
L 1029.327867 347.425088 
L 1039.595821 336.769247 
L 1049.863775 325.527335 
L 1060.131729 313.667118 
L 1070.399683 301.15459 
L 1080.667638 287.953872 
L 1090.935592 274.027114 
L 1101.203546 259.334385 
L 1111.4715 243.833556 
L 1121.739454 227.480181 
L 1132.007408 210.227371 
L 1142.275363 192.025656 
L 1152.543317 172.822847 
L 1162.811271 152.563883 
L 1173.079225 131.190676 
L 1183.347179 108.641943 
L 1193.615133 84.85303 
" clip-path="url(#pb614bdf2b4)" style="fill: none; stroke-dasharray: 7.4,3.2; stroke-dashoffset: 0; stroke: #0000ff; stroke-width: 2"/>
   </g>
   <g id="line2d_67">
    <path d="M 834.236738 563.469429 
L 834.236738 33.711429 
" clip-path="url(#pb614bdf2b4)" style="fill: none; stroke-dasharray: 1.5,2.475; stroke-dashoffset: 0; stroke: #808080; stroke-opacity: 0.5; stroke-width: 1.5"/>
   </g>
   <g id="line2d_68">
    <g clip-path="url(#pb614bdf2b4)">
     <use xlink:href="#mefd341bdc8" x="1173.079225" y="127.611724" style="fill: #ff0000; stroke: #ff0000"/>
    </g>
   </g>
   <g id="patch_15">
    <path d="M 690.48538 563.469429 
L 690.48538 33.711429 
" style="fill: none; stroke: #ffffff; stroke-linejoin: miter; stroke-linecap: square"/>
   </g>
   <g id="patch_16">
    <path d="M 1203.883087 563.469429 
L 1203.883087 33.711429 
" style="fill: none; stroke: #ffffff; stroke-linejoin: miter; stroke-linecap: square"/>
   </g>
   <g id="patch_17">
    <path d="M 690.48538 563.469429 
L 1203.883087 563.469429 
" style="fill: none; stroke: #ffffff; stroke-linejoin: miter; stroke-linecap: square"/>
   </g>
   <g id="patch_18">
    <path d="M 690.48538 33.711429 
L 1203.883087 33.711429 
" style="fill: none; stroke: #ffffff; stroke-linejoin: miter; stroke-linecap: square"/>
   </g>
   <g id="patch_19">
    <path d="M 1185.181924 95.167904 
Q 1181.861238 104.920986 1178.540553 114.674068 
L 1181.380459 115.640987 
Q 1177.553275 120.67641 1173.726092 125.711833 
Q 1173.766733 119.387185 1173.807375 113.062537 
L 1176.647282 114.029456 
Q 1179.967968 104.276374 1183.288653 94.523291 
L 1185.181924 95.167904 
z
" style="fill: #ff0000; stroke: #eeeeee; stroke-width: 0.5; stroke-linecap: round"/>
   </g>
   <g id="text_41">
    <g id="patch_20">
     <path d="M 1123.079225 92.691412 
L 1185.990163 92.691412 
Q 1188.990163 92.691412 1188.990163 89.691412 
L 1188.990163 68.815474 
Q 1188.990163 65.815474 1185.990163 65.815474 
L 1123.079225 65.815474 
Q 1120.079225 65.815474 1120.079225 68.815474 
L 1120.079225 89.691412 
Q 1120.079225 92.691412 1123.079225 92.691412 
z
" style="fill: #ffffff; opacity: 0.8; stroke: #ff0000; stroke-width: 0.5; stroke-linejoin: miter"/>
    </g>
    <!-- Market Fail -->
    <g style="fill: #ff0000" transform="translate(1123.079225 76.413912) scale(0.1 -0.1)">
     <use xlink:href="#DejaVuSans-Bold-4d"/>
     <use xlink:href="#DejaVuSans-Bold-61" transform="translate(99.511719 0)"/>
     <use xlink:href="#DejaVuSans-Bold-72" transform="translate(166.992188 0)"/>
     <use xlink:href="#DejaVuSans-Bold-6b" transform="translate(216.308594 0)"/>
     <use xlink:href="#DejaVuSans-Bold-65" transform="translate(280.1875 0)"/>
     <use xlink:href="#DejaVuSans-Bold-74" transform="translate(348.009766 0)"/>
     <use xlink:href="#DejaVuSans-Bold-20" transform="translate(395.8125 0)"/>
     <use xlink:href="#DejaVuSans-Bold-46" transform="translate(430.626953 0)"/>
     <use xlink:href="#DejaVuSans-Bold-61" transform="translate(493.0625 0)"/>
     <use xlink:href="#DejaVuSans-Bold-69" transform="translate(560.542969 0)"/>
     <use xlink:href="#DejaVuSans-Bold-6c" transform="translate(594.820312 0)"/>
    </g>
    <!-- 2057 -->
    <g style="fill: #ff0000" transform="translate(1123.079225 87.611724) scale(0.1 -0.1)">
     <defs>
      <path id="DejaVuSans-Bold-37" d="M 428 4666 
L 3944 4666 
L 3944 3988 
L 2125 0 
L 953 0 
L 2675 3781 
L 428 3781 
L 428 4666 
z
" transform="scale(0.015625)"/>
     </defs>
     <use xlink:href="#DejaVuSans-Bold-32"/>
     <use xlink:href="#DejaVuSans-Bold-30" transform="translate(69.580078 0)"/>
     <use xlink:href="#DejaVuSans-Bold-35" transform="translate(139.160156 0)"/>
     <use xlink:href="#DejaVuSans-Bold-37" transform="translate(208.740234 0)"/>
    </g>
   </g>
   <g id="text_42">
    <!-- Luzon_PHL: Impact of Mitigation -->
    <g transform="translate(831.678234 27.711429) scale(0.144 -0.144)">
     <defs>
      <path id="DejaVuSans-75" d="M 544 1381 
L 544 3500 
L 1119 3500 
L 1119 1403 
Q 1119 906 1312 657 
Q 1506 409 1894 409 
Q 2359 409 2629 706 
Q 2900 1003 2900 1516 
L 2900 3500 
L 3475 3500 
L 3475 0 
L 2900 0 
L 2900 538 
Q 2691 219 2414 64 
Q 2138 -91 1772 -91 
Q 1169 -91 856 284 
Q 544 659 544 1381 
z
M 1991 3584 
L 1991 3584 
z
" transform="scale(0.015625)"/>
      <path id="DejaVuSans-50" d="M 1259 4147 
L 1259 2394 
L 2053 2394 
Q 2494 2394 2734 2622 
Q 2975 2850 2975 3272 
Q 2975 3691 2734 3919 
Q 2494 4147 2053 4147 
L 1259 4147 
z
M 628 4666 
L 2053 4666 
Q 2838 4666 3239 4311 
Q 3641 3956 3641 3272 
Q 3641 2581 3239 2228 
Q 2838 1875 2053 1875 
L 1259 1875 
L 1259 0 
L 628 0 
L 628 4666 
z
" transform="scale(0.015625)"/>
      <path id="DejaVuSans-48" d="M 628 4666 
L 1259 4666 
L 1259 2753 
L 3553 2753 
L 3553 4666 
L 4184 4666 
L 4184 0 
L 3553 0 
L 3553 2222 
L 1259 2222 
L 1259 0 
L 628 0 
L 628 4666 
z
" transform="scale(0.015625)"/>
     </defs>
     <use xlink:href="#DejaVuSans-4c"/>
     <use xlink:href="#DejaVuSans-75" transform="translate(53.962891 0)"/>
     <use xlink:href="#DejaVuSans-7a" transform="translate(117.341797 0)"/>
     <use xlink:href="#DejaVuSans-6f" transform="translate(169.832031 0)"/>
     <use xlink:href="#DejaVuSans-6e" transform="translate(231.013672 0)"/>
     <use xlink:href="#DejaVuSans-5f" transform="translate(294.392578 0)"/>
     <use xlink:href="#DejaVuSans-50" transform="translate(344.392578 0)"/>
     <use xlink:href="#DejaVuSans-48" transform="translate(404.695312 0)"/>
     <use xlink:href="#DejaVuSans-4c" transform="translate(479.890625 0)"/>
     <use xlink:href="#DejaVuSans-3a" transform="translate(535.603516 0)"/>
     <use xlink:href="#DejaVuSans-20" transform="translate(569.294922 0)"/>
     <use xlink:href="#DejaVuSans-49" transform="translate(601.082031 0)"/>
     <use xlink:href="#DejaVuSans-6d" transform="translate(630.574219 0)"/>
     <use xlink:href="#DejaVuSans-70" transform="translate(727.986328 0)"/>
     <use xlink:href="#DejaVuSans-61" transform="translate(791.462891 0)"/>
     <use xlink:href="#DejaVuSans-63" transform="translate(852.742188 0)"/>
     <use xlink:href="#DejaVuSans-74" transform="translate(907.722656 0)"/>
     <use xlink:href="#DejaVuSans-20" transform="translate(946.931641 0)"/>
     <use xlink:href="#DejaVuSans-6f" transform="translate(978.71875 0)"/>
     <use xlink:href="#DejaVuSans-66" transform="translate(1039.900391 0)"/>
     <use xlink:href="#DejaVuSans-20" transform="translate(1075.105469 0)"/>
     <use xlink:href="#DejaVuSans-4d" transform="translate(1106.892578 0)"/>
     <use xlink:href="#DejaVuSans-69" transform="translate(1193.171875 0)"/>
     <use xlink:href="#DejaVuSans-74" transform="translate(1220.955078 0)"/>
     <use xlink:href="#DejaVuSans-69" transform="translate(1260.164062 0)"/>
     <use xlink:href="#DejaVuSans-67" transform="translate(1287.947266 0)"/>
     <use xlink:href="#DejaVuSans-61" transform="translate(1351.423828 0)"/>
     <use xlink:href="#DejaVuSans-74" transform="translate(1412.703125 0)"/>
     <use xlink:href="#DejaVuSans-69" transform="translate(1451.912109 0)"/>
     <use xlink:href="#DejaVuSans-6f" transform="translate(1479.695312 0)"/>
     <use xlink:href="#DejaVuSans-6e" transform="translate(1540.876953 0)"/>
    </g>
   </g>
   <g id="legend_2">
    <g id="patch_21">
     <path d="M 1013.2784 558.469429 
L 1196.883087 558.469429 
Q 1198.883087 558.469429 1198.883087 556.469429 
L 1198.883087 513.435054 
Q 1198.883087 511.435054 1196.883087 511.435054 
L 1013.2784 511.435054 
Q 1011.2784 511.435054 1011.2784 513.435054 
L 1011.2784 556.469429 
Q 1011.2784 558.469429 1013.2784 558.469429 
z
" style="fill: #e5e5e5; opacity: 0.8; stroke: #cccccc; stroke-width: 0.5; stroke-linejoin: miter"/>
    </g>
    <g id="line2d_69">
     <path d="M 1015.2784 519.533491 
L 1025.2784 519.533491 
L 1035.2784 519.533491 
" style="fill: none; stroke: #ff0000; stroke-opacity: 0.6; stroke-width: 2; stroke-linecap: square"/>
    </g>
    <g id="text_43">
     <!-- Original Risk Cost -->
     <g transform="translate(1043.2784 523.033491) scale(0.1 -0.1)">
      <use xlink:href="#DejaVuSans-4f"/>
      <use xlink:href="#DejaVuSans-72" transform="translate(78.710938 0)"/>
      <use xlink:href="#DejaVuSans-69" transform="translate(119.824219 0)"/>
      <use xlink:href="#DejaVuSans-67" transform="translate(147.607422 0)"/>
      <use xlink:href="#DejaVuSans-69" transform="translate(211.083984 0)"/>
      <use xlink:href="#DejaVuSans-6e" transform="translate(238.867188 0)"/>
      <use xlink:href="#DejaVuSans-61" transform="translate(302.246094 0)"/>
      <use xlink:href="#DejaVuSans-6c" transform="translate(363.525391 0)"/>
      <use xlink:href="#DejaVuSans-20" transform="translate(391.308594 0)"/>
      <use xlink:href="#DejaVuSans-52" transform="translate(423.095703 0)"/>
      <use xlink:href="#DejaVuSans-69" transform="translate(492.578125 0)"/>
      <use xlink:href="#DejaVuSans-73" transform="translate(520.361328 0)"/>
      <use xlink:href="#DejaVuSans-6b" transform="translate(572.460938 0)"/>
      <use xlink:href="#DejaVuSans-20" transform="translate(630.371094 0)"/>
      <use xlink:href="#DejaVuSans-43" transform="translate(662.158203 0)"/>
      <use xlink:href="#DejaVuSans-6f" transform="translate(731.982422 0)"/>
      <use xlink:href="#DejaVuSans-73" transform="translate(793.164062 0)"/>
      <use xlink:href="#DejaVuSans-74" transform="translate(845.263672 0)"/>
     </g>
    </g>
    <g id="line2d_70">
     <path d="M 1015.2784 534.211616 
L 1025.2784 534.211616 
L 1035.2784 534.211616 
" style="fill: none; stroke: #008000; stroke-width: 2.5; stroke-linecap: square"/>
    </g>
    <g id="text_44">
     <!-- Mitigated Cost (Actions Taken) -->
     <g transform="translate(1043.2784 537.711616) scale(0.1 -0.1)">
      <use xlink:href="#DejaVuSans-4d"/>
      <use xlink:href="#DejaVuSans-69" transform="translate(86.279297 0)"/>
      <use xlink:href="#DejaVuSans-74" transform="translate(114.0625 0)"/>
      <use xlink:href="#DejaVuSans-69" transform="translate(153.271484 0)"/>
      <use xlink:href="#DejaVuSans-67" transform="translate(181.054688 0)"/>
      <use xlink:href="#DejaVuSans-61" transform="translate(244.53125 0)"/>
      <use xlink:href="#DejaVuSans-74" transform="translate(305.810547 0)"/>
      <use xlink:href="#DejaVuSans-65" transform="translate(345.019531 0)"/>
      <use xlink:href="#DejaVuSans-64" transform="translate(406.542969 0)"/>
      <use xlink:href="#DejaVuSans-20" transform="translate(470.019531 0)"/>
      <use xlink:href="#DejaVuSans-43" transform="translate(501.806641 0)"/>
      <use xlink:href="#DejaVuSans-6f" transform="translate(571.630859 0)"/>
      <use xlink:href="#DejaVuSans-73" transform="translate(632.8125 0)"/>
      <use xlink:href="#DejaVuSans-74" transform="translate(684.912109 0)"/>
      <use xlink:href="#DejaVuSans-20" transform="translate(724.121094 0)"/>
      <use xlink:href="#DejaVuSans-28" transform="translate(755.908203 0)"/>
      <use xlink:href="#DejaVuSans-41" transform="translate(794.921875 0)"/>
      <use xlink:href="#DejaVuSans-63" transform="translate(861.580078 0)"/>
      <use xlink:href="#DejaVuSans-74" transform="translate(916.560547 0)"/>
      <use xlink:href="#DejaVuSans-69" transform="translate(955.769531 0)"/>
      <use xlink:href="#DejaVuSans-6f" transform="translate(983.552734 0)"/>
      <use xlink:href="#DejaVuSans-6e" transform="translate(1044.734375 0)"/>
      <use xlink:href="#DejaVuSans-73" transform="translate(1108.113281 0)"/>
      <use xlink:href="#DejaVuSans-20" transform="translate(1160.212891 0)"/>
      <use xlink:href="#DejaVuSans-54" transform="translate(1192 0)"/>
      <use xlink:href="#DejaVuSans-61" transform="translate(1236.583984 0)"/>
      <use xlink:href="#DejaVuSans-6b" transform="translate(1297.863281 0)"/>
      <use xlink:href="#DejaVuSans-65" transform="translate(1352.148438 0)"/>
      <use xlink:href="#DejaVuSans-6e" transform="translate(1413.671875 0)"/>
      <use xlink:href="#DejaVuSans-29" transform="translate(1477.050781 0)"/>
     </g>
    </g>
    <g id="line2d_71">
     <path d="M 1015.2784 548.889741 
L 1025.2784 548.889741 
L 1035.2784 548.889741 
" style="fill: none; stroke-dasharray: 7.4,3.2; stroke-dashoffset: 0; stroke: #0000ff; stroke-width: 2"/>
    </g>
    <g id="text_45">
     <!-- Affordability Limit -->
     <g transform="translate(1043.2784 552.389741) scale(0.1 -0.1)">
      <use xlink:href="#DejaVuSans-41"/>
      <use xlink:href="#DejaVuSans-66" transform="translate(64.783203 0)"/>
      <use xlink:href="#DejaVuSans-66" transform="translate(99.988281 0)"/>
      <use xlink:href="#DejaVuSans-6f" transform="translate(135.193359 0)"/>
      <use xlink:href="#DejaVuSans-72" transform="translate(196.375 0)"/>
      <use xlink:href="#DejaVuSans-64" transform="translate(235.738281 0)"/>
      <use xlink:href="#DejaVuSans-61" transform="translate(299.214844 0)"/>
      <use xlink:href="#DejaVuSans-62" transform="translate(360.494141 0)"/>
      <use xlink:href="#DejaVuSans-69" transform="translate(423.970703 0)"/>
      <use xlink:href="#DejaVuSans-6c" transform="translate(451.753906 0)"/>
      <use xlink:href="#DejaVuSans-69" transform="translate(479.537109 0)"/>
      <use xlink:href="#DejaVuSans-74" transform="translate(507.320312 0)"/>
      <use xlink:href="#DejaVuSans-79" transform="translate(546.529297 0)"/>
      <use xlink:href="#DejaVuSans-20" transform="translate(605.708984 0)"/>
      <use xlink:href="#DejaVuSans-4c" transform="translate(637.496094 0)"/>
      <use xlink:href="#DejaVuSans-69" transform="translate(693.208984 0)"/>
      <use xlink:href="#DejaVuSans-6d" transform="translate(720.992188 0)"/>
      <use xlink:href="#DejaVuSans-69" transform="translate(818.404297 0)"/>
      <use xlink:href="#DejaVuSans-74" transform="translate(846.1875 0)"/>
     </g>
    </g>
   </g>
  </g>
 </g>
 <defs>
  <clipPath id="p753dcc306b">
   <rect x="58.592775" y="33.711429" width="513.397708" height="529.758"/>
  </clipPath>
  <clipPath id="pb614bdf2b4">
   <rect x="690.48538" y="33.711429" width="513.397708" height="529.758"/>
  </clipPath>
 </defs>
</svg>
