<?xml version="1.0" encoding="utf-8" standalone="no"?>
<!DOCTYPE svg PUBLIC "-//W3C//DTD SVG 1.1//EN"
  "http://www.w3.org/Graphics/SVG/1.1/DTD/svg11.dtd">
<svg xmlns:xlink="http://www.w3.org/1999/xlink" width="576pt" height="576pt" viewBox="0 0 576 576" xmlns="http://www.w3.org/2000/svg" version="1.1">
 <metadata>
  <rdf:RDF xmlns:dc="http://purl.org/dc/elements/1.1/" xmlns:cc="http://creativecommons.org/ns#" xmlns:rdf="http://www.w3.org/1999/02/22-rdf-syntax-ns#">
   <cc:Work>
    <dc:type rdf:resource="http://purl.org/dc/dcmitype/StillImage"/>
    <dc:date>2026-01-26T12:22:05.749264</dc:date>
    <dc:format>image/svg+xml</dc:format>
    <dc:creator>
     <cc:Agent>
      <dc:title>Matplotlib v3.10.6, https://matplotlib.org/</dc:title>
     </cc:Agent>
    </dc:creator>
   </cc:Work>
  </rdf:RDF>
 </metadata>
 <defs>
  <style type="text/css">*{stroke-linejoin: round; stroke-linecap: butt}</style>
 </defs>
 <g id="figure_1">
  <g id="patch_1">
   <path d="M 0 576 
L 576 576 
L 576 0 
L 0 0 
z
" style="fill: #ffffff"/>
  </g>
  <g id="axes_1">
   <g id="patch_2">
    <path d="M 50.69 532.6 
L 557.235 532.6 
L 557.235 25.44 
L 50.69 25.44 
z
" style="fill: #ffffff"/>
   </g>
   <g id="QuadContourSet_1">
    <path d="M 402.170204 527.424898 
L 412.507857 527.424898 
L 422.84551 527.424898 
L 433.183163 527.424898 
L 438.35199 532.6 
L 443.520816 532.6 
L 453.858469 532.6 
L 464.196122 532.6 
L 474.533776 532.6 
L 484.871429 532.6 
L 495.209082 532.6 
L 505.546735 532.6 
L 515.884388 532.6 
L 526.222041 532.6 
L 536.559694 532.6 
L 546.897347 532.6 
L 557.235 532.6 
L 557.235 522.249796 
L 557.235 511.899592 
L 557.235 501.549388 
L 557.235 491.199184 
L 557.235 480.84898 
L 557.235 470.498776 
L 557.235 460.148571 
L 557.235 449.798367 
L 557.235 439.448163 
L 557.235 429.097959 
L 557.235 418.747755 
L 557.235 408.397551 
L 557.235 398.047347 
L 557.235 387.697143 
L 557.235 377.346939 
L 557.235 366.996735 
L 557.235 356.646531 
L 557.235 346.296327 
L 557.235 335.946122 
L 557.235 325.595918 
L 557.235 315.245714 
L 557.235 304.89551 
L 557.235 294.545306 
L 557.235 284.195102 
L 557.235 273.844898 
L 557.235 263.494694 
L 557.235 253.14449 
L 557.235 242.794286 
L 557.235 232.444082 
L 557.235 222.093878 
L 557.235 211.743673 
L 557.235 201.393469 
L 557.235 191.043265 
L 557.235 180.693061 
L 557.235 170.342857 
L 557.235 159.992653 
L 557.235 149.642449 
L 557.235 139.292245 
L 557.235 128.942041 
L 557.235 118.591837 
L 557.235 108.241633 
L 557.235 97.891429 
L 557.235 87.541224 
L 557.235 77.19102 
L 557.235 66.840816 
L 557.235 56.490612 
L 557.235 46.140408 
L 557.235 35.790204 
L 557.235 25.44 
L 546.897347 25.44 
L 536.559694 25.44 
L 526.222041 25.44 
L 515.884388 25.44 
L 505.546735 25.44 
L 495.209082 25.44 
L 484.871429 25.44 
L 474.533776 25.44 
L 464.196122 25.44 
L 453.858469 25.44 
L 443.520816 25.44 
L 433.183163 25.44 
L 422.84551 25.44 
L 412.507857 25.44 
L 402.170204 25.44 
L 391.832551 25.44 
L 381.494898 25.44 
L 371.157245 25.44 
L 360.819592 25.44 
L 350.481939 25.44 
L 340.144286 25.44 
L 329.806633 25.44 
L 319.46898 25.44 
L 309.131327 25.44 
L 298.793673 25.44 
L 288.45602 25.44 
L 278.118367 25.44 
L 267.780714 25.44 
L 257.443061 25.44 
L 247.105408 25.44 
L 241.936582 25.44 
L 241.936582 35.790204 
L 241.936582 46.140408 
L 241.936582 56.490612 
L 241.936582 66.840816 
L 241.936582 77.19102 
L 241.936582 87.541224 
L 241.936582 97.891429 
L 241.936582 108.241633 
L 247.105408 113.416735 
L 252.274235 118.591837 
L 252.274235 128.942041 
L 252.274235 139.292245 
L 252.274235 149.642449 
L 252.274235 159.992653 
L 252.274235 170.342857 
L 252.274235 180.693061 
L 257.443061 185.868163 
L 262.611888 191.043265 
L 262.611888 201.393469 
L 262.611888 211.743673 
L 262.611888 222.093878 
L 262.611888 232.444082 
L 262.611888 242.794286 
L 262.611888 253.14449 
L 267.780714 258.319592 
L 272.949541 263.494694 
L 272.949541 273.844898 
L 272.949541 284.195102 
L 272.949541 294.545306 
L 272.949541 304.89551 
L 278.118367 310.070612 
L 283.287194 315.245714 
L 283.287194 325.595918 
L 283.287194 335.946122 
L 283.287194 346.296327 
L 288.45602 351.471429 
L 293.624847 356.646531 
L 293.624847 366.996735 
L 293.624847 377.346939 
L 298.793673 382.522041 
L 303.9625 387.697143 
L 303.9625 398.047347 
L 303.9625 408.397551 
L 309.131327 413.572653 
L 314.300153 418.747755 
L 314.300153 429.097959 
L 319.46898 434.273061 
L 324.637806 439.448163 
L 324.637806 449.798367 
L 329.806633 454.973469 
L 334.975459 460.148571 
L 334.975459 470.498776 
L 340.144286 475.673878 
L 345.313112 480.84898 
L 350.481939 486.024082 
L 355.650765 491.199184 
L 360.819592 496.374286 
L 365.988418 501.549388 
L 371.157245 506.72449 
L 376.326071 511.899592 
L 381.494898 517.074694 
L 391.832551 517.074694 
L 397.001378 522.249796 
z
M 92.040612 310.070612 
L 102.378265 310.070612 
L 107.547092 304.89551 
L 107.547092 294.545306 
L 112.715918 289.370204 
L 117.884745 284.195102 
L 117.884745 273.844898 
L 123.053571 268.669796 
L 128.222398 263.494694 
L 128.222398 253.14449 
L 133.391224 247.969388 
L 138.560051 242.794286 
L 138.560051 232.444082 
L 143.728878 227.26898 
L 148.897704 222.093878 
L 148.897704 211.743673 
L 154.066531 206.568571 
L 159.235357 201.393469 
L 159.235357 191.043265 
L 159.235357 180.693061 
L 164.404184 175.517959 
L 169.57301 170.342857 
L 169.57301 159.992653 
L 169.57301 149.642449 
L 174.741837 144.467347 
L 179.910663 139.292245 
L 179.910663 128.942041 
L 179.910663 118.591837 
L 179.910663 108.241633 
L 185.07949 103.066531 
L 190.248316 97.891429 
L 190.248316 87.541224 
L 190.248316 77.19102 
L 190.248316 66.840816 
L 195.417143 61.665714 
L 200.585969 56.490612 
L 200.585969 46.140408 
L 200.585969 35.790204 
L 200.585969 25.44 
L 195.417143 25.44 
L 185.07949 25.44 
L 174.741837 25.44 
L 164.404184 25.44 
L 154.066531 25.44 
L 143.728878 25.44 
L 133.391224 25.44 
L 123.053571 25.44 
L 112.715918 25.44 
L 102.378265 25.44 
L 92.040612 25.44 
L 81.702959 25.44 
L 76.534133 25.44 
L 76.534133 35.790204 
L 76.534133 46.140408 
L 76.534133 56.490612 
L 76.534133 66.840816 
L 76.534133 77.19102 
L 76.534133 87.541224 
L 76.534133 97.891429 
L 76.534133 108.241633 
L 76.534133 118.591837 
L 76.534133 128.942041 
L 76.534133 139.292245 
L 76.534133 149.642449 
L 76.534133 159.992653 
L 76.534133 170.342857 
L 76.534133 180.693061 
L 76.534133 191.043265 
L 76.534133 201.393469 
L 76.534133 211.743673 
L 81.702959 216.918776 
L 86.871786 222.093878 
L 86.871786 232.444082 
L 86.871786 242.794286 
L 86.871786 253.14449 
L 86.871786 263.494694 
L 86.871786 273.844898 
L 86.871786 284.195102 
L 86.871786 294.545306 
L 86.871786 304.89551 
z
" clip-path="url(#p49811ea2cd)" style="fill: #ffcccc"/>
    <path d="M 61.027653 532.6 
L 71.365306 532.6 
L 81.702959 532.6 
L 92.040612 532.6 
L 102.378265 532.6 
L 112.715918 532.6 
L 123.053571 532.6 
L 133.391224 532.6 
L 143.728878 532.6 
L 154.066531 532.6 
L 164.404184 532.6 
L 174.741837 532.6 
L 185.07949 532.6 
L 195.417143 532.6 
L 205.754796 532.6 
L 216.092449 532.6 
L 226.430102 532.6 
L 236.767755 532.6 
L 247.105408 532.6 
L 257.443061 532.6 
L 267.780714 532.6 
L 278.118367 532.6 
L 288.45602 532.6 
L 298.793673 532.6 
L 309.131327 532.6 
L 319.46898 532.6 
L 329.806633 532.6 
L 340.144286 532.6 
L 350.481939 532.6 
L 360.819592 532.6 
L 371.157245 532.6 
L 381.494898 532.6 
L 391.832551 532.6 
L 402.170204 532.6 
L 412.507857 532.6 
L 422.84551 532.6 
L 433.183163 532.6 
L 438.35199 532.6 
L 433.183163 527.424898 
L 422.84551 527.424898 
L 412.507857 527.424898 
L 402.170204 527.424898 
L 397.001378 522.249796 
L 391.832551 517.074694 
L 381.494898 517.074694 
L 376.326071 511.899592 
L 371.157245 506.72449 
L 365.988418 501.549388 
L 360.819592 496.374286 
L 355.650765 491.199184 
L 350.481939 486.024082 
L 345.313112 480.84898 
L 340.144286 475.673878 
L 334.975459 470.498776 
L 334.975459 460.148571 
L 329.806633 454.973469 
L 324.637806 449.798367 
L 324.637806 439.448163 
L 319.46898 434.273061 
L 314.300153 429.097959 
L 314.300153 418.747755 
L 309.131327 413.572653 
L 303.9625 408.397551 
L 303.9625 398.047347 
L 303.9625 387.697143 
L 298.793673 382.522041 
L 293.624847 377.346939 
L 293.624847 366.996735 
L 293.624847 356.646531 
L 288.45602 351.471429 
L 283.287194 346.296327 
L 283.287194 335.946122 
L 283.287194 325.595918 
L 283.287194 315.245714 
L 278.118367 310.070612 
L 272.949541 304.89551 
L 272.949541 294.545306 
L 272.949541 284.195102 
L 272.949541 273.844898 
L 272.949541 263.494694 
L 267.780714 258.319592 
L 262.611888 253.14449 
L 262.611888 242.794286 
L 262.611888 232.444082 
L 262.611888 222.093878 
L 262.611888 211.743673 
L 262.611888 201.393469 
L 262.611888 191.043265 
L 257.443061 185.868163 
L 252.274235 180.693061 
L 252.274235 170.342857 
L 252.274235 159.992653 
L 252.274235 149.642449 
L 252.274235 139.292245 
L 252.274235 128.942041 
L 252.274235 118.591837 
L 247.105408 113.416735 
L 241.936582 108.241633 
L 241.936582 97.891429 
L 241.936582 87.541224 
L 241.936582 77.19102 
L 241.936582 66.840816 
L 241.936582 56.490612 
L 241.936582 46.140408 
L 241.936582 35.790204 
L 241.936582 25.44 
L 236.767755 25.44 
L 226.430102 25.44 
L 216.092449 25.44 
L 205.754796 25.44 
L 200.585969 25.44 
L 200.585969 35.790204 
L 200.585969 46.140408 
L 200.585969 56.490612 
L 195.417143 61.665714 
L 190.248316 66.840816 
L 190.248316 77.19102 
L 190.248316 87.541224 
L 190.248316 97.891429 
L 185.07949 103.066531 
L 179.910663 108.241633 
L 179.910663 118.591837 
L 179.910663 128.942041 
L 179.910663 139.292245 
L 174.741837 144.467347 
L 169.57301 149.642449 
L 169.57301 159.992653 
L 169.57301 170.342857 
L 164.404184 175.517959 
L 159.235357 180.693061 
L 159.235357 191.043265 
L 159.235357 201.393469 
L 154.066531 206.568571 
L 148.897704 211.743673 
L 148.897704 222.093878 
L 143.728878 227.26898 
L 138.560051 232.444082 
L 138.560051 242.794286 
L 133.391224 247.969388 
L 128.222398 253.14449 
L 128.222398 263.494694 
L 123.053571 268.669796 
L 117.884745 273.844898 
L 117.884745 284.195102 
L 112.715918 289.370204 
L 107.547092 294.545306 
L 107.547092 304.89551 
L 102.378265 310.070612 
L 92.040612 310.070612 
L 86.871786 304.89551 
L 86.871786 294.545306 
L 86.871786 284.195102 
L 86.871786 273.844898 
L 86.871786 263.494694 
L 86.871786 253.14449 
L 86.871786 242.794286 
L 86.871786 232.444082 
L 86.871786 222.093878 
L 81.702959 216.918776 
L 76.534133 211.743673 
L 76.534133 201.393469 
L 76.534133 191.043265 
L 76.534133 180.693061 
L 76.534133 170.342857 
L 76.534133 159.992653 
L 76.534133 149.642449 
L 76.534133 139.292245 
L 76.534133 128.942041 
L 76.534133 118.591837 
L 76.534133 108.241633 
L 76.534133 97.891429 
L 76.534133 87.541224 
L 76.534133 77.19102 
L 76.534133 66.840816 
L 76.534133 56.490612 
L 76.534133 46.140408 
L 76.534133 35.790204 
L 76.534133 25.44 
L 71.365306 25.44 
L 61.027653 25.44 
L 50.69 25.44 
L 50.69 35.790204 
L 50.69 46.140408 
L 50.69 56.490612 
L 50.69 66.840816 
L 50.69 77.19102 
L 50.69 87.541224 
L 50.69 97.891429 
L 50.69 108.241633 
L 50.69 118.591837 
L 50.69 128.942041 
L 50.69 139.292245 
L 50.69 149.642449 
L 50.69 159.992653 
L 50.69 170.342857 
L 50.69 180.693061 
L 50.69 191.043265 
L 50.69 201.393469 
L 50.69 211.743673 
L 50.69 222.093878 
L 50.69 232.444082 
L 50.69 242.794286 
L 50.69 253.14449 
L 50.69 263.494694 
L 50.69 273.844898 
L 50.69 284.195102 
L 50.69 294.545306 
L 50.69 304.89551 
L 50.69 315.245714 
L 50.69 325.595918 
L 50.69 335.946122 
L 50.69 346.296327 
L 50.69 356.646531 
L 50.69 366.996735 
L 50.69 377.346939 
L 50.69 387.697143 
L 50.69 398.047347 
L 50.69 408.397551 
L 50.69 418.747755 
L 50.69 429.097959 
L 50.69 439.448163 
L 50.69 449.798367 
L 50.69 460.148571 
L 50.69 470.498776 
L 50.69 480.84898 
L 50.69 491.199184 
L 50.69 501.549388 
L 50.69 511.899592 
L 50.69 522.249796 
L 50.69 532.6 
z
" clip-path="url(#p49811ea2cd)" style="fill: #ccffcc"/>
   </g>
   <g id="patch_3">
    <path d="M 65.88635 532.6 
L 81.0827 532.6 
L 81.0827 25.44 
L 65.88635 25.44 
z
" clip-path="url(#p49811ea2cd)" style="fill: url(#h1f94fec905); opacity: 0.1; stroke: #0000ff; stroke-linejoin: miter"/>
   </g>
   <g id="matplotlib.axis_1">
    <g id="xtick_1">
     <g id="line2d_1">
      <defs>
       <path id="me2f974e1e5" d="M 0 0 
L 0 3.5 
" style="stroke: #000000; stroke-width: 0.8"/>
      </defs>
      <g>
       <use xlink:href="#me2f974e1e5" x="50.69" y="532.6" style="stroke: #000000; stroke-width: 0.8"/>
      </g>
     </g>
     <g id="text_1">
      <!-- 0.0 -->
      <g transform="translate(42.738438 547.198437) scale(0.1 -0.1)">
       <defs>
        <path id="DejaVuSans-30" d="M 2034 4250 
Q 1547 4250 1301 3770 
Q 1056 3291 1056 2328 
Q 1056 1369 1301 889 
Q 1547 409 2034 409 
Q 2525 409 2770 889 
Q 3016 1369 3016 2328 
Q 3016 3291 2770 3770 
Q 2525 4250 2034 4250 
z
M 2034 4750 
Q 2819 4750 3233 4129 
Q 3647 3509 3647 2328 
Q 3647 1150 3233 529 
Q 2819 -91 2034 -91 
Q 1250 -91 836 529 
Q 422 1150 422 2328 
Q 422 3509 836 4129 
Q 1250 4750 2034 4750 
z
" transform="scale(0.015625)"/>
        <path id="DejaVuSans-2e" d="M 684 794 
L 1344 794 
L 1344 0 
L 684 0 
L 684 794 
z
" transform="scale(0.015625)"/>
       </defs>
       <use xlink:href="#DejaVuSans-30"/>
       <use xlink:href="#DejaVuSans-2e" transform="translate(63.623047 0)"/>
       <use xlink:href="#DejaVuSans-30" transform="translate(95.410156 0)"/>
      </g>
     </g>
    </g>
    <g id="xtick_2">
     <g id="line2d_2">
      <g>
       <use xlink:href="#me2f974e1e5" x="151.999" y="532.6" style="stroke: #000000; stroke-width: 0.8"/>
      </g>
     </g>
     <g id="text_2">
      <!-- 0.2 -->
      <g transform="translate(144.047438 547.198437) scale(0.1 -0.1)">
       <defs>
        <path id="DejaVuSans-32" d="M 1228 531 
L 3431 531 
L 3431 0 
L 469 0 
L 469 531 
Q 828 903 1448 1529 
Q 2069 2156 2228 2338 
Q 2531 2678 2651 2914 
Q 2772 3150 2772 3378 
Q 2772 3750 2511 3984 
Q 2250 4219 1831 4219 
Q 1534 4219 1204 4116 
Q 875 4013 500 3803 
L 500 4441 
Q 881 4594 1212 4672 
Q 1544 4750 1819 4750 
Q 2544 4750 2975 4387 
Q 3406 4025 3406 3419 
Q 3406 3131 3298 2873 
Q 3191 2616 2906 2266 
Q 2828 2175 2409 1742 
Q 1991 1309 1228 531 
z
" transform="scale(0.015625)"/>
       </defs>
       <use xlink:href="#DejaVuSans-30"/>
       <use xlink:href="#DejaVuSans-2e" transform="translate(63.623047 0)"/>
       <use xlink:href="#DejaVuSans-32" transform="translate(95.410156 0)"/>
      </g>
     </g>
    </g>
    <g id="xtick_3">
     <g id="line2d_3">
      <g>
       <use xlink:href="#me2f974e1e5" x="253.308" y="532.6" style="stroke: #000000; stroke-width: 0.8"/>
      </g>
     </g>
     <g id="text_3">
      <!-- 0.4 -->
      <g transform="translate(245.356438 547.198437) scale(0.1 -0.1)">
       <defs>
        <path id="DejaVuSans-34" d="M 2419 4116 
L 825 1625 
L 2419 1625 
L 2419 4116 
z
M 2253 4666 
L 3047 4666 
L 3047 1625 
L 3713 1625 
L 3713 1100 
L 3047 1100 
L 3047 0 
L 2419 0 
L 2419 1100 
L 313 1100 
L 313 1709 
L 2253 4666 
z
" transform="scale(0.015625)"/>
       </defs>
       <use xlink:href="#DejaVuSans-30"/>
       <use xlink:href="#DejaVuSans-2e" transform="translate(63.623047 0)"/>
       <use xlink:href="#DejaVuSans-34" transform="translate(95.410156 0)"/>
      </g>
     </g>
    </g>
    <g id="xtick_4">
     <g id="line2d_4">
      <g>
       <use xlink:href="#me2f974e1e5" x="354.617" y="532.6" style="stroke: #000000; stroke-width: 0.8"/>
      </g>
     </g>
     <g id="text_4">
      <!-- 0.6 -->
      <g transform="translate(346.665438 547.198437) scale(0.1 -0.1)">
       <defs>
        <path id="DejaVuSans-36" d="M 2113 2584 
Q 1688 2584 1439 2293 
Q 1191 2003 1191 1497 
Q 1191 994 1439 701 
Q 1688 409 2113 409 
Q 2538 409 2786 701 
Q 3034 994 3034 1497 
Q 3034 2003 2786 2293 
Q 2538 2584 2113 2584 
z
M 3366 4563 
L 3366 3988 
Q 3128 4100 2886 4159 
Q 2644 4219 2406 4219 
Q 1781 4219 1451 3797 
Q 1122 3375 1075 2522 
Q 1259 2794 1537 2939 
Q 1816 3084 2150 3084 
Q 2853 3084 3261 2657 
Q 3669 2231 3669 1497 
Q 3669 778 3244 343 
Q 2819 -91 2113 -91 
Q 1303 -91 875 529 
Q 447 1150 447 2328 
Q 447 3434 972 4092 
Q 1497 4750 2381 4750 
Q 2619 4750 2861 4703 
Q 3103 4656 3366 4563 
z
" transform="scale(0.015625)"/>
       </defs>
       <use xlink:href="#DejaVuSans-30"/>
       <use xlink:href="#DejaVuSans-2e" transform="translate(63.623047 0)"/>
       <use xlink:href="#DejaVuSans-36" transform="translate(95.410156 0)"/>
      </g>
     </g>
    </g>
    <g id="xtick_5">
     <g id="line2d_5">
      <g>
       <use xlink:href="#me2f974e1e5" x="455.926" y="532.6" style="stroke: #000000; stroke-width: 0.8"/>
      </g>
     </g>
     <g id="text_5">
      <!-- 0.8 -->
      <g transform="translate(447.974438 547.198437) scale(0.1 -0.1)">
       <defs>
        <path id="DejaVuSans-38" d="M 2034 2216 
Q 1584 2216 1326 1975 
Q 1069 1734 1069 1313 
Q 1069 891 1326 650 
Q 1584 409 2034 409 
Q 2484 409 2743 651 
Q 3003 894 3003 1313 
Q 3003 1734 2745 1975 
Q 2488 2216 2034 2216 
z
M 1403 2484 
Q 997 2584 770 2862 
Q 544 3141 544 3541 
Q 544 4100 942 4425 
Q 1341 4750 2034 4750 
Q 2731 4750 3128 4425 
Q 3525 4100 3525 3541 
Q 3525 3141 3298 2862 
Q 3072 2584 2669 2484 
Q 3125 2378 3379 2068 
Q 3634 1759 3634 1313 
Q 3634 634 3220 271 
Q 2806 -91 2034 -91 
Q 1263 -91 848 271 
Q 434 634 434 1313 
Q 434 1759 690 2068 
Q 947 2378 1403 2484 
z
M 1172 3481 
Q 1172 3119 1398 2916 
Q 1625 2713 2034 2713 
Q 2441 2713 2670 2916 
Q 2900 3119 2900 3481 
Q 2900 3844 2670 4047 
Q 2441 4250 2034 4250 
Q 1625 4250 1398 4047 
Q 1172 3844 1172 3481 
z
" transform="scale(0.015625)"/>
       </defs>
       <use xlink:href="#DejaVuSans-30"/>
       <use xlink:href="#DejaVuSans-2e" transform="translate(63.623047 0)"/>
       <use xlink:href="#DejaVuSans-38" transform="translate(95.410156 0)"/>
      </g>
     </g>
    </g>
    <g id="xtick_6">
     <g id="line2d_6">
      <g>
       <use xlink:href="#me2f974e1e5" x="557.235" y="532.6" style="stroke: #000000; stroke-width: 0.8"/>
      </g>
     </g>
     <g id="text_6">
      <!-- 1.0 -->
      <g transform="translate(549.283437 547.198437) scale(0.1 -0.1)">
       <defs>
        <path id="DejaVuSans-31" d="M 794 531 
L 1825 531 
L 1825 4091 
L 703 3866 
L 703 4441 
L 1819 4666 
L 2450 4666 
L 2450 531 
L 3481 531 
L 3481 0 
L 794 0 
L 794 531 
z
" transform="scale(0.015625)"/>
       </defs>
       <use xlink:href="#DejaVuSans-31"/>
       <use xlink:href="#DejaVuSans-2e" transform="translate(63.623047 0)"/>
       <use xlink:href="#DejaVuSans-30" transform="translate(95.410156 0)"/>
      </g>
     </g>
    </g>
    <g id="text_7">
     <!-- Climate Deterioration Rate ($k$) -->
     <g transform="translate(228.4125 560.876562) scale(0.1 -0.1)">
      <defs>
       <path id="DejaVuSans-43" d="M 4122 4306 
L 4122 3641 
Q 3803 3938 3442 4084 
Q 3081 4231 2675 4231 
Q 1875 4231 1450 3742 
Q 1025 3253 1025 2328 
Q 1025 1406 1450 917 
Q 1875 428 2675 428 
Q 3081 428 3442 575 
Q 3803 722 4122 1019 
L 4122 359 
Q 3791 134 3420 21 
Q 3050 -91 2638 -91 
Q 1578 -91 968 557 
Q 359 1206 359 2328 
Q 359 3453 968 4101 
Q 1578 4750 2638 4750 
Q 3056 4750 3426 4639 
Q 3797 4528 4122 4306 
z
" transform="scale(0.015625)"/>
       <path id="DejaVuSans-6c" d="M 603 4863 
L 1178 4863 
L 1178 0 
L 603 0 
L 603 4863 
z
" transform="scale(0.015625)"/>
       <path id="DejaVuSans-69" d="M 603 3500 
L 1178 3500 
L 1178 0 
L 603 0 
L 603 3500 
z
M 603 4863 
L 1178 4863 
L 1178 4134 
L 603 4134 
L 603 4863 
z
" transform="scale(0.015625)"/>
       <path id="DejaVuSans-6d" d="M 3328 2828 
Q 3544 3216 3844 3400 
Q 4144 3584 4550 3584 
Q 5097 3584 5394 3201 
Q 5691 2819 5691 2113 
L 5691 0 
L 5113 0 
L 5113 2094 
Q 5113 2597 4934 2840 
Q 4756 3084 4391 3084 
Q 3944 3084 3684 2787 
Q 3425 2491 3425 1978 
L 3425 0 
L 2847 0 
L 2847 2094 
Q 2847 2600 2669 2842 
Q 2491 3084 2119 3084 
Q 1678 3084 1418 2786 
Q 1159 2488 1159 1978 
L 1159 0 
L 581 0 
L 581 3500 
L 1159 3500 
L 1159 2956 
Q 1356 3278 1631 3431 
Q 1906 3584 2284 3584 
Q 2666 3584 2933 3390 
Q 3200 3197 3328 2828 
z
" transform="scale(0.015625)"/>
       <path id="DejaVuSans-61" d="M 2194 1759 
Q 1497 1759 1228 1600 
Q 959 1441 959 1056 
Q 959 750 1161 570 
Q 1363 391 1709 391 
Q 2188 391 2477 730 
Q 2766 1069 2766 1631 
L 2766 1759 
L 2194 1759 
z
M 3341 1997 
L 3341 0 
L 2766 0 
L 2766 531 
Q 2569 213 2275 61 
Q 1981 -91 1556 -91 
Q 1019 -91 701 211 
Q 384 513 384 1019 
Q 384 1609 779 1909 
Q 1175 2209 1959 2209 
L 2766 2209 
L 2766 2266 
Q 2766 2663 2505 2880 
Q 2244 3097 1772 3097 
Q 1472 3097 1187 3025 
Q 903 2953 641 2809 
L 641 3341 
Q 956 3463 1253 3523 
Q 1550 3584 1831 3584 
Q 2591 3584 2966 3190 
Q 3341 2797 3341 1997 
z
" transform="scale(0.015625)"/>
       <path id="DejaVuSans-74" d="M 1172 4494 
L 1172 3500 
L 2356 3500 
L 2356 3053 
L 1172 3053 
L 1172 1153 
Q 1172 725 1289 603 
Q 1406 481 1766 481 
L 2356 481 
L 2356 0 
L 1766 0 
Q 1100 0 847 248 
Q 594 497 594 1153 
L 594 3053 
L 172 3053 
L 172 3500 
L 594 3500 
L 594 4494 
L 1172 4494 
z
" transform="scale(0.015625)"/>
       <path id="DejaVuSans-65" d="M 3597 1894 
L 3597 1613 
L 953 1613 
Q 991 1019 1311 708 
Q 1631 397 2203 397 
Q 2534 397 2845 478 
Q 3156 559 3463 722 
L 3463 178 
Q 3153 47 2828 -22 
Q 2503 -91 2169 -91 
Q 1331 -91 842 396 
Q 353 884 353 1716 
Q 353 2575 817 3079 
Q 1281 3584 2069 3584 
Q 2775 3584 3186 3129 
Q 3597 2675 3597 1894 
z
M 3022 2063 
Q 3016 2534 2758 2815 
Q 2500 3097 2075 3097 
Q 1594 3097 1305 2825 
Q 1016 2553 972 2059 
L 3022 2063 
z
" transform="scale(0.015625)"/>
       <path id="DejaVuSans-20" transform="scale(0.015625)"/>
       <path id="DejaVuSans-44" d="M 1259 4147 
L 1259 519 
L 2022 519 
Q 2988 519 3436 956 
Q 3884 1394 3884 2338 
Q 3884 3275 3436 3711 
Q 2988 4147 2022 4147 
L 1259 4147 
z
M 628 4666 
L 1925 4666 
Q 3281 4666 3915 4102 
Q 4550 3538 4550 2338 
Q 4550 1131 3912 565 
Q 3275 0 1925 0 
L 628 0 
L 628 4666 
z
" transform="scale(0.015625)"/>
       <path id="DejaVuSans-72" d="M 2631 2963 
Q 2534 3019 2420 3045 
Q 2306 3072 2169 3072 
Q 1681 3072 1420 2755 
Q 1159 2438 1159 1844 
L 1159 0 
L 581 0 
L 581 3500 
L 1159 3500 
L 1159 2956 
Q 1341 3275 1631 3429 
Q 1922 3584 2338 3584 
Q 2397 3584 2469 3576 
Q 2541 3569 2628 3553 
L 2631 2963 
z
" transform="scale(0.015625)"/>
       <path id="DejaVuSans-6f" d="M 1959 3097 
Q 1497 3097 1228 2736 
Q 959 2375 959 1747 
Q 959 1119 1226 758 
Q 1494 397 1959 397 
Q 2419 397 2687 759 
Q 2956 1122 2956 1747 
Q 2956 2369 2687 2733 
Q 2419 3097 1959 3097 
z
M 1959 3584 
Q 2709 3584 3137 3096 
Q 3566 2609 3566 1747 
Q 3566 888 3137 398 
Q 2709 -91 1959 -91 
Q 1206 -91 779 398 
Q 353 888 353 1747 
Q 353 2609 779 3096 
Q 1206 3584 1959 3584 
z
" transform="scale(0.015625)"/>
       <path id="DejaVuSans-6e" d="M 3513 2113 
L 3513 0 
L 2938 0 
L 2938 2094 
Q 2938 2591 2744 2837 
Q 2550 3084 2163 3084 
Q 1697 3084 1428 2787 
Q 1159 2491 1159 1978 
L 1159 0 
L 581 0 
L 581 3500 
L 1159 3500 
L 1159 2956 
Q 1366 3272 1645 3428 
Q 1925 3584 2291 3584 
Q 2894 3584 3203 3211 
Q 3513 2838 3513 2113 
z
" transform="scale(0.015625)"/>
       <path id="DejaVuSans-52" d="M 2841 2188 
Q 3044 2119 3236 1894 
Q 3428 1669 3622 1275 
L 4263 0 
L 3584 0 
L 2988 1197 
Q 2756 1666 2539 1819 
Q 2322 1972 1947 1972 
L 1259 1972 
L 1259 0 
L 628 0 
L 628 4666 
L 2053 4666 
Q 2853 4666 3247 4331 
Q 3641 3997 3641 3322 
Q 3641 2881 3436 2590 
Q 3231 2300 2841 2188 
z
M 1259 4147 
L 1259 2491 
L 2053 2491 
Q 2509 2491 2742 2702 
Q 2975 2913 2975 3322 
Q 2975 3731 2742 3939 
Q 2509 4147 2053 4147 
L 1259 4147 
z
" transform="scale(0.015625)"/>
       <path id="DejaVuSans-28" d="M 1984 4856 
Q 1566 4138 1362 3434 
Q 1159 2731 1159 2009 
Q 1159 1288 1364 580 
Q 1569 -128 1984 -844 
L 1484 -844 
Q 1016 -109 783 600 
Q 550 1309 550 2009 
Q 550 2706 781 3412 
Q 1013 4119 1484 4856 
L 1984 4856 
z
" transform="scale(0.015625)"/>
       <path id="DejaVuSans-Oblique-6b" d="M 1172 4863 
L 1747 4863 
L 1197 2028 
L 3169 3500 
L 3916 3500 
L 1716 1825 
L 3322 0 
L 2625 0 
L 1131 1709 
L 800 0 
L 225 0 
L 1172 4863 
z
" transform="scale(0.015625)"/>
       <path id="DejaVuSans-29" d="M 513 4856 
L 1013 4856 
Q 1481 4119 1714 3412 
Q 1947 2706 1947 2009 
Q 1947 1309 1714 600 
Q 1481 -109 1013 -844 
L 513 -844 
Q 928 -128 1133 580 
Q 1338 1288 1338 2009 
Q 1338 2731 1133 3434 
Q 928 4138 513 4856 
z
" transform="scale(0.015625)"/>
      </defs>
      <use xlink:href="#DejaVuSans-43" transform="translate(0 0.015625)"/>
      <use xlink:href="#DejaVuSans-6c" transform="translate(69.824219 0.015625)"/>
      <use xlink:href="#DejaVuSans-69" transform="translate(97.607422 0.015625)"/>
      <use xlink:href="#DejaVuSans-6d" transform="translate(125.390625 0.015625)"/>
      <use xlink:href="#DejaVuSans-61" transform="translate(222.802734 0.015625)"/>
      <use xlink:href="#DejaVuSans-74" transform="translate(284.082031 0.015625)"/>
      <use xlink:href="#DejaVuSans-65" transform="translate(323.291016 0.015625)"/>
      <use xlink:href="#DejaVuSans-20" transform="translate(384.814453 0.015625)"/>
      <use xlink:href="#DejaVuSans-44" transform="translate(416.601562 0.015625)"/>
      <use xlink:href="#DejaVuSans-65" transform="translate(493.603516 0.015625)"/>
      <use xlink:href="#DejaVuSans-74" transform="translate(555.126953 0.015625)"/>
      <use xlink:href="#DejaVuSans-65" transform="translate(594.335938 0.015625)"/>
      <use xlink:href="#DejaVuSans-72" transform="translate(655.859375 0.015625)"/>
      <use xlink:href="#DejaVuSans-69" transform="translate(696.972656 0.015625)"/>
      <use xlink:href="#DejaVuSans-6f" transform="translate(724.755859 0.015625)"/>
      <use xlink:href="#DejaVuSans-72" transform="translate(785.9375 0.015625)"/>
      <use xlink:href="#DejaVuSans-61" transform="translate(827.050781 0.015625)"/>
      <use xlink:href="#DejaVuSans-74" transform="translate(888.330078 0.015625)"/>
      <use xlink:href="#DejaVuSans-69" transform="translate(927.539062 0.015625)"/>
      <use xlink:href="#DejaVuSans-6f" transform="translate(955.322266 0.015625)"/>
      <use xlink:href="#DejaVuSans-6e" transform="translate(1016.503906 0.015625)"/>
      <use xlink:href="#DejaVuSans-20" transform="translate(1079.882812 0.015625)"/>
      <use xlink:href="#DejaVuSans-52" transform="translate(1111.669922 0.015625)"/>
      <use xlink:href="#DejaVuSans-61" transform="translate(1181.152344 0.015625)"/>
      <use xlink:href="#DejaVuSans-74" transform="translate(1242.431641 0.015625)"/>
      <use xlink:href="#DejaVuSans-65" transform="translate(1281.640625 0.015625)"/>
      <use xlink:href="#DejaVuSans-20" transform="translate(1343.164062 0.015625)"/>
      <use xlink:href="#DejaVuSans-28" transform="translate(1374.951172 0.015625)"/>
      <use xlink:href="#DejaVuSans-Oblique-6b" transform="translate(1413.964844 0.015625)"/>
      <use xlink:href="#DejaVuSans-29" transform="translate(1471.875 0.015625)"/>
     </g>
    </g>
   </g>
   <g id="matplotlib.axis_2">
    <g id="ytick_1">
     <g id="line2d_7">
      <defs>
       <path id="md0df846b28" d="M 0 0 
L -3.5 0 
" style="stroke: #000000; stroke-width: 0.8"/>
      </defs>
      <g>
       <use xlink:href="#md0df846b28" x="50.69" y="435.266263" style="stroke: #000000; stroke-width: 0.8"/>
      </g>
     </g>
     <g id="text_8">
      <!-- 0.2 -->
      <g transform="translate(27.786875 439.065481) scale(0.1 -0.1)">
       <use xlink:href="#DejaVuSans-30"/>
       <use xlink:href="#DejaVuSans-2e" transform="translate(63.623047 0)"/>
       <use xlink:href="#DejaVuSans-32" transform="translate(95.410156 0)"/>
      </g>
     </g>
    </g>
    <g id="ytick_2">
     <g id="line2d_8">
      <g>
       <use xlink:href="#md0df846b28" x="50.69" y="332.809697" style="stroke: #000000; stroke-width: 0.8"/>
      </g>
     </g>
     <g id="text_9">
      <!-- 0.4 -->
      <g transform="translate(27.786875 336.608916) scale(0.1 -0.1)">
       <use xlink:href="#DejaVuSans-30"/>
       <use xlink:href="#DejaVuSans-2e" transform="translate(63.623047 0)"/>
       <use xlink:href="#DejaVuSans-34" transform="translate(95.410156 0)"/>
      </g>
     </g>
    </g>
    <g id="ytick_3">
     <g id="line2d_9">
      <g>
       <use xlink:href="#md0df846b28" x="50.69" y="230.353131" style="stroke: #000000; stroke-width: 0.8"/>
      </g>
     </g>
     <g id="text_10">
      <!-- 0.6 -->
      <g transform="translate(27.786875 234.15235) scale(0.1 -0.1)">
       <use xlink:href="#DejaVuSans-30"/>
       <use xlink:href="#DejaVuSans-2e" transform="translate(63.623047 0)"/>
       <use xlink:href="#DejaVuSans-36" transform="translate(95.410156 0)"/>
      </g>
     </g>
    </g>
    <g id="ytick_4">
     <g id="line2d_10">
      <g>
       <use xlink:href="#md0df846b28" x="50.69" y="127.896566" style="stroke: #000000; stroke-width: 0.8"/>
      </g>
     </g>
     <g id="text_11">
      <!-- 0.8 -->
      <g transform="translate(27.786875 131.695784) scale(0.1 -0.1)">
       <use xlink:href="#DejaVuSans-30"/>
       <use xlink:href="#DejaVuSans-2e" transform="translate(63.623047 0)"/>
       <use xlink:href="#DejaVuSans-38" transform="translate(95.410156 0)"/>
      </g>
     </g>
    </g>
    <g id="ytick_5">
     <g id="line2d_11">
      <g>
       <use xlink:href="#md0df846b28" x="50.69" y="25.44" style="stroke: #000000; stroke-width: 0.8"/>
      </g>
     </g>
     <g id="text_12">
      <!-- 1.0 -->
      <g transform="translate(27.786875 29.239219) scale(0.1 -0.1)">
       <use xlink:href="#DejaVuSans-31"/>
       <use xlink:href="#DejaVuSans-2e" transform="translate(63.623047 0)"/>
       <use xlink:href="#DejaVuSans-30" transform="translate(95.410156 0)"/>
      </g>
     </g>
    </g>
    <g id="text_13">
     <!-- Construction Cost Factor ($\beta$) -->
     <g transform="translate(21.686875 349.62) rotate(-90) scale(0.1 -0.1)">
      <defs>
       <path id="DejaVuSans-73" d="M 2834 3397 
L 2834 2853 
Q 2591 2978 2328 3040 
Q 2066 3103 1784 3103 
Q 1356 3103 1142 2972 
Q 928 2841 928 2578 
Q 928 2378 1081 2264 
Q 1234 2150 1697 2047 
L 1894 2003 
Q 2506 1872 2764 1633 
Q 3022 1394 3022 966 
Q 3022 478 2636 193 
Q 2250 -91 1575 -91 
Q 1294 -91 989 -36 
Q 684 19 347 128 
L 347 722 
Q 666 556 975 473 
Q 1284 391 1588 391 
Q 1994 391 2212 530 
Q 2431 669 2431 922 
Q 2431 1156 2273 1281 
Q 2116 1406 1581 1522 
L 1381 1569 
Q 847 1681 609 1914 
Q 372 2147 372 2553 
Q 372 3047 722 3315 
Q 1072 3584 1716 3584 
Q 2034 3584 2315 3537 
Q 2597 3491 2834 3397 
z
" transform="scale(0.015625)"/>
       <path id="DejaVuSans-75" d="M 544 1381 
L 544 3500 
L 1119 3500 
L 1119 1403 
Q 1119 906 1312 657 
Q 1506 409 1894 409 
Q 2359 409 2629 706 
Q 2900 1003 2900 1516 
L 2900 3500 
L 3475 3500 
L 3475 0 
L 2900 0 
L 2900 538 
Q 2691 219 2414 64 
Q 2138 -91 1772 -91 
Q 1169 -91 856 284 
Q 544 659 544 1381 
z
M 1991 3584 
L 1991 3584 
z
" transform="scale(0.015625)"/>
       <path id="DejaVuSans-63" d="M 3122 3366 
L 3122 2828 
Q 2878 2963 2633 3030 
Q 2388 3097 2138 3097 
Q 1578 3097 1268 2742 
Q 959 2388 959 1747 
Q 959 1106 1268 751 
Q 1578 397 2138 397 
Q 2388 397 2633 464 
Q 2878 531 3122 666 
L 3122 134 
Q 2881 22 2623 -34 
Q 2366 -91 2075 -91 
Q 1284 -91 818 406 
Q 353 903 353 1747 
Q 353 2603 823 3093 
Q 1294 3584 2113 3584 
Q 2378 3584 2631 3529 
Q 2884 3475 3122 3366 
z
" transform="scale(0.015625)"/>
       <path id="DejaVuSans-46" d="M 628 4666 
L 3309 4666 
L 3309 4134 
L 1259 4134 
L 1259 2759 
L 3109 2759 
L 3109 2228 
L 1259 2228 
L 1259 0 
L 628 0 
L 628 4666 
z
" transform="scale(0.015625)"/>
       <path id="DejaVuSans-Oblique-3b2" d="M 872 216 
L 572 -1331 
L -6 -1331 
L 928 3478 
Q 1206 4903 2538 4903 
Q 3888 4903 3659 3700 
Q 3503 2844 2894 2531 
Q 3713 2250 3553 1416 
Q 3272 -69 1759 -66 
Q 1097 -63 872 216 
z
M 1019 966 
Q 1259 422 1875 425 
Q 2775 425 2966 1406 
Q 3138 2288 1675 2219 
L 1778 2750 
Q 2909 2731 3106 3750 
Q 3241 4438 2509 4434 
Q 1691 4434 1503 3459 
L 1019 966 
z
" transform="scale(0.015625)"/>
      </defs>
      <use xlink:href="#DejaVuSans-43" transform="translate(0 0.390625)"/>
      <use xlink:href="#DejaVuSans-6f" transform="translate(69.824219 0.390625)"/>
      <use xlink:href="#DejaVuSans-6e" transform="translate(131.005859 0.390625)"/>
      <use xlink:href="#DejaVuSans-73" transform="translate(194.384766 0.390625)"/>
      <use xlink:href="#DejaVuSans-74" transform="translate(246.484375 0.390625)"/>
      <use xlink:href="#DejaVuSans-72" transform="translate(285.693359 0.390625)"/>
      <use xlink:href="#DejaVuSans-75" transform="translate(326.806641 0.390625)"/>
      <use xlink:href="#DejaVuSans-63" transform="translate(390.185547 0.390625)"/>
      <use xlink:href="#DejaVuSans-74" transform="translate(445.166016 0.390625)"/>
      <use xlink:href="#DejaVuSans-69" transform="translate(484.375 0.390625)"/>
      <use xlink:href="#DejaVuSans-6f" transform="translate(512.158203 0.390625)"/>
      <use xlink:href="#DejaVuSans-6e" transform="translate(573.339844 0.390625)"/>
      <use xlink:href="#DejaVuSans-20" transform="translate(636.71875 0.390625)"/>
      <use xlink:href="#DejaVuSans-43" transform="translate(668.505859 0.390625)"/>
      <use xlink:href="#DejaVuSans-6f" transform="translate(738.330078 0.390625)"/>
      <use xlink:href="#DejaVuSans-73" transform="translate(799.511719 0.390625)"/>
      <use xlink:href="#DejaVuSans-74" transform="translate(851.611328 0.390625)"/>
      <use xlink:href="#DejaVuSans-20" transform="translate(890.820312 0.390625)"/>
      <use xlink:href="#DejaVuSans-46" transform="translate(922.607422 0.390625)"/>
      <use xlink:href="#DejaVuSans-61" transform="translate(980.126953 0.390625)"/>
      <use xlink:href="#DejaVuSans-63" transform="translate(1041.40625 0.390625)"/>
      <use xlink:href="#DejaVuSans-74" transform="translate(1096.386719 0.390625)"/>
      <use xlink:href="#DejaVuSans-6f" transform="translate(1135.595703 0.390625)"/>
      <use xlink:href="#DejaVuSans-72" transform="translate(1196.777344 0.390625)"/>
      <use xlink:href="#DejaVuSans-20" transform="translate(1237.890625 0.390625)"/>
      <use xlink:href="#DejaVuSans-28" transform="translate(1269.677734 0.390625)"/>
      <use xlink:href="#DejaVuSans-Oblique-3b2" transform="translate(1308.691406 0.390625)"/>
      <use xlink:href="#DejaVuSans-29" transform="translate(1372.509766 0.390625)"/>
     </g>
    </g>
   </g>
   <g id="line2d_12">
    <path d="M 65.88635 532.6 
L 65.88635 25.44 
" clip-path="url(#p49811ea2cd)" style="fill: none; stroke-dasharray: 5.55,2.4; stroke-dashoffset: 0; stroke: #0000ff; stroke-width: 1.5"/>
   </g>
   <g id="line2d_13">
    <path d="M 81.0827 532.6 
L 81.0827 25.44 
" clip-path="url(#p49811ea2cd)" style="fill: none; stroke-dasharray: 5.55,2.4; stroke-dashoffset: 0; stroke: #0000ff; stroke-width: 1.5"/>
   </g>
   <g id="patch_4">
    <path d="M 50.69 532.6 
L 50.69 25.44 
" style="fill: none; stroke: #000000; stroke-width: 0.8; stroke-linejoin: miter; stroke-linecap: square"/>
   </g>
   <g id="patch_5">
    <path d="M 557.235 532.6 
L 557.235 25.44 
" style="fill: none; stroke: #000000; stroke-width: 0.8; stroke-linejoin: miter; stroke-linecap: square"/>
   </g>
   <g id="patch_6">
    <path d="M 50.69 532.6 
L 557.235 532.6 
" style="fill: none; stroke: #000000; stroke-width: 0.8; stroke-linejoin: miter; stroke-linecap: square"/>
   </g>
   <g id="patch_7">
    <path d="M 50.69 25.44 
L 557.235 25.44 
" style="fill: none; stroke: #000000; stroke-width: 0.8; stroke-linejoin: miter; stroke-linecap: square"/>
   </g>
   <g id="text_14">
    <g id="patch_8">
     <path d="M 81.551944 451.343638 
L 151.529756 451.343638 
L 151.529756 414.48695 
L 81.551944 414.48695 
z
" style="fill: #ffffff; opacity: 0.7"/>
    </g>
    <!-- Current -->
    <g style="fill: #0000ff" transform="translate(97.190147 425.285544) scale(0.09 -0.09)">
     <defs>
      <path id="DejaVuSans-Bold-43" d="M 4288 256 
Q 3956 84 3597 -3 
Q 3238 -91 2847 -91 
Q 1681 -91 1000 561 
Q 319 1213 319 2328 
Q 319 3447 1000 4098 
Q 1681 4750 2847 4750 
Q 3238 4750 3597 4662 
Q 3956 4575 4288 4403 
L 4288 3438 
Q 3953 3666 3628 3772 
Q 3303 3878 2944 3878 
Q 2300 3878 1931 3465 
Q 1563 3053 1563 2328 
Q 1563 1606 1931 1193 
Q 2300 781 2944 781 
Q 3303 781 3628 887 
Q 3953 994 4288 1222 
L 4288 256 
z
" transform="scale(0.015625)"/>
      <path id="DejaVuSans-Bold-75" d="M 500 1363 
L 500 3500 
L 1625 3500 
L 1625 3150 
Q 1625 2866 1622 2436 
Q 1619 2006 1619 1863 
Q 1619 1441 1641 1255 
Q 1663 1069 1716 984 
Q 1784 875 1895 815 
Q 2006 756 2150 756 
Q 2500 756 2700 1025 
Q 2900 1294 2900 1772 
L 2900 3500 
L 4019 3500 
L 4019 0 
L 2900 0 
L 2900 506 
Q 2647 200 2364 54 
Q 2081 -91 1741 -91 
Q 1134 -91 817 281 
Q 500 653 500 1363 
z
" transform="scale(0.015625)"/>
      <path id="DejaVuSans-Bold-72" d="M 3138 2547 
Q 2991 2616 2845 2648 
Q 2700 2681 2553 2681 
Q 2122 2681 1889 2404 
Q 1656 2128 1656 1613 
L 1656 0 
L 538 0 
L 538 3500 
L 1656 3500 
L 1656 2925 
Q 1872 3269 2151 3426 
Q 2431 3584 2822 3584 
Q 2878 3584 2943 3579 
Q 3009 3575 3134 3559 
L 3138 2547 
z
" transform="scale(0.015625)"/>
      <path id="DejaVuSans-Bold-65" d="M 4031 1759 
L 4031 1441 
L 1416 1441 
Q 1456 1047 1700 850 
Q 1944 653 2381 653 
Q 2734 653 3104 758 
Q 3475 863 3866 1075 
L 3866 213 
Q 3469 63 3072 -14 
Q 2675 -91 2278 -91 
Q 1328 -91 801 392 
Q 275 875 275 1747 
Q 275 2603 792 3093 
Q 1309 3584 2216 3584 
Q 3041 3584 3536 3087 
Q 4031 2591 4031 1759 
z
M 2881 2131 
Q 2881 2450 2695 2645 
Q 2509 2841 2209 2841 
Q 1884 2841 1681 2658 
Q 1478 2475 1428 2131 
L 2881 2131 
z
" transform="scale(0.015625)"/>
      <path id="DejaVuSans-Bold-6e" d="M 4056 2131 
L 4056 0 
L 2931 0 
L 2931 347 
L 2931 1631 
Q 2931 2084 2911 2256 
Q 2891 2428 2841 2509 
Q 2775 2619 2662 2680 
Q 2550 2741 2406 2741 
Q 2056 2741 1856 2470 
Q 1656 2200 1656 1722 
L 1656 0 
L 538 0 
L 538 3500 
L 1656 3500 
L 1656 2988 
Q 1909 3294 2193 3439 
Q 2478 3584 2822 3584 
Q 3428 3584 3742 3212 
Q 4056 2841 4056 2131 
z
" transform="scale(0.015625)"/>
      <path id="DejaVuSans-Bold-74" d="M 1759 4494 
L 1759 3500 
L 2913 3500 
L 2913 2700 
L 1759 2700 
L 1759 1216 
Q 1759 972 1856 886 
Q 1953 800 2241 800 
L 2816 800 
L 2816 0 
L 1856 0 
Q 1194 0 917 276 
Q 641 553 641 1216 
L 641 2700 
L 84 2700 
L 84 3500 
L 641 3500 
L 641 4494 
L 1759 4494 
z
" transform="scale(0.015625)"/>
     </defs>
     <use xlink:href="#DejaVuSans-Bold-43"/>
     <use xlink:href="#DejaVuSans-Bold-75" transform="translate(73.388672 0)"/>
     <use xlink:href="#DejaVuSans-Bold-72" transform="translate(144.580078 0)"/>
     <use xlink:href="#DejaVuSans-Bold-72" transform="translate(193.896484 0)"/>
     <use xlink:href="#DejaVuSans-Bold-65" transform="translate(243.212891 0)"/>
     <use xlink:href="#DejaVuSans-Bold-6e" transform="translate(311.035156 0)"/>
     <use xlink:href="#DejaVuSans-Bold-74" transform="translate(382.226562 0)"/>
    </g>
    <!-- Projection -->
    <g style="fill: #0000ff" transform="translate(90.680616 435.363575) scale(0.09 -0.09)">
     <defs>
      <path id="DejaVuSans-Bold-50" d="M 588 4666 
L 2584 4666 
Q 3475 4666 3951 4270 
Q 4428 3875 4428 3144 
Q 4428 2409 3951 2014 
Q 3475 1619 2584 1619 
L 1791 1619 
L 1791 0 
L 588 0 
L 588 4666 
z
M 1791 3794 
L 1791 2491 
L 2456 2491 
Q 2806 2491 2997 2661 
Q 3188 2831 3188 3144 
Q 3188 3456 2997 3625 
Q 2806 3794 2456 3794 
L 1791 3794 
z
" transform="scale(0.015625)"/>
      <path id="DejaVuSans-Bold-6f" d="M 2203 2784 
Q 1831 2784 1636 2517 
Q 1441 2250 1441 1747 
Q 1441 1244 1636 976 
Q 1831 709 2203 709 
Q 2569 709 2762 976 
Q 2956 1244 2956 1747 
Q 2956 2250 2762 2517 
Q 2569 2784 2203 2784 
z
M 2203 3584 
Q 3106 3584 3614 3096 
Q 4122 2609 4122 1747 
Q 4122 884 3614 396 
Q 3106 -91 2203 -91 
Q 1297 -91 786 396 
Q 275 884 275 1747 
Q 275 2609 786 3096 
Q 1297 3584 2203 3584 
z
" transform="scale(0.015625)"/>
      <path id="DejaVuSans-Bold-6a" d="M 538 3500 
L 1656 3500 
L 1656 63 
Q 1656 -641 1318 -1011 
Q 981 -1381 341 -1381 
L -213 -1381 
L -213 -647 
L -19 -647 
Q 300 -647 419 -503 
Q 538 -359 538 63 
L 538 3500 
z
M 538 4863 
L 1656 4863 
L 1656 3950 
L 538 3950 
L 538 4863 
z
" transform="scale(0.015625)"/>
      <path id="DejaVuSans-Bold-63" d="M 3366 3391 
L 3366 2478 
Q 3138 2634 2908 2709 
Q 2678 2784 2431 2784 
Q 1963 2784 1702 2511 
Q 1441 2238 1441 1747 
Q 1441 1256 1702 982 
Q 1963 709 2431 709 
Q 2694 709 2930 787 
Q 3166 866 3366 1019 
L 3366 103 
Q 3103 6 2833 -42 
Q 2563 -91 2291 -91 
Q 1344 -91 809 395 
Q 275 881 275 1747 
Q 275 2613 809 3098 
Q 1344 3584 2291 3584 
Q 2566 3584 2833 3536 
Q 3100 3488 3366 3391 
z
" transform="scale(0.015625)"/>
      <path id="DejaVuSans-Bold-69" d="M 538 3500 
L 1656 3500 
L 1656 0 
L 538 0 
L 538 3500 
z
M 538 4863 
L 1656 4863 
L 1656 3950 
L 538 3950 
L 538 4863 
z
" transform="scale(0.015625)"/>
     </defs>
     <use xlink:href="#DejaVuSans-Bold-50"/>
     <use xlink:href="#DejaVuSans-Bold-72" transform="translate(73.291016 0)"/>
     <use xlink:href="#DejaVuSans-Bold-6f" transform="translate(122.607422 0)"/>
     <use xlink:href="#DejaVuSans-Bold-6a" transform="translate(191.308594 0)"/>
     <use xlink:href="#DejaVuSans-Bold-65" transform="translate(225.585938 0)"/>
     <use xlink:href="#DejaVuSans-Bold-63" transform="translate(293.408203 0)"/>
     <use xlink:href="#DejaVuSans-Bold-74" transform="translate(352.685547 0)"/>
     <use xlink:href="#DejaVuSans-Bold-69" transform="translate(400.488281 0)"/>
     <use xlink:href="#DejaVuSans-Bold-6f" transform="translate(434.765625 0)"/>
     <use xlink:href="#DejaVuSans-Bold-6e" transform="translate(503.466797 0)"/>
    </g>
    <!-- (2025-2050) -->
    <g style="fill: #0000ff" transform="translate(85.511944 445.511919) scale(0.09 -0.09)">
     <defs>
      <path id="DejaVuSans-Bold-28" d="M 2413 -844 
L 1484 -844 
Q 1006 -72 778 623 
Q 550 1319 550 2003 
Q 550 2688 779 3389 
Q 1009 4091 1484 4856 
L 2413 4856 
Q 2013 4116 1813 3408 
Q 1613 2700 1613 2009 
Q 1613 1319 1811 609 
Q 2009 -100 2413 -844 
z
" transform="scale(0.015625)"/>
      <path id="DejaVuSans-Bold-32" d="M 1844 884 
L 3897 884 
L 3897 0 
L 506 0 
L 506 884 
L 2209 2388 
Q 2438 2594 2547 2791 
Q 2656 2988 2656 3200 
Q 2656 3528 2436 3728 
Q 2216 3928 1850 3928 
Q 1569 3928 1234 3808 
Q 900 3688 519 3450 
L 519 4475 
Q 925 4609 1322 4679 
Q 1719 4750 2100 4750 
Q 2938 4750 3402 4381 
Q 3866 4013 3866 3353 
Q 3866 2972 3669 2642 
Q 3472 2313 2841 1759 
L 1844 884 
z
" transform="scale(0.015625)"/>
      <path id="DejaVuSans-Bold-30" d="M 2944 2338 
Q 2944 3213 2780 3570 
Q 2616 3928 2228 3928 
Q 1841 3928 1675 3570 
Q 1509 3213 1509 2338 
Q 1509 1453 1675 1090 
Q 1841 728 2228 728 
Q 2613 728 2778 1090 
Q 2944 1453 2944 2338 
z
M 4147 2328 
Q 4147 1169 3647 539 
Q 3147 -91 2228 -91 
Q 1306 -91 806 539 
Q 306 1169 306 2328 
Q 306 3491 806 4120 
Q 1306 4750 2228 4750 
Q 3147 4750 3647 4120 
Q 4147 3491 4147 2328 
z
" transform="scale(0.015625)"/>
      <path id="DejaVuSans-Bold-35" d="M 678 4666 
L 3669 4666 
L 3669 3781 
L 1638 3781 
L 1638 3059 
Q 1775 3097 1914 3117 
Q 2053 3138 2203 3138 
Q 3056 3138 3531 2711 
Q 4006 2284 4006 1522 
Q 4006 766 3489 337 
Q 2972 -91 2053 -91 
Q 1656 -91 1267 -14 
Q 878 63 494 219 
L 494 1166 
Q 875 947 1217 837 
Q 1559 728 1863 728 
Q 2300 728 2551 942 
Q 2803 1156 2803 1522 
Q 2803 1891 2551 2103 
Q 2300 2316 1863 2316 
Q 1603 2316 1309 2248 
Q 1016 2181 678 2041 
L 678 4666 
z
" transform="scale(0.015625)"/>
      <path id="DejaVuSans-Bold-2d" d="M 347 2297 
L 2309 2297 
L 2309 1388 
L 347 1388 
L 347 2297 
z
" transform="scale(0.015625)"/>
      <path id="DejaVuSans-Bold-29" d="M 513 -844 
Q 913 -100 1113 609 
Q 1313 1319 1313 2009 
Q 1313 2700 1113 3408 
Q 913 4116 513 4856 
L 1441 4856 
Q 1916 4091 2145 3389 
Q 2375 2688 2375 2003 
Q 2375 1319 2147 623 
Q 1919 -72 1441 -844 
L 513 -844 
z
" transform="scale(0.015625)"/>
     </defs>
     <use xlink:href="#DejaVuSans-Bold-28"/>
     <use xlink:href="#DejaVuSans-Bold-32" transform="translate(45.703125 0)"/>
     <use xlink:href="#DejaVuSans-Bold-30" transform="translate(115.283203 0)"/>
     <use xlink:href="#DejaVuSans-Bold-32" transform="translate(184.863281 0)"/>
     <use xlink:href="#DejaVuSans-Bold-35" transform="translate(254.443359 0)"/>
     <use xlink:href="#DejaVuSans-Bold-2d" transform="translate(324.023438 0)"/>
     <use xlink:href="#DejaVuSans-Bold-32" transform="translate(365.527344 0)"/>
     <use xlink:href="#DejaVuSans-Bold-30" transform="translate(435.107422 0)"/>
     <use xlink:href="#DejaVuSans-Bold-35" transform="translate(504.6875 0)"/>
     <use xlink:href="#DejaVuSans-Bold-30" transform="translate(574.267578 0)"/>
     <use xlink:href="#DejaVuSans-Bold-29" transform="translate(643.847656 0)"/>
    </g>
   </g>
   <g id="text_15">
    <!-- Stability Analysis: Feasibility Boundary -->
    <g transform="translate(188.0575 19.44) scale(0.12 -0.12)">
     <defs>
      <path id="DejaVuSans-53" d="M 3425 4513 
L 3425 3897 
Q 3066 4069 2747 4153 
Q 2428 4238 2131 4238 
Q 1616 4238 1336 4038 
Q 1056 3838 1056 3469 
Q 1056 3159 1242 3001 
Q 1428 2844 1947 2747 
L 2328 2669 
Q 3034 2534 3370 2195 
Q 3706 1856 3706 1288 
Q 3706 609 3251 259 
Q 2797 -91 1919 -91 
Q 1588 -91 1214 -16 
Q 841 59 441 206 
L 441 856 
Q 825 641 1194 531 
Q 1563 422 1919 422 
Q 2459 422 2753 634 
Q 3047 847 3047 1241 
Q 3047 1584 2836 1778 
Q 2625 1972 2144 2069 
L 1759 2144 
Q 1053 2284 737 2584 
Q 422 2884 422 3419 
Q 422 4038 858 4394 
Q 1294 4750 2059 4750 
Q 2388 4750 2728 4690 
Q 3069 4631 3425 4513 
z
" transform="scale(0.015625)"/>
      <path id="DejaVuSans-62" d="M 3116 1747 
Q 3116 2381 2855 2742 
Q 2594 3103 2138 3103 
Q 1681 3103 1420 2742 
Q 1159 2381 1159 1747 
Q 1159 1113 1420 752 
Q 1681 391 2138 391 
Q 2594 391 2855 752 
Q 3116 1113 3116 1747 
z
M 1159 2969 
Q 1341 3281 1617 3432 
Q 1894 3584 2278 3584 
Q 2916 3584 3314 3078 
Q 3713 2572 3713 1747 
Q 3713 922 3314 415 
Q 2916 -91 2278 -91 
Q 1894 -91 1617 61 
Q 1341 213 1159 525 
L 1159 0 
L 581 0 
L 581 4863 
L 1159 4863 
L 1159 2969 
z
" transform="scale(0.015625)"/>
      <path id="DejaVuSans-79" d="M 2059 -325 
Q 1816 -950 1584 -1140 
Q 1353 -1331 966 -1331 
L 506 -1331 
L 506 -850 
L 844 -850 
Q 1081 -850 1212 -737 
Q 1344 -625 1503 -206 
L 1606 56 
L 191 3500 
L 800 3500 
L 1894 763 
L 2988 3500 
L 3597 3500 
L 2059 -325 
z
" transform="scale(0.015625)"/>
      <path id="DejaVuSans-41" d="M 2188 4044 
L 1331 1722 
L 3047 1722 
L 2188 4044 
z
M 1831 4666 
L 2547 4666 
L 4325 0 
L 3669 0 
L 3244 1197 
L 1141 1197 
L 716 0 
L 50 0 
L 1831 4666 
z
" transform="scale(0.015625)"/>
      <path id="DejaVuSans-3a" d="M 750 794 
L 1409 794 
L 1409 0 
L 750 0 
L 750 794 
z
M 750 3309 
L 1409 3309 
L 1409 2516 
L 750 2516 
L 750 3309 
z
" transform="scale(0.015625)"/>
      <path id="DejaVuSans-42" d="M 1259 2228 
L 1259 519 
L 2272 519 
Q 2781 519 3026 730 
Q 3272 941 3272 1375 
Q 3272 1813 3026 2020 
Q 2781 2228 2272 2228 
L 1259 2228 
z
M 1259 4147 
L 1259 2741 
L 2194 2741 
Q 2656 2741 2882 2914 
Q 3109 3088 3109 3444 
Q 3109 3797 2882 3972 
Q 2656 4147 2194 4147 
L 1259 4147 
z
M 628 4666 
L 2241 4666 
Q 2963 4666 3353 4366 
Q 3744 4066 3744 3513 
Q 3744 3084 3544 2831 
Q 3344 2578 2956 2516 
Q 3422 2416 3680 2098 
Q 3938 1781 3938 1306 
Q 3938 681 3513 340 
Q 3088 0 2303 0 
L 628 0 
L 628 4666 
z
" transform="scale(0.015625)"/>
      <path id="DejaVuSans-64" d="M 2906 2969 
L 2906 4863 
L 3481 4863 
L 3481 0 
L 2906 0 
L 2906 525 
Q 2725 213 2448 61 
Q 2172 -91 1784 -91 
Q 1150 -91 751 415 
Q 353 922 353 1747 
Q 353 2572 751 3078 
Q 1150 3584 1784 3584 
Q 2172 3584 2448 3432 
Q 2725 3281 2906 2969 
z
M 947 1747 
Q 947 1113 1208 752 
Q 1469 391 1925 391 
Q 2381 391 2643 752 
Q 2906 1113 2906 1747 
Q 2906 2381 2643 2742 
Q 2381 3103 1925 3103 
Q 1469 3103 1208 2742 
Q 947 2381 947 1747 
z
" transform="scale(0.015625)"/>
     </defs>
     <use xlink:href="#DejaVuSans-53"/>
     <use xlink:href="#DejaVuSans-74" transform="translate(63.476562 0)"/>
     <use xlink:href="#DejaVuSans-61" transform="translate(102.685547 0)"/>
     <use xlink:href="#DejaVuSans-62" transform="translate(163.964844 0)"/>
     <use xlink:href="#DejaVuSans-69" transform="translate(227.441406 0)"/>
     <use xlink:href="#DejaVuSans-6c" transform="translate(255.224609 0)"/>
     <use xlink:href="#DejaVuSans-69" transform="translate(283.007812 0)"/>
     <use xlink:href="#DejaVuSans-74" transform="translate(310.791016 0)"/>
     <use xlink:href="#DejaVuSans-79" transform="translate(350 0)"/>
     <use xlink:href="#DejaVuSans-20" transform="translate(409.179688 0)"/>
     <use xlink:href="#DejaVuSans-41" transform="translate(440.966797 0)"/>
     <use xlink:href="#DejaVuSans-6e" transform="translate(509.375 0)"/>
     <use xlink:href="#DejaVuSans-61" transform="translate(572.753906 0)"/>
     <use xlink:href="#DejaVuSans-6c" transform="translate(634.033203 0)"/>
     <use xlink:href="#DejaVuSans-79" transform="translate(661.816406 0)"/>
     <use xlink:href="#DejaVuSans-73" transform="translate(720.996094 0)"/>
     <use xlink:href="#DejaVuSans-69" transform="translate(773.095703 0)"/>
     <use xlink:href="#DejaVuSans-73" transform="translate(800.878906 0)"/>
     <use xlink:href="#DejaVuSans-3a" transform="translate(852.978516 0)"/>
     <use xlink:href="#DejaVuSans-20" transform="translate(886.669922 0)"/>
     <use xlink:href="#DejaVuSans-46" transform="translate(918.457031 0)"/>
     <use xlink:href="#DejaVuSans-65" transform="translate(970.476562 0)"/>
     <use xlink:href="#DejaVuSans-61" transform="translate(1032 0)"/>
     <use xlink:href="#DejaVuSans-73" transform="translate(1093.279297 0)"/>
     <use xlink:href="#DejaVuSans-69" transform="translate(1145.378906 0)"/>
     <use xlink:href="#DejaVuSans-62" transform="translate(1173.162109 0)"/>
     <use xlink:href="#DejaVuSans-69" transform="translate(1236.638672 0)"/>
     <use xlink:href="#DejaVuSans-6c" transform="translate(1264.421875 0)"/>
     <use xlink:href="#DejaVuSans-69" transform="translate(1292.205078 0)"/>
     <use xlink:href="#DejaVuSans-74" transform="translate(1319.988281 0)"/>
     <use xlink:href="#DejaVuSans-79" transform="translate(1359.197266 0)"/>
     <use xlink:href="#DejaVuSans-20" transform="translate(1418.376953 0)"/>
     <use xlink:href="#DejaVuSans-42" transform="translate(1450.164062 0)"/>
     <use xlink:href="#DejaVuSans-6f" transform="translate(1518.767578 0)"/>
     <use xlink:href="#DejaVuSans-75" transform="translate(1579.949219 0)"/>
     <use xlink:href="#DejaVuSans-6e" transform="translate(1643.328125 0)"/>
     <use xlink:href="#DejaVuSans-64" transform="translate(1706.707031 0)"/>
     <use xlink:href="#DejaVuSans-61" transform="translate(1770.183594 0)"/>
     <use xlink:href="#DejaVuSans-72" transform="translate(1831.462891 0)"/>
     <use xlink:href="#DejaVuSans-79" transform="translate(1872.576172 0)"/>
    </g>
   </g>
   <g id="legend_1">
    <g id="patch_9">
     <path d="M 428.0975 62.79625 
L 550.235 62.79625 
Q 552.235 62.79625 552.235 60.79625 
L 552.235 32.44 
Q 552.235 30.44 550.235 30.44 
L 428.0975 30.44 
Q 426.0975 30.44 426.0975 32.44 
L 426.0975 60.79625 
Q 426.0975 62.79625 428.0975 62.79625 
z
" style="fill: #ffffff; opacity: 0.8; stroke: #cccccc; stroke-linejoin: miter"/>
    </g>
    <g id="patch_10">
     <path d="M 430.0975 42.038437 
L 450.0975 42.038437 
L 450.0975 35.038437 
L 430.0975 35.038437 
z
" style="fill: #ccffcc"/>
    </g>
    <g id="text_16">
     <!-- Feasible Region -->
     <g transform="translate(458.0975 42.038437) scale(0.1 -0.1)">
      <defs>
       <path id="DejaVuSans-67" d="M 2906 1791 
Q 2906 2416 2648 2759 
Q 2391 3103 1925 3103 
Q 1463 3103 1205 2759 
Q 947 2416 947 1791 
Q 947 1169 1205 825 
Q 1463 481 1925 481 
Q 2391 481 2648 825 
Q 2906 1169 2906 1791 
z
M 3481 434 
Q 3481 -459 3084 -895 
Q 2688 -1331 1869 -1331 
Q 1566 -1331 1297 -1286 
Q 1028 -1241 775 -1147 
L 775 -588 
Q 1028 -725 1275 -790 
Q 1522 -856 1778 -856 
Q 2344 -856 2625 -561 
Q 2906 -266 2906 331 
L 2906 616 
Q 2728 306 2450 153 
Q 2172 0 1784 0 
Q 1141 0 747 490 
Q 353 981 353 1791 
Q 353 2603 747 3093 
Q 1141 3584 1784 3584 
Q 2172 3584 2450 3431 
Q 2728 3278 2906 2969 
L 2906 3500 
L 3481 3500 
L 3481 434 
z
" transform="scale(0.015625)"/>
      </defs>
      <use xlink:href="#DejaVuSans-46"/>
      <use xlink:href="#DejaVuSans-65" transform="translate(52.019531 0)"/>
      <use xlink:href="#DejaVuSans-61" transform="translate(113.542969 0)"/>
      <use xlink:href="#DejaVuSans-73" transform="translate(174.822266 0)"/>
      <use xlink:href="#DejaVuSans-69" transform="translate(226.921875 0)"/>
      <use xlink:href="#DejaVuSans-62" transform="translate(254.705078 0)"/>
      <use xlink:href="#DejaVuSans-6c" transform="translate(318.181641 0)"/>
      <use xlink:href="#DejaVuSans-65" transform="translate(345.964844 0)"/>
      <use xlink:href="#DejaVuSans-20" transform="translate(407.488281 0)"/>
      <use xlink:href="#DejaVuSans-52" transform="translate(439.275391 0)"/>
      <use xlink:href="#DejaVuSans-65" transform="translate(504.257812 0)"/>
      <use xlink:href="#DejaVuSans-67" transform="translate(565.78125 0)"/>
      <use xlink:href="#DejaVuSans-69" transform="translate(629.257812 0)"/>
      <use xlink:href="#DejaVuSans-6f" transform="translate(657.041016 0)"/>
      <use xlink:href="#DejaVuSans-6e" transform="translate(718.222656 0)"/>
     </g>
    </g>
    <g id="patch_11">
     <path d="M 430.0975 56.716562 
L 450.0975 56.716562 
L 450.0975 49.716562 
L 430.0975 49.716562 
z
" style="fill: #ffcccc"/>
    </g>
    <g id="text_17">
     <!-- Unfeasible Region -->
     <g transform="translate(458.0975 56.716562) scale(0.1 -0.1)">
      <defs>
       <path id="DejaVuSans-55" d="M 556 4666 
L 1191 4666 
L 1191 1831 
Q 1191 1081 1462 751 
Q 1734 422 2344 422 
Q 2950 422 3222 751 
Q 3494 1081 3494 1831 
L 3494 4666 
L 4128 4666 
L 4128 1753 
Q 4128 841 3676 375 
Q 3225 -91 2344 -91 
Q 1459 -91 1007 375 
Q 556 841 556 1753 
L 556 4666 
z
" transform="scale(0.015625)"/>
       <path id="DejaVuSans-66" d="M 2375 4863 
L 2375 4384 
L 1825 4384 
Q 1516 4384 1395 4259 
Q 1275 4134 1275 3809 
L 1275 3500 
L 2222 3500 
L 2222 3053 
L 1275 3053 
L 1275 0 
L 697 0 
L 697 3053 
L 147 3053 
L 147 3500 
L 697 3500 
L 697 3744 
Q 697 4328 969 4595 
Q 1241 4863 1831 4863 
L 2375 4863 
z
" transform="scale(0.015625)"/>
      </defs>
      <use xlink:href="#DejaVuSans-55"/>
      <use xlink:href="#DejaVuSans-6e" transform="translate(73.193359 0)"/>
      <use xlink:href="#DejaVuSans-66" transform="translate(136.572266 0)"/>
      <use xlink:href="#DejaVuSans-65" transform="translate(171.777344 0)"/>
      <use xlink:href="#DejaVuSans-61" transform="translate(233.300781 0)"/>
      <use xlink:href="#DejaVuSans-73" transform="translate(294.580078 0)"/>
      <use xlink:href="#DejaVuSans-69" transform="translate(346.679688 0)"/>
      <use xlink:href="#DejaVuSans-62" transform="translate(374.462891 0)"/>
      <use xlink:href="#DejaVuSans-6c" transform="translate(437.939453 0)"/>
      <use xlink:href="#DejaVuSans-65" transform="translate(465.722656 0)"/>
      <use xlink:href="#DejaVuSans-20" transform="translate(527.246094 0)"/>
      <use xlink:href="#DejaVuSans-52" transform="translate(559.033203 0)"/>
      <use xlink:href="#DejaVuSans-65" transform="translate(624.015625 0)"/>
      <use xlink:href="#DejaVuSans-67" transform="translate(685.539062 0)"/>
      <use xlink:href="#DejaVuSans-69" transform="translate(749.015625 0)"/>
      <use xlink:href="#DejaVuSans-6f" transform="translate(776.798828 0)"/>
      <use xlink:href="#DejaVuSans-6e" transform="translate(837.980469 0)"/>
     </g>
    </g>
   </g>
  </g>
 </g>
 <defs>
  <clipPath id="p49811ea2cd">
   <rect x="50.69" y="25.44" width="506.545" height="507.16"/>
  </clipPath>
 </defs>
 <defs>
  <pattern id="h1f94fec905" patternUnits="userSpaceOnUse" x="0" y="0" width="72" height="72">
   <rect x="0" y="0" width="73" height="73" fill="#0000ff"/>
   <path d="M -36 36 
L 36 -36 
M -30 42 
L 42 -30 
M -24 48 
L 48 -24 
M -18 54 
L 54 -18 
M -12 60 
L 60 -12 
M -6 66 
L 66 -6 
M 0 72 
L 72 0 
M 6 78 
L 78 6 
M 12 84 
L 84 12 
M 18 90 
L 90 18 
M 24 96 
L 96 24 
M 30 102 
L 102 30 
M 36 108 
L 108 36 
" style="fill: #0000ff; stroke: #0000ff; stroke-width: 1.0; stroke-linecap: butt; stroke-linejoin: miter; stroke-opacity: 0.1"/>
  </pattern>
 </defs>
</svg>
